{"glyphs":{"0":{"ha":749,"x_min":58,"x_max":692,"o":"m 692 490 q 670 274 692 368 q 606 115 648 180 q 504 17 564 50 q 366 -17 443 -17 q 235 15 292 -17 q 138 109 178 47 q 79 261 99 171 q 58 467 58 351 q 80 692 58 594 q 142 856 101 789 q 245 955 184 922 q 386 989 307 989 q 692 490 692 989 m 578 479 q 380 895 578 895 q 172 472 172 895 q 376 78 172 78 q 578 479 578 78 z "},"1":{"ha":749,"x_min":155,"x_max":491,"o":"m 491 0 l 380 0 l 380 840 q 342 811 367 827 q 287 778 317 794 q 221 747 256 762 q 155 725 187 733 l 155 838 q 232 865 191 848 q 313 904 273 882 q 388 948 353 925 q 449 994 423 972 l 491 994 l 491 0 z "},"2":{"ha":749,"x_min":74,"x_max":674,"o":"m 524 718 q 510 795 524 762 q 472 851 496 829 q 415 884 448 873 q 345 895 382 895 q 281 886 312 895 q 220 861 250 877 q 163 824 191 846 q 112 776 136 802 l 112 895 q 217 965 159 941 q 358 989 275 989 q 469 971 418 989 q 557 921 519 954 q 615 839 594 888 q 637 727 637 790 q 624 623 637 669 q 584 534 610 576 q 516 455 557 493 q 420 378 475 417 q 308 294 352 329 q 237 230 263 260 q 200 169 211 199 q 190 100 190 139 l 674 100 l 674 0 l 74 0 l 74 48 q 87 158 74 111 q 132 248 101 205 q 214 334 163 291 q 338 430 264 376 q 426 503 391 468 q 484 572 462 537 q 514 642 505 606 q 524 718 524 677 z "},"3":{"ha":749,"x_min":83,"x_max":646,"o":"m 646 275 q 622 156 646 210 q 552 63 597 102 q 444 4 507 25 q 304 -17 380 -17 q 83 36 165 -17 l 83 155 q 309 78 182 78 q 400 91 359 78 q 471 128 441 104 q 516 187 500 153 q 532 265 532 222 q 261 456 532 456 l 180 456 l 180 550 l 257 550 q 497 729 497 550 q 314 895 497 895 q 121 825 211 895 l 121 933 q 342 989 214 989 q 452 972 403 989 q 537 924 502 955 q 592 851 572 894 q 611 757 611 808 q 417 510 611 565 l 417 507 q 509 483 467 502 q 581 435 551 465 q 629 365 612 405 q 646 275 646 324 z "},"4":{"ha":749,"x_min":9,"x_max":701,"o":"m 576 972 l 576 330 l 701 330 l 701 229 l 576 229 l 576 0 l 467 0 l 467 229 l 9 229 l 9 325 q 138 478 73 397 q 263 644 203 560 q 373 812 322 728 q 458 972 423 896 l 576 972 m 135 330 l 467 330 l 467 806 q 370 648 416 718 q 284 521 325 578 q 205 418 243 464 q 135 330 168 372 z "},"5":{"ha":749,"x_min":111,"x_max":657,"o":"m 657 297 q 633 168 657 226 q 563 69 608 111 q 454 5 518 28 q 313 -17 391 -17 q 111 24 177 -17 l 111 142 q 314 78 210 78 q 409 94 367 78 q 481 137 452 109 q 527 204 511 165 q 543 290 543 243 q 479 439 543 385 q 294 493 416 493 q 253 492 275 493 q 210 491 231 492 q 167 488 188 490 q 130 485 146 487 l 163 972 l 612 972 l 612 872 l 259 872 l 239 587 q 286 589 261 588 q 329 590 310 590 q 467 570 406 590 q 571 512 528 549 q 635 419 613 474 q 657 297 657 365 z "},"6":{"ha":749,"x_min":75,"x_max":693,"o":"m 693 309 q 670 178 693 237 q 606 75 647 118 q 509 7 566 31 q 387 -17 453 -17 q 256 14 314 -17 q 158 101 198 44 q 96 241 117 159 q 75 428 75 324 q 103 658 75 555 q 183 835 132 762 q 309 949 235 909 q 472 989 382 989 q 633 961 572 989 l 633 856 q 475 895 558 895 q 357 865 410 895 q 268 783 305 836 q 211 654 231 730 q 191 487 191 579 l 193 487 q 415 608 260 608 q 530 587 479 608 q 617 525 581 565 q 673 431 654 486 q 693 309 693 376 m 579 294 q 566 386 579 345 q 529 455 553 427 q 470 499 505 484 q 390 514 435 514 q 313 498 349 514 q 252 456 278 483 q 212 394 227 429 q 197 318 197 358 q 212 224 197 268 q 252 148 226 180 q 313 97 277 115 q 392 78 349 78 q 469 94 434 78 q 528 138 503 110 q 566 207 552 167 q 579 294 579 246 z "},"7":{"ha":749,"x_min":66,"x_max":685,"o":"m 685 908 q 631 812 663 869 q 564 682 600 754 q 492 528 529 610 q 424 357 456 445 q 368 178 392 269 q 333 0 344 87 l 214 0 q 251 177 226 87 q 309 355 277 268 q 377 523 341 442 q 447 671 413 604 q 509 791 481 739 q 554 872 537 843 l 66 872 l 66 972 l 685 972 l 685 908 z "},"8":{"ha":749,"x_min":61,"x_max":692,"o":"m 61 271 q 73 349 61 310 q 108 422 85 388 q 164 484 131 456 q 241 528 198 511 q 140 618 178 563 q 103 741 103 673 q 124 840 103 794 q 181 918 144 885 q 268 970 218 951 q 376 989 318 989 q 486 970 435 989 q 572 918 536 951 q 629 839 609 884 q 650 741 650 793 q 612 618 650 673 q 513 528 575 563 q 589 484 555 511 q 645 422 622 456 q 680 349 667 388 q 692 271 692 310 q 669 155 692 208 q 604 64 646 102 q 504 5 562 26 q 376 -16 446 -16 q 250 5 307 -16 q 150 64 192 26 q 84 155 108 102 q 61 271 61 208 m 182 281 q 196 199 182 235 q 235 136 210 162 q 297 97 260 111 q 377 83 333 83 q 456 97 420 83 q 518 137 492 111 q 558 199 544 163 q 573 281 573 236 q 559 357 573 321 q 519 420 545 393 q 458 463 494 447 q 377 478 422 478 q 299 464 335 478 q 238 423 264 449 q 197 360 212 397 q 182 281 182 324 m 216 732 q 229 668 216 697 q 263 616 241 638 q 315 582 286 594 q 377 569 344 569 q 440 582 410 569 q 491 617 469 595 q 526 668 513 639 q 538 732 538 698 q 526 797 538 767 q 492 848 513 827 q 440 883 470 870 q 377 895 411 895 q 312 882 341 895 q 261 847 282 869 q 228 795 239 825 q 216 732 216 766 z "},"9":{"ha":749,"x_min":64,"x_max":681,"o":"m 681 545 q 654 307 681 411 q 577 131 628 203 q 453 21 526 58 q 286 -17 380 -17 q 117 17 190 -17 l 117 123 q 289 78 197 78 q 407 105 355 78 q 494 184 458 132 q 549 312 530 236 q 568 486 568 388 l 566 486 q 349 361 503 361 q 234 383 286 361 q 144 445 182 405 q 85 541 106 486 q 64 664 64 597 q 87 795 64 736 q 152 898 111 855 q 251 965 194 941 q 376 989 309 989 q 506 959 450 989 q 602 873 563 930 q 661 734 640 817 q 681 545 681 651 m 561 644 q 546 747 561 701 q 506 826 532 793 q 445 877 480 859 q 367 895 409 895 q 292 879 327 895 q 232 834 258 863 q 192 765 207 805 q 178 679 178 726 q 192 587 178 627 q 231 518 205 546 q 293 475 257 490 q 374 460 330 460 q 447 474 412 460 q 506 514 481 489 q 546 572 532 538 q 561 644 561 606 z "},"\u0000":{"ha":0,"x_min":0,"x_max":0,"o":""},"\r":{"ha":0,"x_min":0,"x_max":0,"o":""}," ":{"ha":380,"x_min":0,"x_max":0,"o":""},"A":{"ha":896,"x_min":15,"x_max":880,"o":"m 880 0 l 754 0 l 651 273 l 239 273 l 142 0 l 15 0 l 388 972 l 506 972 l 880 0 m 614 375 l 461 789 q 446 854 454 810 l 444 854 q 428 789 437 813 l 277 375 l 614 375 z "},"a":{"ha":707,"x_min":61,"x_max":610,"o":"m 610 0 l 498 0 l 498 109 l 496 109 q 282 -16 423 -16 q 120 39 178 -16 q 61 184 61 94 q 290 411 61 379 l 498 440 q 355 617 498 617 q 129 532 230 617 l 129 646 q 365 711 231 711 q 610 452 610 711 l 610 0 m 498 351 l 331 328 q 214 290 254 317 q 175 193 175 262 q 211 110 175 142 q 308 77 248 77 q 445 135 391 77 q 498 282 498 193 l 498 351 z "},"À":{"ha":896,"x_min":15,"x_max":880,"o":"m 880 0 l 754 0 l 651 273 l 239 273 l 142 0 l 15 0 l 388 972 l 506 972 l 880 0 m 614 375 l 461 789 q 446 854 454 810 l 444 854 q 428 789 437 813 l 277 375 l 614 375 m 514 1062 l 428 1062 l 250 1284 l 364 1284 l 514 1062 z "},"à":{"ha":707,"x_min":61,"x_max":610,"o":"m 610 0 l 498 0 l 498 109 l 496 109 q 282 -16 423 -16 q 120 39 178 -16 q 61 184 61 94 q 290 411 61 379 l 498 440 q 355 617 498 617 q 129 532 230 617 l 129 646 q 365 711 231 711 q 610 452 610 711 l 610 0 m 498 351 l 331 328 q 214 290 254 317 q 175 193 175 262 q 211 110 175 142 q 308 77 248 77 q 445 135 391 77 q 498 282 498 193 l 498 351 m 457 826 l 371 826 l 193 1048 l 307 1048 l 457 826 z "},"Á":{"ha":896,"x_min":15,"x_max":880,"o":"m 880 0 l 754 0 l 651 273 l 239 273 l 142 0 l 15 0 l 388 972 l 506 972 l 880 0 m 614 375 l 461 789 q 446 854 454 810 l 444 854 q 428 789 437 813 l 277 375 l 614 375 m 588 1284 l 410 1062 l 324 1062 l 475 1284 l 588 1284 z "},"á":{"ha":707,"x_min":61,"x_max":610,"o":"m 610 0 l 498 0 l 498 109 l 496 109 q 282 -16 423 -16 q 120 39 178 -16 q 61 184 61 94 q 290 411 61 379 l 498 440 q 355 617 498 617 q 129 532 230 617 l 129 646 q 365 711 231 711 q 610 452 610 711 l 610 0 m 498 351 l 331 328 q 214 290 254 317 q 175 193 175 262 q 211 110 175 142 q 308 77 248 77 q 445 135 391 77 q 498 282 498 193 l 498 351 m 513 1048 l 336 826 l 250 826 l 401 1048 l 513 1048 z "},"Â":{"ha":896,"x_min":15,"x_max":880,"o":"m 880 0 l 754 0 l 651 273 l 239 273 l 142 0 l 15 0 l 388 972 l 506 972 l 880 0 m 614 375 l 461 789 q 446 854 454 810 l 444 854 q 428 789 437 813 l 277 375 l 614 375 m 629 1061 l 546 1061 l 435 1217 l 323 1061 l 246 1061 l 392 1286 l 482 1286 l 629 1061 z "},"â":{"ha":707,"x_min":61,"x_max":610,"o":"m 610 0 l 498 0 l 498 109 l 496 109 q 282 -16 423 -16 q 120 39 178 -16 q 61 184 61 94 q 290 411 61 379 l 498 440 q 355 617 498 617 q 129 532 230 617 l 129 646 q 365 711 231 711 q 610 452 610 711 l 610 0 m 498 351 l 331 328 q 214 290 254 317 q 175 193 175 262 q 211 110 175 142 q 308 77 248 77 q 445 135 391 77 q 498 282 498 193 l 498 351 m 547 826 l 464 826 l 353 982 l 241 826 l 164 826 l 310 1051 l 400 1051 l 547 826 z "},"Ǎ":{"ha":896,"x_min":15,"x_max":880,"o":"m 880 0 l 754 0 l 651 273 l 239 273 l 142 0 l 15 0 l 388 972 l 506 972 l 880 0 m 614 375 l 461 789 q 446 854 454 810 l 444 854 q 428 789 437 813 l 277 375 l 614 375 m 636 1282 l 491 1058 l 401 1058 l 255 1282 l 333 1282 l 444 1126 l 555 1282 l 636 1282 z "},"ǎ":{"ha":701,"x_min":56,"x_max":605,"o":"m 605 0 l 494 0 l 494 109 l 491 109 q 277 -16 418 -16 q 115 39 174 -16 q 56 184 56 94 q 286 411 56 379 l 494 440 q 351 617 494 617 q 124 532 225 617 l 124 646 q 360 711 227 711 q 605 452 605 711 l 605 0 m 494 351 l 326 328 q 210 290 249 317 q 170 193 170 262 q 207 110 170 142 q 303 77 243 77 q 440 135 386 77 q 494 282 494 193 l 494 351 m 536 1050 l 391 826 l 302 826 l 155 1050 l 233 1050 l 345 895 l 456 1050 l 536 1050 z "},"Ã":{"ha":896,"x_min":15,"x_max":880,"o":"m 880 0 l 754 0 l 651 273 l 239 273 l 142 0 l 15 0 l 388 972 l 506 972 l 880 0 m 614 375 l 461 789 q 446 854 454 810 l 444 854 q 428 789 437 813 l 277 375 l 614 375 m 663 1223 q 630 1106 663 1152 q 542 1061 597 1061 q 432 1097 494 1061 q 351 1126 380 1126 q 292 1049 292 1126 l 228 1049 q 260 1165 228 1122 q 351 1209 293 1209 q 452 1174 395 1209 q 539 1144 503 1144 q 596 1223 596 1144 l 663 1223 z "},"ã":{"ha":707,"x_min":61,"x_max":610,"o":"m 610 0 l 498 0 l 498 109 l 496 109 q 282 -16 423 -16 q 120 39 178 -16 q 61 184 61 94 q 290 411 61 379 l 498 440 q 355 617 498 617 q 129 532 230 617 l 129 646 q 365 711 231 711 q 610 452 610 711 l 610 0 m 498 351 l 331 328 q 214 290 254 317 q 175 193 175 262 q 211 110 175 142 q 308 77 248 77 q 445 135 391 77 q 498 282 498 193 l 498 351 m 572 989 q 540 872 572 918 q 452 827 507 827 q 342 863 404 827 q 261 892 290 892 q 201 815 201 892 l 138 815 q 170 931 138 888 q 261 975 203 975 q 362 940 305 975 q 449 910 412 910 q 506 989 506 910 l 572 989 z "},"Ä":{"ha":896,"x_min":15,"x_max":880,"o":"m 880 0 l 754 0 l 651 273 l 239 273 l 142 0 l 15 0 l 388 972 l 506 972 l 880 0 m 614 375 l 461 789 q 446 854 454 810 l 444 854 q 428 789 437 813 l 277 375 l 614 375 m 570 1061 q 523 1080 543 1061 q 503 1128 503 1099 q 522 1176 503 1157 q 568 1195 541 1195 q 616 1176 597 1195 q 636 1128 636 1156 q 617 1081 636 1101 q 570 1061 598 1061 m 309 1061 q 261 1081 281 1061 q 241 1128 241 1101 q 260 1176 241 1157 q 307 1195 279 1195 q 355 1176 335 1195 q 376 1128 376 1156 q 356 1081 376 1101 q 309 1061 336 1061 z "},"ä":{"ha":707,"x_min":61,"x_max":610,"o":"m 610 0 l 498 0 l 498 109 l 496 109 q 282 -16 423 -16 q 120 39 178 -16 q 61 184 61 94 q 290 411 61 379 l 498 440 q 355 617 498 617 q 129 532 230 617 l 129 646 q 365 711 231 711 q 610 452 610 711 l 610 0 m 498 351 l 331 328 q 214 290 254 317 q 175 193 175 262 q 211 110 175 142 q 308 77 248 77 q 445 135 391 77 q 498 282 498 193 l 498 351 m 480 826 q 433 845 453 826 q 414 893 414 864 q 433 941 414 922 q 479 960 452 960 q 527 940 507 960 q 547 893 547 921 q 528 846 547 865 q 480 826 509 826 m 220 826 q 171 846 191 826 q 151 893 151 866 q 171 941 151 922 q 218 960 190 960 q 266 940 245 960 q 286 893 286 921 q 267 846 286 865 q 220 826 247 826 z "},"Ǟ":{"ha":896,"x_min":15,"x_max":880,"o":"m 880 0 l 754 0 l 651 273 l 239 273 l 142 0 l 15 0 l 388 972 l 506 972 l 880 0 m 614 375 l 461 789 q 446 854 454 810 l 444 854 q 428 789 437 813 l 277 375 l 614 375 m 570 1061 q 523 1080 543 1061 q 503 1128 503 1099 q 522 1176 503 1157 q 568 1195 541 1195 q 616 1176 597 1195 q 636 1128 636 1156 q 617 1081 636 1101 q 570 1061 598 1061 m 309 1061 q 261 1081 281 1061 q 241 1128 241 1101 q 260 1176 241 1157 q 307 1195 279 1195 q 355 1176 335 1195 q 376 1128 376 1156 q 356 1081 376 1101 q 309 1061 336 1061 m 614 1246 l 269 1246 l 269 1320 l 614 1320 l 614 1246 z "},"ǟ":{"ha":707,"x_min":61,"x_max":610,"o":"m 610 0 l 498 0 l 498 109 l 496 109 q 282 -16 423 -16 q 120 39 178 -16 q 61 184 61 94 q 290 411 61 379 l 498 440 q 355 617 498 617 q 129 532 230 617 l 129 646 q 365 711 231 711 q 610 452 610 711 l 610 0 m 498 351 l 331 328 q 214 290 254 317 q 175 193 175 262 q 211 110 175 142 q 308 77 248 77 q 445 135 391 77 q 498 282 498 193 l 498 351 m 475 826 q 428 845 448 826 q 408 893 408 864 q 427 941 408 922 q 473 960 446 960 q 522 940 502 960 q 541 893 541 921 q 522 846 541 865 q 475 826 503 826 m 214 826 q 166 846 186 826 q 146 893 146 866 q 165 941 146 922 q 212 960 184 960 q 260 940 240 960 q 281 893 281 921 q 261 846 281 865 q 214 826 241 826 m 519 1010 l 174 1010 l 174 1084 l 519 1084 l 519 1010 z "},"Ā":{"ha":896,"x_min":15,"x_max":880,"o":"m 880 0 l 754 0 l 651 273 l 239 273 l 142 0 l 15 0 l 388 972 l 506 972 l 880 0 m 614 375 l 461 789 q 446 854 454 810 l 444 854 q 428 789 437 813 l 277 375 l 614 375 m 618 1063 l 274 1063 l 274 1137 l 618 1137 l 618 1063 z "},"ā":{"ha":707,"x_min":61,"x_max":610,"o":"m 610 0 l 498 0 l 498 109 l 496 109 q 282 -16 423 -16 q 120 39 178 -16 q 61 184 61 94 q 290 411 61 379 l 498 440 q 355 617 498 617 q 129 532 230 617 l 129 646 q 365 711 231 711 q 610 452 610 711 l 610 0 m 498 351 l 331 328 q 214 290 254 317 q 175 193 175 262 q 211 110 175 142 q 308 77 248 77 q 445 135 391 77 q 498 282 498 193 l 498 351 m 543 826 l 198 826 l 198 900 l 543 900 l 543 826 z "},"Ă":{"ha":896,"x_min":15,"x_max":880,"o":"m 880 0 l 754 0 l 651 273 l 239 273 l 142 0 l 15 0 l 388 972 l 506 972 l 880 0 m 614 375 l 461 789 q 446 854 454 810 l 444 854 q 428 789 437 813 l 277 375 l 614 375 m 632 1234 q 572 1110 625 1157 q 443 1063 519 1063 q 313 1109 363 1063 q 260 1234 263 1156 l 328 1234 q 444 1128 336 1128 q 523 1157 490 1128 q 563 1234 556 1185 l 632 1234 z "},"ă":{"ha":707,"x_min":61,"x_max":610,"o":"m 610 0 l 498 0 l 498 109 l 496 109 q 282 -16 423 -16 q 120 39 178 -16 q 61 184 61 94 q 290 411 61 379 l 498 440 q 355 617 498 617 q 129 532 230 617 l 129 646 q 365 711 231 711 q 610 452 610 711 l 610 0 m 498 351 l 331 328 q 214 290 254 317 q 175 193 175 262 q 211 110 175 142 q 308 77 248 77 q 445 135 391 77 q 498 282 498 193 l 498 351 m 546 997 q 486 873 539 920 q 357 826 433 826 q 227 873 277 826 q 174 997 177 920 l 241 997 q 358 892 250 892 q 437 920 404 892 q 477 997 470 949 l 546 997 z "},"Å":{"ha":896,"x_min":15,"x_max":880,"o":"m 880 0 l 754 0 l 651 273 l 239 273 l 142 0 l 15 0 l 374 935 q 305 1046 305 970 q 346 1143 305 1106 q 449 1181 387 1181 q 547 1144 509 1181 q 585 1050 585 1107 q 519 937 585 974 l 880 0 m 445 1125 q 389 1104 411 1125 q 368 1050 368 1082 q 445 972 368 972 q 500 995 477 972 q 522 1050 522 1017 q 500 1104 522 1083 q 445 1125 477 1125 m 614 375 l 461 789 q 446 854 454 810 l 444 854 q 428 789 437 813 l 277 375 l 614 375 z "},"å":{"ha":707,"x_min":61,"x_max":610,"o":"m 610 0 l 498 0 l 498 109 l 496 109 q 282 -16 423 -16 q 120 39 178 -16 q 61 184 61 94 q 290 411 61 379 l 498 440 q 355 617 498 617 q 129 532 230 617 l 129 646 q 365 711 231 711 q 610 452 610 711 l 610 0 m 498 351 l 331 328 q 214 290 254 317 q 175 193 175 262 q 211 110 175 142 q 308 77 248 77 q 445 135 391 77 q 498 282 498 193 l 498 351 m 351 798 q 253 833 292 798 q 214 926 214 869 q 254 1024 214 987 q 355 1061 294 1061 q 454 1024 416 1061 q 493 930 493 987 q 452 836 493 873 q 351 798 410 798 m 351 1006 q 296 984 318 1006 q 275 929 275 962 q 351 853 275 853 q 407 875 385 853 q 429 929 429 897 q 407 984 429 962 q 351 1006 385 1006 z "},"Ǻ":{"ha":896,"x_min":15,"x_max":880,"o":"m 880 0 l 754 0 l 651 273 l 239 273 l 142 0 l 15 0 l 374 935 q 305 1046 305 970 q 346 1143 305 1106 q 449 1181 387 1181 q 547 1144 509 1181 q 585 1050 585 1107 q 519 937 585 974 l 880 0 m 445 1125 q 389 1104 411 1125 q 368 1050 368 1082 q 445 972 368 972 q 500 995 477 972 q 522 1050 522 1017 q 500 1104 522 1083 q 445 1125 477 1125 m 614 375 l 461 789 q 446 854 454 810 l 444 854 q 428 789 437 813 l 277 375 l 614 375 m 627 1444 l 449 1222 l 363 1222 l 514 1444 l 627 1444 z "},"ǻ":{"ha":707,"x_min":61,"x_max":610,"o":"m 610 0 l 498 0 l 498 109 l 496 109 q 282 -16 423 -16 q 120 39 178 -16 q 61 184 61 94 q 290 411 61 379 l 498 440 q 355 617 498 617 q 129 532 230 617 l 129 646 q 365 711 231 711 q 610 452 610 711 l 610 0 m 498 351 l 331 328 q 214 290 254 317 q 175 193 175 262 q 211 110 175 142 q 308 77 248 77 q 445 135 391 77 q 498 282 498 193 l 498 351 m 351 760 q 253 796 292 760 q 214 889 214 831 q 254 987 214 950 q 355 1023 294 1023 q 454 987 416 1023 q 493 893 493 950 q 452 798 493 836 q 351 760 410 760 m 351 968 q 296 946 318 968 q 275 892 275 924 q 351 816 275 816 q 407 838 385 816 q 429 892 429 859 q 407 947 429 925 q 351 968 385 968 m 537 1284 l 359 1062 l 273 1062 l 425 1284 l 537 1284 z "},"Ȃ":{"ha":896,"x_min":15,"x_max":880,"o":"m 880 0 l 754 0 l 651 273 l 239 273 l 142 0 l 15 0 l 388 972 l 506 972 l 880 0 m 614 375 l 461 789 q 446 854 454 810 l 444 854 q 428 789 437 813 l 277 375 l 614 375 m 625 1063 l 555 1063 q 516 1140 549 1112 q 437 1168 484 1168 q 321 1063 329 1168 l 253 1063 q 306 1187 256 1140 q 436 1234 357 1234 q 565 1187 513 1234 q 625 1063 618 1140 z "},"ȃ":{"ha":707,"x_min":61,"x_max":610,"o":"m 610 0 l 498 0 l 498 109 l 496 109 q 282 -16 423 -16 q 120 39 178 -16 q 61 184 61 94 q 290 411 61 379 l 498 440 q 355 617 498 617 q 129 532 230 617 l 129 646 q 365 711 231 711 q 610 452 610 711 l 610 0 m 498 351 l 331 328 q 214 290 254 317 q 175 193 175 262 q 211 110 175 142 q 308 77 248 77 q 445 135 391 77 q 498 282 498 193 l 498 351 m 545 826 l 475 826 q 436 903 469 875 q 357 932 404 932 q 241 826 249 932 l 173 826 q 226 950 176 903 q 356 997 277 997 q 485 950 433 997 q 545 826 538 903 z "},"Ȧ":{"ha":896,"x_min":15,"x_max":880,"o":"m 880 0 l 754 0 l 651 273 l 239 273 l 142 0 l 15 0 l 388 972 l 506 972 l 880 0 m 614 375 l 461 789 q 446 854 454 810 l 444 854 q 428 789 437 813 l 277 375 l 614 375 m 449 1068 q 402 1087 422 1068 q 382 1135 382 1107 q 401 1181 382 1162 q 449 1200 421 1200 q 496 1182 477 1200 q 515 1135 515 1163 q 496 1088 515 1107 q 449 1068 477 1068 z "},"ȧ":{"ha":701,"x_min":56,"x_max":605,"o":"m 605 0 l 494 0 l 494 109 l 491 109 q 277 -16 418 -16 q 115 39 174 -16 q 56 184 56 94 q 286 411 56 379 l 494 440 q 351 617 494 617 q 124 532 225 617 l 124 646 q 360 711 227 711 q 605 452 605 711 l 605 0 m 494 351 l 326 328 q 210 290 249 317 q 170 193 170 262 q 207 110 170 142 q 303 77 243 77 q 440 135 386 77 q 494 282 494 193 l 494 351 m 352 826 q 305 845 325 826 q 285 893 285 865 q 304 939 285 920 q 352 958 324 958 q 399 940 380 958 q 418 893 418 921 q 399 846 418 865 q 352 826 380 826 z "},"Ǡ":{"ha":896,"x_min":15,"x_max":880,"o":"m 880 0 l 754 0 l 651 273 l 239 273 l 142 0 l 15 0 l 388 972 l 506 972 l 880 0 m 614 375 l 461 789 q 446 854 454 810 l 444 854 q 428 789 437 813 l 277 375 l 614 375 m 449 1068 q 402 1087 422 1068 q 382 1135 382 1107 q 401 1181 382 1162 q 449 1200 421 1200 q 496 1182 477 1200 q 515 1135 515 1163 q 496 1088 515 1107 q 449 1068 477 1068 m 621 1246 l 276 1246 l 276 1320 l 621 1320 l 621 1246 z "},"ǡ":{"ha":707,"x_min":61,"x_max":610,"o":"m 610 0 l 498 0 l 498 109 l 496 109 q 282 -16 423 -16 q 120 39 178 -16 q 61 184 61 94 q 290 411 61 379 l 498 440 q 355 617 498 617 q 129 532 230 617 l 129 646 q 365 711 231 711 q 610 452 610 711 l 610 0 m 498 351 l 331 328 q 214 290 254 317 q 175 193 175 262 q 211 110 175 142 q 308 77 248 77 q 445 135 391 77 q 498 282 498 193 l 498 351 m 352 826 q 305 845 325 826 q 285 893 285 865 q 304 939 285 920 q 352 958 324 958 q 399 940 380 958 q 418 893 418 921 q 399 846 418 865 q 352 826 380 826 m 526 1010 l 181 1010 l 181 1084 l 526 1084 l 526 1010 z "},"Ȁ":{"ha":896,"x_min":15,"x_max":880,"o":"m 880 0 l 754 0 l 651 273 l 239 273 l 142 0 l 15 0 l 388 972 l 506 972 l 880 0 m 614 375 l 461 789 q 446 854 454 810 l 444 854 q 428 789 437 813 l 277 375 l 614 375 m 566 1063 l 500 1063 l 338 1279 l 425 1279 l 566 1063 m 401 1063 l 336 1063 l 170 1279 l 260 1279 l 401 1063 z "},"ȁ":{"ha":701,"x_min":56,"x_max":605,"o":"m 605 0 l 494 0 l 494 109 l 491 109 q 277 -16 418 -16 q 115 39 174 -16 q 56 184 56 94 q 286 411 56 379 l 494 440 q 351 617 494 617 q 124 532 225 617 l 124 646 q 360 711 227 711 q 605 452 605 711 l 605 0 m 494 351 l 326 328 q 210 290 249 317 q 170 193 170 262 q 207 110 170 142 q 303 77 243 77 q 440 135 386 77 q 494 282 494 193 l 494 351 m 481 826 l 416 826 l 254 1042 l 341 1042 l 481 826 m 317 826 l 252 826 l 85 1042 l 176 1042 l 317 826 z "},"Ḁ":{"ha":896,"x_min":15,"x_max":880,"o":"m 880 0 l 754 0 l 651 273 l 239 273 l 142 0 l 15 0 l 388 972 l 506 972 l 880 0 m 614 375 l 461 789 q 446 854 454 810 l 444 854 q 428 789 437 813 l 277 375 l 614 375 m 446 -344 q 348 -308 387 -344 q 309 -215 309 -273 q 349 -117 309 -154 q 450 -81 389 -81 q 549 -117 511 -81 q 588 -211 588 -154 q 547 -306 588 -268 q 446 -344 505 -344 m 446 -136 q 391 -158 413 -136 q 370 -212 370 -180 q 446 -288 370 -288 q 502 -267 479 -288 q 524 -212 524 -245 q 502 -157 524 -179 q 446 -136 479 -136 z "},"ḁ":{"ha":707,"x_min":61,"x_max":610,"o":"m 610 0 l 498 0 l 498 109 l 496 109 q 282 -16 423 -16 q 120 39 178 -16 q 61 184 61 94 q 290 411 61 379 l 498 440 q 355 617 498 617 q 129 532 230 617 l 129 646 q 365 711 231 711 q 610 452 610 711 l 610 0 m 498 351 l 331 328 q 214 290 254 317 q 175 193 175 262 q 211 110 175 142 q 308 77 248 77 q 445 135 391 77 q 498 282 498 193 l 498 351 m 351 -343 q 253 -308 292 -343 q 214 -214 214 -272 q 254 -117 214 -153 q 355 -80 294 -80 q 454 -117 416 -80 q 493 -210 493 -153 q 452 -305 493 -267 q 351 -343 410 -343 m 351 -135 q 296 -157 318 -135 q 275 -212 275 -179 q 351 -288 275 -288 q 407 -266 385 -288 q 429 -212 429 -244 q 407 -157 429 -178 q 351 -135 385 -135 z "},"Ạ":{"ha":896,"x_min":15,"x_max":880,"o":"m 880 0 l 754 0 l 651 273 l 239 273 l 142 0 l 15 0 l 388 972 l 506 972 l 880 0 m 614 375 l 461 789 q 446 854 454 810 l 444 854 q 428 789 437 813 l 277 375 l 614 375 m 463 -213 q 416 -193 435 -213 q 396 -146 396 -174 q 416 -99 396 -118 q 463 -81 437 -81 q 511 -99 491 -81 q 530 -146 530 -118 q 511 -193 530 -174 q 463 -213 491 -213 z "},"ạ":{"ha":707,"x_min":61,"x_max":610,"o":"m 610 0 l 498 0 l 498 109 l 496 109 q 282 -16 423 -16 q 120 39 178 -16 q 61 184 61 94 q 290 411 61 379 l 498 440 q 355 617 498 617 q 129 532 230 617 l 129 646 q 365 711 231 711 q 610 452 610 711 l 610 0 m 498 351 l 331 328 q 214 290 254 317 q 175 193 175 262 q 211 110 175 142 q 308 77 248 77 q 445 135 391 77 q 498 282 498 193 l 498 351 m 363 -213 q 315 -193 335 -213 q 296 -146 296 -174 q 316 -99 296 -118 q 363 -81 336 -81 q 410 -99 391 -81 q 430 -146 430 -118 q 410 -193 430 -174 q 363 -213 391 -213 z "},"Ą":{"ha":896,"x_min":15,"x_max":880,"o":"m 880 0 l 754 0 l 651 273 l 239 273 l 142 0 l 15 0 l 388 972 l 506 972 l 880 0 m 614 375 l 461 789 q 446 854 454 810 l 444 854 q 428 789 437 813 l 277 375 l 614 375 m 832 0 q 730 -151 730 -96 q 777 -199 730 -199 q 814 -190 797 -199 l 814 -262 q 759 -271 794 -271 q 676 -244 707 -271 q 645 -170 645 -217 q 751 0 645 -87 l 832 0 z "},"ą":{"ha":707,"x_min":61,"x_max":610,"o":"m 610 0 l 498 0 l 498 109 l 496 109 q 282 -16 423 -16 q 120 39 178 -16 q 61 184 61 94 q 290 411 61 379 l 498 440 q 355 617 498 617 q 129 532 230 617 l 129 646 q 365 711 231 711 q 610 452 610 711 l 610 0 m 498 351 l 331 328 q 214 290 254 317 q 175 193 175 262 q 211 110 175 142 q 308 77 248 77 q 445 135 391 77 q 498 282 498 193 l 498 351 m 576 0 q 475 -151 475 -96 q 521 -199 475 -199 q 559 -190 541 -199 l 559 -262 q 503 -271 538 -271 q 420 -244 452 -271 q 389 -170 389 -217 q 496 0 389 -87 l 576 0 z "},"Ɑ":{"ha":1042,"x_min":64,"x_max":914,"o":"m 492 -16 q 310 20 389 -16 q 175 120 230 56 q 92 275 121 185 q 64 475 64 366 q 92 686 64 591 q 177 848 121 781 q 316 952 233 916 q 509 989 399 989 q 604 977 560 989 q 684 945 648 966 q 749 895 720 924 q 800 829 778 865 l 800 972 l 914 972 l 914 0 l 800 0 l 800 150 q 747 81 777 112 q 678 29 716 51 q 594 -4 640 7 q 492 -16 547 -16 m 500 886 q 365 857 424 886 q 266 774 306 827 q 204 648 225 722 q 183 485 183 574 q 203 322 183 395 q 263 196 224 248 q 359 115 302 144 q 492 86 417 86 q 622 109 564 86 q 719 177 679 132 q 779 285 758 221 q 800 431 800 349 l 800 541 q 780 688 800 623 q 721 796 760 752 q 627 863 682 840 q 500 886 571 886 z "},"ɑ":{"ha":818,"x_min":65,"x_max":705,"o":"m 705 0 l 594 0 l 594 118 l 591 118 q 353 -16 514 -16 q 143 77 222 -16 q 65 331 65 170 q 152 607 65 503 q 383 711 239 711 q 591 598 526 711 l 594 598 l 594 694 l 705 694 l 705 0 m 594 314 l 594 416 q 538 559 594 500 q 397 617 483 617 q 237 543 296 617 q 179 336 179 468 q 235 147 179 216 q 385 77 291 77 q 536 144 478 77 q 594 314 594 212 z "},"Ʌ":{"ha":873,"x_min":16,"x_max":857,"o":"m 857 0 l 730 0 l 456 780 q 437 860 445 812 l 434 860 q 414 779 427 818 l 138 0 l 16 0 l 373 972 l 502 972 l 857 0 z "},"ʌ":{"ha":665,"x_min":8,"x_max":656,"o":"m 656 0 l 534 0 l 358 505 q 335 602 339 559 l 332 602 q 308 507 326 556 l 125 0 l 8 0 l 283 694 l 395 694 l 656 0 z "},"Ɐ":{"ha":896,"x_min":15,"x_max":880,"o":"m 506 0 l 388 0 l 15 972 l 142 972 l 239 700 l 651 700 l 754 972 l 880 972 l 506 0 m 277 597 l 428 183 q 436 155 433 172 q 444 118 440 139 l 446 118 q 454 157 450 140 q 461 183 458 173 l 614 597 l 277 597 z "},"ɐ":{"ha":701,"x_min":98,"x_max":646,"o":"m 207 254 q 351 77 207 77 q 578 163 477 77 l 578 49 q 472 3 541 22 q 342 -16 403 -16 q 98 243 98 -16 l 98 694 l 208 694 l 208 586 l 212 586 q 425 711 283 711 q 587 656 528 711 q 646 510 646 601 q 416 283 646 315 l 207 254 m 207 343 l 376 366 q 491 404 451 376 q 532 502 532 431 q 496 585 532 553 q 399 617 460 617 q 261 558 315 617 q 207 412 207 500 l 207 343 z "},"Æ":{"ha":1195,"x_min":7,"x_max":1131,"o":"m 1131 0 l 616 0 l 616 273 l 270 273 l 139 0 l 7 0 l 481 972 l 1108 972 l 1108 869 l 729 869 l 729 546 l 1081 546 l 1081 444 l 729 444 l 729 103 l 1131 103 l 1131 0 m 616 375 l 616 869 l 551 869 l 317 375 l 616 375 z "},"æ":{"ha":1156,"x_min":61,"x_max":1100,"o":"m 1100 319 l 608 319 q 670 140 610 203 q 833 77 730 77 q 1051 155 954 77 l 1051 50 q 808 -16 962 -16 q 549 139 625 -16 l 546 139 q 283 -16 448 -16 q 120 38 180 -16 q 61 184 61 93 q 321 404 61 388 l 498 415 q 353 617 498 617 q 129 534 234 617 l 129 646 q 365 711 229 711 q 568 575 522 711 l 571 575 q 812 711 650 711 q 1025 622 949 711 q 1100 376 1100 534 l 1100 319 m 986 414 q 940 564 985 511 q 814 617 895 617 q 679 562 735 617 q 610 414 623 506 l 986 414 m 498 278 l 498 321 l 361 313 q 220 279 267 307 q 174 187 174 252 q 210 107 174 138 q 307 77 245 77 q 443 135 387 77 q 498 278 498 192 z "},"Ǽ":{"ha":1195,"x_min":7,"x_max":1131,"o":"m 1131 0 l 616 0 l 616 273 l 270 273 l 139 0 l 7 0 l 481 972 l 1108 972 l 1108 869 l 729 869 l 729 546 l 1081 546 l 1081 444 l 729 444 l 729 103 l 1131 103 l 1131 0 m 616 375 l 616 869 l 551 869 l 317 375 l 616 375 m 909 1284 l 731 1062 l 645 1062 l 796 1284 l 909 1284 z "},"ǽ":{"ha":1156,"x_min":61,"x_max":1100,"o":"m 1100 319 l 608 319 q 670 140 610 203 q 833 77 730 77 q 1051 155 954 77 l 1051 50 q 808 -16 962 -16 q 549 139 625 -16 l 546 139 q 283 -16 448 -16 q 120 38 180 -16 q 61 184 61 93 q 321 404 61 388 l 498 415 q 353 617 498 617 q 129 534 234 617 l 129 646 q 365 711 229 711 q 568 575 522 711 l 571 575 q 812 711 650 711 q 1025 622 949 711 q 1100 376 1100 534 l 1100 319 m 986 414 q 940 564 985 511 q 814 617 895 617 q 679 562 735 617 q 610 414 623 506 l 986 414 m 498 278 l 498 321 l 361 313 q 220 279 267 307 q 174 187 174 252 q 210 107 174 138 q 307 77 245 77 q 443 135 387 77 q 498 278 498 192 m 760 1048 l 583 826 l 496 826 l 648 1048 l 760 1048 z "},"Ǣ":{"ha":1195,"x_min":7,"x_max":1131,"o":"m 1131 0 l 616 0 l 616 273 l 270 273 l 139 0 l 7 0 l 481 972 l 1108 972 l 1108 869 l 729 869 l 729 546 l 1081 546 l 1081 444 l 729 444 l 729 103 l 1131 103 l 1131 0 m 616 375 l 616 869 l 551 869 l 317 375 l 616 375 m 968 1063 l 624 1063 l 624 1137 l 968 1137 l 968 1063 z "},"ǣ":{"ha":1150,"x_min":56,"x_max":1095,"o":"m 1095 319 l 604 319 q 665 140 606 203 q 829 77 725 77 q 1046 155 949 77 l 1046 50 q 804 -16 957 -16 q 544 139 621 -16 l 541 139 q 279 -16 443 -16 q 116 38 175 -16 q 56 184 56 93 q 316 404 56 388 l 494 415 q 348 617 494 617 q 124 534 229 617 l 124 646 q 360 711 224 711 q 564 575 517 711 l 566 575 q 808 711 645 711 q 1020 622 945 711 q 1095 376 1095 534 l 1095 319 m 981 414 q 935 564 980 511 q 809 617 890 617 q 674 562 730 617 q 605 414 618 506 l 981 414 m 494 278 l 494 321 l 356 313 q 215 279 262 307 q 169 187 169 252 q 205 107 169 138 q 302 77 241 77 q 438 135 382 77 q 494 278 494 192 m 751 826 l 407 826 l 407 900 l 751 900 l 751 826 z "},"B":{"ha":796,"x_min":127,"x_max":726,"o":"m 127 0 l 127 972 l 404 972 q 604 911 530 972 q 678 750 678 849 q 633 606 678 667 q 510 519 589 545 l 510 517 q 667 443 608 505 q 726 279 726 380 q 637 77 726 155 q 411 0 547 0 l 127 0 m 241 869 l 241 555 l 358 555 q 505 601 452 555 q 559 728 559 646 q 372 869 559 869 l 241 869 m 241 453 l 241 103 l 396 103 q 552 151 496 103 q 607 281 607 198 q 372 453 607 453 l 241 453 z "},"b":{"ha":817,"x_min":113,"x_max":751,"o":"m 227 100 l 224 100 l 224 0 l 113 0 l 113 1028 l 224 1028 l 224 572 l 227 572 q 467 711 309 711 q 676 617 600 711 q 751 368 751 524 q 667 89 751 193 q 435 -16 582 -16 q 227 100 297 -16 m 224 380 l 224 283 q 280 137 224 197 q 422 77 336 77 q 580 155 523 77 q 637 370 637 232 q 584 551 637 486 q 439 617 530 617 q 283 550 342 617 q 224 380 224 482 z "},"Ḃ":{"ha":796,"x_min":127,"x_max":726,"o":"m 127 0 l 127 972 l 404 972 q 604 911 530 972 q 678 750 678 849 q 633 606 678 667 q 510 519 589 545 l 510 517 q 667 443 608 505 q 726 279 726 380 q 637 77 726 155 q 411 0 547 0 l 127 0 m 241 869 l 241 555 l 358 555 q 505 601 452 555 q 559 728 559 646 q 372 869 559 869 l 241 869 m 241 453 l 241 103 l 396 103 q 552 151 496 103 q 607 281 607 198 q 372 453 607 453 l 241 453 m 362 1063 q 315 1082 335 1063 q 295 1130 295 1101 q 315 1176 295 1157 q 362 1195 334 1195 q 409 1176 390 1195 q 429 1130 429 1158 q 409 1082 429 1102 q 362 1063 390 1063 z "},"ḃ":{"ha":817,"x_min":113,"x_max":751,"o":"m 227 100 l 224 100 l 224 0 l 113 0 l 113 1028 l 224 1028 l 224 572 l 227 572 q 467 711 309 711 q 676 617 600 711 q 751 368 751 524 q 667 89 751 193 q 435 -16 582 -16 q 227 100 297 -16 m 224 380 l 224 283 q 280 137 224 197 q 422 77 336 77 q 580 155 523 77 q 637 370 637 232 q 584 551 637 486 q 439 617 530 617 q 283 550 342 617 q 224 380 224 482 m 408 826 q 361 845 381 826 q 341 893 341 865 q 361 939 341 920 q 408 958 380 958 q 455 940 436 958 q 475 893 475 921 q 455 846 475 865 q 408 826 436 826 z "},"Ḇ":{"ha":796,"x_min":127,"x_max":726,"o":"m 127 0 l 127 972 l 404 972 q 604 911 530 972 q 678 750 678 849 q 633 606 678 667 q 510 519 589 545 l 510 517 q 667 443 608 505 q 726 279 726 380 q 637 77 726 155 q 411 0 547 0 l 127 0 m 241 869 l 241 555 l 358 555 q 505 601 452 555 q 559 728 559 646 q 372 869 559 869 l 241 869 m 241 453 l 241 103 l 396 103 q 552 151 496 103 q 607 281 607 198 q 372 453 607 453 l 241 453 m 581 -152 l 237 -152 l 237 -78 l 581 -78 l 581 -152 z "},"ḇ":{"ha":817,"x_min":113,"x_max":751,"o":"m 227 100 l 224 100 l 224 0 l 113 0 l 113 1028 l 224 1028 l 224 572 l 227 572 q 467 711 309 711 q 676 617 600 711 q 751 368 751 524 q 667 89 751 193 q 435 -16 582 -16 q 227 100 297 -16 m 224 380 l 224 283 q 280 137 224 197 q 422 77 336 77 q 580 155 523 77 q 637 370 637 232 q 584 551 637 486 q 439 617 530 617 q 283 550 342 617 q 224 380 224 482 m 602 -152 l 257 -152 l 257 -78 l 602 -78 l 602 -152 z "},"Ḅ":{"ha":796,"x_min":127,"x_max":726,"o":"m 127 0 l 127 972 l 404 972 q 604 911 530 972 q 678 750 678 849 q 633 606 678 667 q 510 519 589 545 l 510 517 q 667 443 608 505 q 726 279 726 380 q 637 77 726 155 q 411 0 547 0 l 127 0 m 241 869 l 241 555 l 358 555 q 505 601 452 555 q 559 728 559 646 q 372 869 559 869 l 241 869 m 241 453 l 241 103 l 396 103 q 552 151 496 103 q 607 281 607 198 q 372 453 607 453 l 241 453 m 384 -213 q 336 -193 356 -213 q 317 -146 317 -174 q 337 -99 317 -118 q 384 -81 357 -81 q 431 -99 412 -81 q 451 -146 451 -118 q 431 -193 451 -174 q 384 -213 412 -213 z "},"ḅ":{"ha":817,"x_min":113,"x_max":751,"o":"m 227 100 l 224 100 l 224 0 l 113 0 l 113 1028 l 224 1028 l 224 572 l 227 572 q 467 711 309 711 q 676 617 600 711 q 751 368 751 524 q 667 89 751 193 q 435 -16 582 -16 q 227 100 297 -16 m 224 380 l 224 283 q 280 137 224 197 q 422 77 336 77 q 580 155 523 77 q 637 370 637 232 q 584 551 637 486 q 439 617 530 617 q 283 550 342 617 q 224 380 224 482 m 422 -213 q 375 -193 395 -213 q 355 -146 355 -174 q 376 -99 355 -118 q 422 -81 396 -81 q 470 -99 450 -81 q 490 -146 490 -118 q 470 -193 490 -174 q 422 -213 450 -213 z "},"Ɓ":{"ha":852,"x_min":-57,"x_max":782,"o":"m 183 0 l 183 869 l 167 869 q 82 838 112 869 q 52 754 52 806 q 65 682 52 717 l -42 682 q -57 765 -57 720 q 9 913 -57 854 q 184 972 75 972 l 460 972 q 660 911 586 972 q 734 750 734 849 q 689 606 734 667 q 566 519 644 545 l 566 517 q 723 443 664 505 q 782 279 782 380 q 692 77 782 155 q 467 0 603 0 l 183 0 m 297 869 l 297 555 l 414 555 q 561 601 507 555 q 614 728 614 646 q 428 869 614 869 l 297 869 m 297 453 l 297 103 l 452 103 q 607 151 552 103 q 663 281 663 198 q 428 453 663 453 l 297 453 z "},"ɓ":{"ha":818,"x_min":113,"x_max":753,"o":"m 228 100 l 225 100 l 225 0 l 113 0 l 113 671 q 198 950 113 858 q 433 1043 284 1043 q 612 1006 527 1043 l 612 903 q 431 949 523 949 q 282 893 339 949 q 225 672 225 837 l 225 572 l 228 572 q 468 711 310 711 q 677 617 602 711 q 753 368 753 524 q 668 89 753 193 q 436 -16 583 -16 q 228 100 299 -16 m 225 380 l 225 283 q 281 137 225 197 q 423 77 337 77 q 582 155 524 77 q 640 370 640 233 q 586 551 640 485 q 440 617 532 617 q 284 550 343 617 q 225 380 225 482 z "},"C":{"ha":860,"x_min":64,"x_max":789,"o":"m 789 41 q 521 -16 682 -16 q 189 117 313 -16 q 64 468 64 251 q 204 845 64 701 q 560 989 345 989 q 789 949 699 989 l 789 827 q 559 886 685 886 q 287 774 391 886 q 183 475 183 662 q 280 192 183 297 q 536 86 378 86 q 789 151 682 86 l 789 41 z "},"c":{"ha":642,"x_min":65,"x_max":587,"o":"m 586 32 q 396 -16 506 -16 q 156 80 248 -16 q 65 331 65 177 q 163 607 65 503 q 426 711 262 711 q 587 677 517 711 l 587 563 q 422 617 510 617 q 247 541 315 617 q 179 340 179 465 q 243 148 179 218 q 415 77 307 77 q 586 138 506 77 l 586 32 z "},"Ć":{"ha":860,"x_min":64,"x_max":789,"o":"m 789 41 q 521 -16 682 -16 q 189 117 313 -16 q 64 468 64 251 q 204 845 64 701 q 560 989 345 989 q 789 949 699 989 l 789 827 q 559 886 685 886 q 287 774 391 886 q 183 475 183 662 q 280 192 183 297 q 536 86 378 86 q 789 151 682 86 l 789 41 m 673 1284 l 496 1062 l 410 1062 l 561 1284 l 673 1284 z "},"ć":{"ha":642,"x_min":65,"x_max":587,"o":"m 586 32 q 396 -16 506 -16 q 156 80 248 -16 q 65 331 65 177 q 163 607 65 503 q 426 711 262 711 q 587 677 517 711 l 587 563 q 422 617 510 617 q 247 541 315 617 q 179 340 179 465 q 243 148 179 218 q 415 77 307 77 q 586 138 506 77 l 586 32 m 553 1048 l 375 826 l 289 826 l 440 1048 l 553 1048 z "},"Ĉ":{"ha":860,"x_min":64,"x_max":789,"o":"m 789 41 q 521 -16 682 -16 q 189 117 313 -16 q 64 468 64 251 q 204 845 64 701 q 560 989 345 989 q 789 949 699 989 l 789 827 q 559 886 685 886 q 287 774 391 886 q 183 475 183 662 q 280 192 183 297 q 536 86 378 86 q 789 151 682 86 l 789 41 m 710 1063 l 627 1063 l 516 1219 l 404 1063 l 328 1063 l 473 1289 l 564 1289 l 710 1063 z "},"ĉ":{"ha":642,"x_min":65,"x_max":587,"o":"m 586 32 q 396 -16 506 -16 q 156 80 248 -16 q 65 331 65 177 q 163 607 65 503 q 426 711 262 711 q 587 677 517 711 l 587 563 q 422 617 510 617 q 247 541 315 617 q 179 340 179 465 q 243 148 179 218 q 415 77 307 77 q 586 138 506 77 l 586 32 m 570 826 l 487 826 l 376 982 l 264 826 l 187 826 l 333 1051 l 423 1051 l 570 826 z "},"Č":{"ha":860,"x_min":64,"x_max":789,"o":"m 789 41 q 521 -16 682 -16 q 189 117 313 -16 q 64 468 64 251 q 204 845 64 701 q 560 989 345 989 q 789 949 699 989 l 789 827 q 559 886 685 886 q 287 774 391 886 q 183 475 183 662 q 280 192 183 297 q 536 86 378 86 q 789 151 682 86 l 789 41 m 715 1286 l 570 1062 l 480 1062 l 334 1286 l 412 1286 l 523 1131 l 634 1286 l 715 1286 z "},"č":{"ha":642,"x_min":65,"x_max":587,"o":"m 586 32 q 396 -16 506 -16 q 156 80 248 -16 q 65 331 65 177 q 163 607 65 503 q 426 711 262 711 q 587 677 517 711 l 587 563 q 422 617 510 617 q 247 541 315 617 q 179 340 179 465 q 243 148 179 218 q 415 77 307 77 q 586 138 506 77 l 586 32 m 582 1050 l 437 826 l 347 826 l 201 1050 l 279 1050 l 390 895 l 501 1050 l 582 1050 z "},"Ċ":{"ha":860,"x_min":64,"x_max":789,"o":"m 789 41 q 521 -16 682 -16 q 189 117 313 -16 q 64 468 64 251 q 204 845 64 701 q 560 989 345 989 q 789 949 699 989 l 789 827 q 559 886 685 886 q 287 774 391 886 q 183 475 183 662 q 280 192 183 297 q 536 86 378 86 q 789 151 682 86 l 789 41 m 521 1063 q 474 1082 494 1063 q 454 1130 454 1101 q 473 1176 454 1157 q 521 1195 493 1195 q 568 1176 549 1195 q 587 1130 587 1158 q 568 1082 587 1102 q 521 1063 549 1063 z "},"ċ":{"ha":642,"x_min":65,"x_max":587,"o":"m 586 32 q 396 -16 506 -16 q 156 80 248 -16 q 65 331 65 177 q 163 607 65 503 q 426 711 262 711 q 587 677 517 711 l 587 563 q 422 617 510 617 q 247 541 315 617 q 179 340 179 465 q 243 148 179 218 q 415 77 307 77 q 586 138 506 77 l 586 32 m 404 826 q 356 845 376 826 q 336 893 336 865 q 356 939 336 920 q 404 958 376 958 q 451 940 431 958 q 470 893 470 921 q 451 846 470 865 q 404 826 431 826 z "},"Ç":{"ha":860,"x_min":64,"x_max":789,"o":"m 789 41 q 521 -16 682 -16 q 189 117 313 -16 q 64 468 64 251 q 204 845 64 701 q 560 989 345 989 q 789 949 699 989 l 789 827 q 559 886 685 886 q 287 774 391 886 q 183 475 183 662 q 280 192 183 297 q 536 86 378 86 q 789 151 682 86 l 789 41 m 651 -174 q 465 -293 651 -293 q 420 -292 439 -293 l 420 -231 q 468 -235 450 -235 q 564 -174 564 -235 q 476 -121 564 -121 q 448 -123 469 -121 l 448 0 l 522 0 l 522 -71 q 616 -98 581 -71 q 651 -174 651 -125 z "},"ç":{"ha":642,"x_min":65,"x_max":587,"o":"m 586 32 q 396 -16 506 -16 q 156 80 248 -16 q 65 331 65 177 q 163 607 65 503 q 426 711 262 711 q 587 677 517 711 l 587 563 q 422 617 510 617 q 247 541 315 617 q 179 340 179 465 q 243 148 179 218 q 415 77 307 77 q 586 138 506 77 l 586 32 m 528 -174 q 341 -293 528 -293 q 297 -292 315 -293 l 297 -231 q 345 -235 326 -235 q 440 -174 440 -235 q 353 -121 440 -121 q 325 -123 346 -121 l 325 0 l 398 0 l 398 -71 q 493 -98 458 -71 q 528 -174 528 -125 z "},"Ḉ":{"ha":860,"x_min":64,"x_max":789,"o":"m 789 41 q 521 -16 682 -16 q 189 117 313 -16 q 64 468 64 251 q 204 845 64 701 q 560 989 345 989 q 789 949 699 989 l 789 827 q 559 886 685 886 q 287 774 391 886 q 183 475 183 662 q 280 192 183 297 q 536 86 378 86 q 789 151 682 86 l 789 41 m 651 -174 q 465 -293 651 -293 q 420 -292 439 -293 l 420 -231 q 468 -235 450 -235 q 564 -174 564 -235 q 476 -121 564 -121 q 448 -123 469 -121 l 448 0 l 522 0 l 522 -71 q 616 -98 581 -71 q 651 -174 651 -125 m 695 1285 l 517 1063 l 431 1063 l 583 1285 l 695 1285 z "},"ḉ":{"ha":642,"x_min":65,"x_max":587,"o":"m 586 32 q 396 -16 506 -16 q 156 80 248 -16 q 65 331 65 177 q 163 607 65 503 q 426 711 262 711 q 587 677 517 711 l 587 563 q 422 617 510 617 q 247 541 315 617 q 179 340 179 465 q 243 148 179 218 q 415 77 307 77 q 586 138 506 77 l 586 32 m 528 -174 q 341 -293 528 -293 q 297 -292 315 -293 l 297 -231 q 345 -235 326 -235 q 440 -174 440 -235 q 353 -121 440 -121 q 325 -123 346 -121 l 325 0 l 398 0 l 398 -71 q 493 -98 458 -71 q 528 -174 528 -125 m 561 1048 l 383 826 l 297 826 l 448 1048 l 561 1048 z "},"Ƈ":{"ha":861,"x_min":64,"x_max":913,"o":"m 913 1023 q 860 1036 884 1036 q 783 929 783 1036 q 793 829 783 888 l 787 825 q 551 886 675 886 q 286 773 388 886 q 183 475 183 661 q 280 192 183 297 q 536 86 378 86 q 789 151 682 86 l 789 41 q 521 -16 682 -16 q 189 117 313 -16 q 64 468 64 251 q 203 845 64 701 q 559 989 343 989 q 685 972 621 989 q 732 1084 687 1037 q 848 1131 777 1131 q 913 1118 880 1131 l 913 1023 z "},"ƈ":{"ha":647,"x_min":65,"x_max":704,"o":"m 704 739 q 659 751 680 751 q 590 655 590 751 q 595 567 590 598 l 591 564 q 407 617 492 617 q 242 542 306 617 q 179 340 179 466 q 243 148 179 218 q 415 77 307 77 q 586 138 506 77 l 586 32 q 396 -16 506 -16 q 156 81 246 -16 q 65 334 65 178 q 161 603 65 496 q 408 711 256 711 q 503 697 459 711 q 545 798 505 756 q 646 839 585 839 q 704 826 673 839 l 704 739 z "},"D":{"ha":974,"x_min":127,"x_max":910,"o":"m 127 0 l 127 972 l 396 972 q 910 498 910 972 q 767 137 910 273 q 385 0 625 0 l 127 0 m 241 869 l 241 103 l 387 103 q 684 205 578 103 q 791 496 791 308 q 393 869 791 869 l 241 869 z "},"d":{"ha":818,"x_min":65,"x_max":705,"o":"m 705 0 l 594 0 l 594 118 l 591 118 q 353 -16 514 -16 q 143 77 222 -16 q 65 331 65 170 q 152 607 65 503 q 383 711 239 711 q 591 598 526 711 l 594 598 l 594 1028 l 705 1028 l 705 0 m 594 314 l 594 416 q 538 559 594 500 q 397 617 483 617 q 237 543 296 617 q 179 336 179 468 q 235 147 179 216 q 385 77 291 77 q 536 144 478 77 q 594 314 594 212 z "},"Ď":{"ha":974,"x_min":127,"x_max":910,"o":"m 127 0 l 127 972 l 396 972 q 910 498 910 972 q 767 137 910 273 q 385 0 625 0 l 127 0 m 241 869 l 241 103 l 387 103 q 684 205 578 103 q 791 496 791 308 q 393 869 791 869 l 241 869 m 652 1286 l 507 1062 l 418 1062 l 271 1286 l 349 1286 l 460 1131 l 572 1286 l 652 1286 z "},"ď":{"ha":937,"x_min":65,"x_max":989,"o":"m 705 0 l 594 0 l 594 118 l 591 118 q 353 -16 514 -16 q 143 77 222 -16 q 65 331 65 170 q 152 607 65 503 q 383 711 239 711 q 591 598 526 711 l 594 598 l 594 1028 l 705 1028 l 705 0 m 594 314 l 594 416 q 538 559 594 500 q 397 617 483 617 q 237 543 296 617 q 179 336 179 468 q 235 147 179 216 q 385 77 291 77 q 536 144 478 77 q 594 314 594 212 m 989 1028 l 877 852 l 793 852 l 873 1028 l 989 1028 z "},"Ḋ":{"ha":974,"x_min":127,"x_max":910,"o":"m 127 0 l 127 972 l 396 972 q 910 498 910 972 q 767 137 910 273 q 385 0 625 0 l 127 0 m 241 869 l 241 103 l 387 103 q 684 205 578 103 q 791 496 791 308 q 393 869 791 869 l 241 869 m 456 1063 q 409 1082 429 1063 q 389 1130 389 1101 q 409 1176 389 1157 q 456 1195 429 1195 q 504 1176 484 1195 q 523 1130 523 1158 q 504 1082 523 1102 q 456 1063 484 1063 z "},"ḋ":{"ha":818,"x_min":65,"x_max":705,"o":"m 705 0 l 594 0 l 594 118 l 591 118 q 353 -16 514 -16 q 143 77 222 -16 q 65 331 65 170 q 152 607 65 503 q 383 711 239 711 q 591 598 526 711 l 594 598 l 594 1028 l 705 1028 l 705 0 m 594 314 l 594 416 q 538 559 594 500 q 397 617 483 617 q 237 543 296 617 q 179 336 179 468 q 235 147 179 216 q 385 77 291 77 q 536 144 478 77 q 594 314 594 212 m 382 826 q 335 845 355 826 q 315 893 315 865 q 334 939 315 920 q 382 958 354 958 q 429 940 410 958 q 448 893 448 921 q 429 846 448 865 q 382 826 410 826 z "},"Ḓ":{"ha":974,"x_min":127,"x_max":910,"o":"m 127 0 l 127 972 l 396 972 q 910 498 910 972 q 767 137 910 273 q 385 0 625 0 l 127 0 m 241 869 l 241 103 l 387 103 q 684 205 578 103 q 791 496 791 308 q 393 869 791 869 l 241 869 m 661 -305 l 578 -305 l 467 -149 l 355 -305 l 279 -305 l 425 -80 l 515 -80 l 661 -305 z "},"ḓ":{"ha":818,"x_min":65,"x_max":705,"o":"m 705 0 l 594 0 l 594 118 l 591 118 q 353 -16 514 -16 q 143 77 222 -16 q 65 331 65 170 q 152 607 65 503 q 383 711 239 711 q 591 598 526 711 l 594 598 l 594 1028 l 705 1028 l 705 0 m 594 314 l 594 416 q 538 559 594 500 q 397 617 483 617 q 237 543 296 617 q 179 336 179 468 q 235 147 179 216 q 385 77 291 77 q 536 144 478 77 q 594 314 594 212 m 597 -304 l 514 -304 l 403 -149 l 291 -304 l 214 -304 l 360 -79 l 450 -79 l 597 -304 z "},"Ḏ":{"ha":974,"x_min":127,"x_max":910,"o":"m 127 0 l 127 972 l 396 972 q 910 498 910 972 q 767 137 910 273 q 385 0 625 0 l 127 0 m 241 869 l 241 103 l 387 103 q 684 205 578 103 q 791 496 791 308 q 393 869 791 869 l 241 869 m 608 -152 l 264 -152 l 264 -78 l 608 -78 l 608 -152 z "},"ḏ":{"ha":818,"x_min":65,"x_max":705,"o":"m 705 0 l 594 0 l 594 118 l 591 118 q 353 -16 514 -16 q 143 77 222 -16 q 65 331 65 170 q 152 607 65 503 q 383 711 239 711 q 591 598 526 711 l 594 598 l 594 1028 l 705 1028 l 705 0 m 594 314 l 594 416 q 538 559 594 500 q 397 617 483 617 q 237 543 296 617 q 179 336 179 468 q 235 147 179 216 q 385 77 291 77 q 536 144 478 77 q 594 314 594 212 m 579 -152 l 235 -152 l 235 -78 l 579 -78 l 579 -152 z "},"Ḍ":{"ha":974,"x_min":127,"x_max":910,"o":"m 127 0 l 127 972 l 396 972 q 910 498 910 972 q 767 137 910 273 q 385 0 625 0 l 127 0 m 241 869 l 241 103 l 387 103 q 684 205 578 103 q 791 496 791 308 q 393 869 791 869 l 241 869 m 462 -213 q 414 -193 434 -213 q 395 -146 395 -174 q 415 -99 395 -118 q 462 -81 435 -81 q 509 -99 490 -81 q 529 -146 529 -118 q 509 -193 529 -174 q 462 -213 490 -213 z "},"ḍ":{"ha":818,"x_min":65,"x_max":705,"o":"m 705 0 l 594 0 l 594 118 l 591 118 q 353 -16 514 -16 q 143 77 222 -16 q 65 331 65 170 q 152 607 65 503 q 383 711 239 711 q 591 598 526 711 l 594 598 l 594 1028 l 705 1028 l 705 0 m 594 314 l 594 416 q 538 559 594 500 q 397 617 483 617 q 237 543 296 617 q 179 336 179 468 q 235 147 179 216 q 385 77 291 77 q 536 144 478 77 q 594 314 594 212 m 406 -213 q 359 -193 378 -213 q 339 -146 339 -174 q 359 -99 339 -118 q 406 -81 380 -81 q 454 -99 434 -81 q 473 -146 473 -118 q 454 -193 473 -174 q 406 -213 434 -213 z "},"Ḑ":{"ha":974,"x_min":127,"x_max":910,"o":"m 127 0 l 127 972 l 396 972 q 910 498 910 972 q 767 137 910 273 q 385 0 625 0 l 127 0 m 241 869 l 241 103 l 387 103 q 684 205 578 103 q 791 496 791 308 q 393 869 791 869 l 241 869 m 568 -81 l 456 -257 l 372 -257 l 452 -81 l 568 -81 z "},"ḑ":{"ha":818,"x_min":65,"x_max":705,"o":"m 705 0 l 594 0 l 594 118 l 591 118 q 353 -16 514 -16 q 143 77 222 -16 q 65 331 65 170 q 152 607 65 503 q 383 711 239 711 q 591 598 526 711 l 594 598 l 594 1028 l 705 1028 l 705 0 m 594 314 l 594 416 q 538 559 594 500 q 397 617 483 617 q 237 543 296 617 q 179 336 179 468 q 235 147 179 216 q 385 77 291 77 q 536 144 478 77 q 594 314 594 212 m 494 -81 l 382 -257 l 298 -257 l 378 -81 l 494 -81 z "},"Đ":{"ha":974,"x_min":19,"x_max":910,"o":"m 127 0 l 127 435 l 19 435 l 19 540 l 127 540 l 127 972 l 396 972 q 910 498 910 972 q 767 136 910 272 q 385 0 624 0 l 127 0 m 241 869 l 241 540 l 469 540 l 469 435 l 241 435 l 241 103 l 387 103 q 684 205 578 103 q 791 496 791 308 q 393 869 791 869 l 241 869 z "},"đ":{"ha":818,"x_min":65,"x_max":798,"o":"m 705 0 l 594 0 l 594 118 l 591 118 q 353 -16 514 -16 q 143 77 222 -16 q 65 331 65 170 q 152 607 65 503 q 383 711 239 711 q 591 598 524 711 l 594 598 l 594 815 l 370 815 l 370 906 l 594 906 l 594 1028 l 705 1028 l 705 906 l 798 906 l 798 815 l 705 815 l 705 0 m 594 314 l 594 416 q 538 559 594 500 q 397 617 483 617 q 237 543 296 617 q 179 336 179 468 q 235 147 179 216 q 385 77 291 77 q 536 144 477 77 q 594 314 594 212 z "},"Ɖ":{"ha":974,"x_min":19,"x_max":910,"o":"m 127 0 l 127 435 l 19 435 l 19 540 l 127 540 l 127 972 l 396 972 q 910 498 910 972 q 767 136 910 272 q 385 0 625 0 l 127 0 m 241 869 l 241 540 l 469 540 l 469 435 l 241 435 l 241 103 l 387 103 q 684 205 578 103 q 791 496 791 308 q 393 869 791 869 l 241 869 z "},"ɖ":{"ha":818,"x_min":65,"x_max":890,"o":"m 890 -308 q 802 -327 846 -327 q 648 -268 703 -327 q 594 -100 594 -208 l 594 122 l 591 122 q 353 -16 514 -16 q 143 78 221 -16 q 65 330 65 172 q 153 607 65 503 q 387 711 241 711 q 591 597 525 711 l 594 597 l 594 1028 l 705 1028 l 705 -96 q 814 -232 705 -232 q 890 -214 854 -232 l 890 -308 m 594 319 l 594 411 q 539 557 594 497 q 397 617 484 617 q 236 541 294 617 q 179 334 179 465 q 235 147 179 217 q 383 77 290 77 q 535 146 477 77 q 594 319 594 215 z "},"Ɗ":{"ha":1029,"x_min":-57,"x_max":966,"o":"m 183 0 l 183 869 l 167 869 q 82 838 112 869 q 52 754 52 806 q 65 682 52 717 l -42 682 q -57 765 -57 720 q 9 913 -57 854 q 184 972 75 972 l 452 972 q 966 498 966 972 q 823 137 966 273 q 440 0 680 0 l 183 0 m 297 869 l 297 103 l 442 103 q 740 205 633 103 q 846 496 846 308 q 449 869 846 869 l 297 869 z "},"ɗ":{"ha":818,"x_min":65,"x_max":890,"o":"m 890 930 q 817 949 853 949 q 705 808 705 949 l 705 0 l 594 0 l 594 122 l 591 122 q 353 -16 514 -16 q 143 78 221 -16 q 65 330 65 172 q 153 607 65 503 q 387 711 241 711 q 591 597 525 711 l 594 597 l 594 815 q 655 981 594 919 q 810 1043 716 1043 q 890 1031 859 1043 l 890 930 m 594 319 l 594 411 q 539 557 594 497 q 397 617 484 617 q 236 541 294 617 q 179 334 179 465 q 235 147 179 217 q 383 77 290 77 q 535 146 477 77 q 594 319 594 215 z "},"E":{"ha":703,"x_min":127,"x_max":643,"o":"m 643 0 l 127 0 l 127 972 l 621 972 l 621 869 l 241 869 l 241 546 l 593 546 l 593 444 l 241 444 l 241 103 l 643 103 l 643 0 z "},"e":{"ha":726,"x_min":65,"x_max":671,"o":"m 671 319 l 180 319 q 243 140 183 203 q 407 77 302 77 q 623 155 524 77 l 623 50 q 380 -16 531 -16 q 149 78 233 -16 q 65 345 65 173 q 157 609 65 507 q 385 711 249 711 q 596 623 522 711 q 671 378 671 534 l 671 319 m 557 414 q 510 564 556 510 q 383 617 465 617 q 250 561 304 617 q 182 414 195 505 l 557 414 z "},"È":{"ha":703,"x_min":127,"x_max":643,"o":"m 643 0 l 127 0 l 127 972 l 621 972 l 621 869 l 241 869 l 241 546 l 593 546 l 593 444 l 241 444 l 241 103 l 643 103 l 643 0 m 477 1062 l 391 1062 l 213 1284 l 327 1284 l 477 1062 z "},"è":{"ha":726,"x_min":65,"x_max":671,"o":"m 671 319 l 180 319 q 243 140 183 203 q 407 77 302 77 q 623 155 524 77 l 623 50 q 380 -16 531 -16 q 149 78 233 -16 q 65 345 65 173 q 157 609 65 507 q 385 711 249 711 q 596 623 522 711 q 671 378 671 534 l 671 319 m 557 414 q 510 564 556 510 q 383 617 465 617 q 250 561 304 617 q 182 414 195 505 l 557 414 m 492 826 l 406 826 l 228 1048 l 342 1048 l 492 826 z "},"É":{"ha":703,"x_min":127,"x_max":643,"o":"m 643 0 l 127 0 l 127 972 l 621 972 l 621 869 l 241 869 l 241 546 l 593 546 l 593 444 l 241 444 l 241 103 l 643 103 l 643 0 m 545 1284 l 367 1061 l 281 1061 l 432 1284 l 545 1284 z "},"é":{"ha":726,"x_min":65,"x_max":671,"o":"m 671 319 l 180 319 q 243 140 183 203 q 407 77 302 77 q 623 155 524 77 l 623 50 q 380 -16 531 -16 q 149 78 233 -16 q 65 345 65 173 q 157 609 65 507 q 385 711 249 711 q 596 623 522 711 q 671 378 671 534 l 671 319 m 557 414 q 510 564 556 510 q 383 617 465 617 q 250 561 304 617 q 182 414 195 505 l 557 414 m 539 1048 l 361 826 l 275 826 l 427 1048 l 539 1048 z "},"Ê":{"ha":703,"x_min":127,"x_max":643,"o":"m 643 0 l 127 0 l 127 972 l 621 972 l 621 869 l 241 869 l 241 546 l 593 546 l 593 444 l 241 444 l 241 103 l 643 103 l 643 0 m 561 1063 l 478 1063 l 367 1219 l 255 1063 l 178 1063 l 324 1288 l 414 1288 l 561 1063 z "},"ê":{"ha":726,"x_min":65,"x_max":671,"o":"m 671 319 l 180 319 q 243 140 183 203 q 407 77 302 77 q 623 155 524 77 l 623 50 q 380 -16 531 -16 q 149 78 233 -16 q 65 345 65 173 q 157 609 65 507 q 385 711 249 711 q 596 623 522 711 q 671 378 671 534 l 671 319 m 557 414 q 510 564 556 510 q 383 617 465 617 q 250 561 304 617 q 182 414 195 505 l 557 414 m 570 826 l 487 826 l 376 982 l 264 826 l 187 826 l 333 1051 l 423 1051 l 570 826 z "},"Ě":{"ha":703,"x_min":127,"x_max":643,"o":"m 643 0 l 127 0 l 127 972 l 621 972 l 621 869 l 241 869 l 241 546 l 593 546 l 593 444 l 241 444 l 241 103 l 643 103 l 643 0 m 570 1286 l 425 1062 l 336 1062 l 189 1286 l 267 1286 l 378 1131 l 490 1286 l 570 1286 z "},"ě":{"ha":726,"x_min":65,"x_max":671,"o":"m 671 319 l 180 319 q 243 140 183 203 q 407 77 302 77 q 623 155 524 77 l 623 50 q 380 -16 531 -16 q 149 78 233 -16 q 65 345 65 173 q 157 609 65 507 q 385 711 249 711 q 596 623 522 711 q 671 378 671 534 l 671 319 m 557 414 q 510 564 556 510 q 383 617 465 617 q 250 561 304 617 q 182 414 195 505 l 557 414 m 572 1050 l 427 826 l 338 826 l 191 1050 l 269 1050 l 380 895 l 492 1050 l 572 1050 z "},"Ë":{"ha":703,"x_min":127,"x_max":643,"o":"m 643 0 l 127 0 l 127 972 l 621 972 l 621 869 l 241 869 l 241 546 l 593 546 l 593 444 l 241 444 l 241 103 l 643 103 l 643 0 m 508 1062 q 461 1081 481 1062 q 441 1129 441 1100 q 460 1177 441 1158 q 507 1196 479 1196 q 555 1176 535 1196 q 574 1129 574 1157 q 555 1082 574 1101 q 508 1062 536 1062 m 248 1062 q 199 1082 219 1062 q 179 1129 179 1102 q 198 1177 179 1158 q 245 1196 218 1196 q 294 1176 273 1196 q 314 1129 314 1157 q 294 1082 314 1101 q 248 1062 275 1062 z "},"ë":{"ha":726,"x_min":65,"x_max":671,"o":"m 671 319 l 180 319 q 243 140 183 203 q 407 77 302 77 q 623 155 524 77 l 623 50 q 380 -16 531 -16 q 149 78 233 -16 q 65 345 65 173 q 157 609 65 507 q 385 711 249 711 q 596 623 522 711 q 671 378 671 534 l 671 319 m 557 414 q 510 564 556 510 q 383 617 465 617 q 250 561 304 617 q 182 414 195 505 l 557 414 m 506 826 q 459 845 479 826 q 439 893 439 864 q 458 941 439 922 q 505 960 477 960 q 553 940 533 960 q 572 893 572 921 q 553 846 572 865 q 506 826 534 826 m 245 826 q 197 846 217 826 q 177 893 177 866 q 196 941 177 922 q 243 960 216 960 q 292 940 271 960 q 312 893 312 921 q 292 846 312 865 q 245 826 273 826 z "},"Ē":{"ha":703,"x_min":127,"x_max":643,"o":"m 643 0 l 127 0 l 127 972 l 621 972 l 621 869 l 241 869 l 241 546 l 593 546 l 593 444 l 241 444 l 241 103 l 643 103 l 643 0 m 559 1062 l 214 1062 l 214 1136 l 559 1136 l 559 1062 z "},"ē":{"ha":726,"x_min":65,"x_max":671,"o":"m 671 319 l 180 319 q 243 140 183 203 q 407 77 302 77 q 623 155 524 77 l 623 50 q 380 -16 531 -16 q 149 78 233 -16 q 65 345 65 173 q 157 609 65 507 q 385 711 249 711 q 596 623 522 711 q 671 378 671 534 l 671 319 m 557 414 q 510 564 556 510 q 383 617 465 617 q 250 561 304 617 q 182 414 195 505 l 557 414 m 556 826 l 212 826 l 212 900 l 556 900 l 556 826 z "},"Ḕ":{"ha":703,"x_min":127,"x_max":643,"o":"m 643 0 l 127 0 l 127 972 l 621 972 l 621 869 l 241 869 l 241 546 l 593 546 l 593 444 l 241 444 l 241 103 l 643 103 l 643 0 m 545 1062 l 201 1062 l 201 1136 l 545 1136 l 545 1062 m 448 1189 l 363 1189 l 212 1356 l 326 1356 l 448 1189 z "},"ḕ":{"ha":726,"x_min":65,"x_max":671,"o":"m 671 319 l 180 319 q 243 140 183 203 q 407 77 302 77 q 623 155 524 77 l 623 50 q 380 -16 531 -16 q 149 78 233 -16 q 65 345 65 173 q 157 609 65 507 q 385 711 249 711 q 596 623 522 711 q 671 378 671 534 l 671 319 m 557 414 q 510 564 556 510 q 383 617 465 617 q 250 561 304 617 q 182 414 195 505 l 557 414 m 545 826 l 201 826 l 201 900 l 545 900 l 545 826 m 448 953 l 363 953 l 212 1120 l 326 1120 l 448 953 z "},"Ḗ":{"ha":703,"x_min":127,"x_max":643,"o":"m 643 0 l 127 0 l 127 972 l 621 972 l 621 869 l 241 869 l 241 546 l 593 546 l 593 444 l 241 444 l 241 103 l 643 103 l 643 0 m 559 1062 l 214 1062 l 214 1136 l 559 1136 l 559 1062 m 311 1189 l 433 1356 l 547 1356 l 397 1189 l 311 1189 z "},"ḗ":{"ha":726,"x_min":65,"x_max":671,"o":"m 671 319 l 180 319 q 243 140 183 203 q 407 77 302 77 q 623 155 524 77 l 623 50 q 380 -16 531 -16 q 149 78 233 -16 q 65 345 65 173 q 157 609 65 507 q 385 711 249 711 q 596 623 522 711 q 671 378 671 534 l 671 319 m 557 414 q 510 564 556 510 q 383 617 465 617 q 250 561 304 617 q 182 414 195 505 l 557 414 m 543 826 l 198 826 l 198 900 l 543 900 l 543 826 m 294 953 l 416 1120 l 530 1120 l 381 953 l 294 953 z "},"Ĕ":{"ha":703,"x_min":127,"x_max":643,"o":"m 643 0 l 127 0 l 127 972 l 621 972 l 621 869 l 241 869 l 241 546 l 593 546 l 593 444 l 241 444 l 241 103 l 643 103 l 643 0 m 562 1234 q 502 1111 555 1158 q 373 1063 449 1063 q 243 1110 294 1063 q 190 1234 193 1157 l 258 1234 q 374 1129 266 1129 q 453 1158 420 1129 q 493 1234 486 1186 l 562 1234 z "},"ĕ":{"ha":726,"x_min":65,"x_max":671,"o":"m 671 319 l 180 319 q 243 140 183 203 q 407 77 302 77 q 623 155 524 77 l 623 50 q 380 -16 531 -16 q 149 78 233 -16 q 65 345 65 173 q 157 609 65 507 q 385 711 249 711 q 596 623 522 711 q 671 378 671 534 l 671 319 m 557 414 q 510 564 556 510 q 383 617 465 617 q 250 561 304 617 q 182 414 195 505 l 557 414 m 564 997 q 504 873 557 920 q 374 826 450 826 q 245 873 295 826 q 191 997 195 920 l 259 997 q 376 892 267 892 q 455 920 422 892 q 494 997 488 949 l 564 997 z "},"Ȇ":{"ha":703,"x_min":127,"x_max":643,"o":"m 643 0 l 127 0 l 127 972 l 621 972 l 621 869 l 241 869 l 241 546 l 593 546 l 593 444 l 241 444 l 241 103 l 643 103 l 643 0 m 577 1063 l 508 1063 q 469 1140 502 1112 q 390 1168 436 1168 q 273 1063 281 1168 l 205 1063 q 259 1187 208 1140 q 389 1234 309 1234 q 518 1187 465 1234 q 577 1063 570 1140 z "},"ȇ":{"ha":726,"x_min":65,"x_max":671,"o":"m 671 319 l 180 319 q 243 140 183 203 q 407 77 302 77 q 623 155 524 77 l 623 50 q 380 -16 531 -16 q 149 78 233 -16 q 65 345 65 173 q 157 609 65 507 q 385 711 249 711 q 596 623 522 711 q 671 378 671 534 l 671 319 m 557 414 q 510 564 556 510 q 383 617 465 617 q 250 561 304 617 q 182 414 195 505 l 557 414 m 572 826 l 503 826 q 464 903 497 875 q 385 932 431 932 q 269 826 277 932 l 201 826 q 254 950 203 903 q 384 997 304 997 q 513 950 460 997 q 572 826 566 903 z "},"Ė":{"ha":703,"x_min":127,"x_max":643,"o":"m 643 0 l 127 0 l 127 972 l 621 972 l 621 869 l 241 869 l 241 546 l 593 546 l 593 444 l 241 444 l 241 103 l 643 103 l 643 0 m 373 1063 q 326 1082 346 1063 q 306 1130 306 1101 q 326 1176 306 1157 q 373 1195 345 1195 q 420 1176 401 1195 q 439 1130 439 1158 q 420 1082 439 1102 q 373 1063 401 1063 z "},"ė":{"ha":726,"x_min":65,"x_max":671,"o":"m 671 319 l 180 319 q 243 140 183 203 q 407 77 302 77 q 623 155 524 77 l 623 50 q 380 -16 531 -16 q 149 78 233 -16 q 65 345 65 173 q 157 609 65 507 q 385 711 249 711 q 596 623 522 711 q 671 378 671 534 l 671 319 m 557 414 q 510 564 556 510 q 383 617 465 617 q 250 561 304 617 q 182 414 195 505 l 557 414 m 391 826 q 343 845 363 826 q 323 893 323 865 q 343 939 323 920 q 391 958 363 958 q 438 940 418 958 q 457 893 457 921 q 438 846 457 865 q 391 826 418 826 z "},"Ȅ":{"ha":703,"x_min":107,"x_max":643,"o":"m 643 0 l 127 0 l 127 972 l 621 972 l 621 869 l 241 869 l 241 546 l 593 546 l 593 444 l 241 444 l 241 103 l 643 103 l 643 0 m 503 1063 l 437 1063 l 275 1279 l 363 1279 l 503 1063 m 339 1063 l 274 1063 l 107 1279 l 197 1279 l 339 1063 z "},"ȅ":{"ha":726,"x_min":65,"x_max":671,"o":"m 671 319 l 180 319 q 243 140 183 203 q 407 77 302 77 q 623 155 524 77 l 623 50 q 380 -16 531 -16 q 149 78 233 -16 q 65 345 65 173 q 157 609 65 507 q 385 711 249 711 q 596 623 522 711 q 671 378 671 534 l 671 319 m 557 414 q 510 564 556 510 q 383 617 465 617 q 250 561 304 617 q 182 414 195 505 l 557 414 m 502 826 l 436 826 l 274 1042 l 361 1042 l 502 826 m 338 826 l 273 826 l 106 1042 l 196 1042 l 338 826 z "},"Ḙ":{"ha":703,"x_min":127,"x_max":643,"o":"m 643 0 l 127 0 l 127 972 l 621 972 l 621 869 l 241 869 l 241 546 l 593 546 l 593 444 l 241 444 l 241 103 l 643 103 l 643 0 m 592 -306 l 509 -306 l 398 -150 l 286 -306 l 210 -306 l 355 -81 l 446 -81 l 592 -306 z "},"ḙ":{"ha":726,"x_min":65,"x_max":671,"o":"m 671 319 l 180 319 q 243 140 183 203 q 407 77 302 77 q 623 155 524 77 l 623 50 q 380 -16 531 -16 q 149 78 233 -16 q 65 345 65 173 q 157 609 65 507 q 385 711 249 711 q 596 623 522 711 q 671 378 671 534 l 671 319 m 557 414 q 510 564 556 510 q 383 617 465 617 q 250 561 304 617 q 182 414 195 505 l 557 414 m 593 -305 l 510 -305 l 399 -149 l 287 -305 l 210 -305 l 356 -80 l 446 -80 l 593 -305 z "},"Ḛ":{"ha":703,"x_min":127,"x_max":643,"o":"m 643 0 l 127 0 l 127 972 l 621 972 l 621 869 l 241 869 l 241 546 l 593 546 l 593 444 l 241 444 l 241 103 l 643 103 l 643 0 m 600 -68 q 568 -185 600 -140 q 479 -230 535 -230 q 370 -195 431 -230 q 289 -165 317 -165 q 229 -242 229 -165 l 165 -242 q 198 -126 165 -170 q 289 -82 231 -82 q 390 -117 333 -82 q 477 -147 440 -147 q 534 -68 534 -147 l 600 -68 z "},"ḛ":{"ha":726,"x_min":65,"x_max":671,"o":"m 671 319 l 180 319 q 243 140 183 203 q 407 77 302 77 q 623 155 524 77 l 623 50 q 380 -16 531 -16 q 149 78 233 -16 q 65 345 65 173 q 157 609 65 507 q 385 711 249 711 q 596 623 522 711 q 671 378 671 534 l 671 319 m 557 414 q 510 564 556 510 q 383 617 465 617 q 250 561 304 617 q 182 414 195 505 l 557 414 m 611 -69 q 578 -185 611 -140 q 490 -231 546 -231 q 380 -195 442 -231 q 300 -166 328 -166 q 240 -243 240 -166 l 176 -243 q 209 -126 176 -170 q 300 -83 241 -83 q 401 -118 344 -83 q 488 -148 451 -148 q 545 -69 545 -148 l 611 -69 z "},"Ẹ":{"ha":703,"x_min":127,"x_max":643,"o":"m 643 0 l 127 0 l 127 972 l 621 972 l 621 869 l 241 869 l 241 546 l 593 546 l 593 444 l 241 444 l 241 103 l 643 103 l 643 0 m 396 -213 q 349 -193 368 -213 q 329 -146 329 -174 q 349 -99 329 -118 q 396 -81 370 -81 q 444 -99 424 -81 q 463 -146 463 -118 q 444 -193 463 -174 q 396 -213 424 -213 z "},"ẹ":{"ha":726,"x_min":65,"x_max":671,"o":"m 671 319 l 180 319 q 243 140 183 203 q 407 77 302 77 q 623 155 524 77 l 623 50 q 380 -16 531 -16 q 149 78 233 -16 q 65 345 65 173 q 157 609 65 507 q 385 711 249 711 q 596 623 522 711 q 671 378 671 534 l 671 319 m 557 414 q 510 564 556 510 q 383 617 465 617 q 250 561 304 617 q 182 414 195 505 l 557 414 m 395 -213 q 348 -193 368 -213 q 328 -146 328 -174 q 349 -99 328 -118 q 395 -81 369 -81 q 443 -99 423 -81 q 463 -146 463 -118 q 443 -193 463 -174 q 395 -213 423 -213 z "},"Ẽ":{"ha":703,"x_min":127,"x_max":643,"o":"m 643 0 l 127 0 l 127 972 l 621 972 l 621 869 l 241 869 l 241 546 l 593 546 l 593 444 l 241 444 l 241 103 l 643 103 l 643 0 m 608 1225 q 575 1108 608 1154 q 487 1063 543 1063 q 377 1099 439 1063 q 296 1128 325 1128 q 237 1051 237 1128 l 173 1051 q 205 1167 173 1124 q 296 1211 238 1211 q 397 1176 340 1211 q 484 1146 448 1146 q 541 1225 541 1146 l 608 1225 z "},"ẽ":{"ha":726,"x_min":65,"x_max":671,"o":"m 671 319 l 180 319 q 243 140 183 203 q 407 77 302 77 q 623 155 524 77 l 623 50 q 380 -16 531 -16 q 149 78 233 -16 q 65 345 65 173 q 157 609 65 507 q 385 711 249 711 q 596 623 522 711 q 671 378 671 534 l 671 319 m 557 414 q 510 564 556 510 q 383 617 465 617 q 250 561 304 617 q 182 414 195 505 l 557 414 m 594 989 q 562 872 594 918 q 473 827 529 827 q 363 863 425 827 q 283 892 311 892 q 223 815 223 892 l 159 815 q 192 931 159 888 q 283 975 224 975 q 384 940 327 975 q 471 910 434 910 q 528 989 528 910 l 594 989 z "},"Ȩ":{"ha":703,"x_min":127,"x_max":643,"o":"m 643 0 l 127 0 l 127 972 l 621 972 l 621 869 l 241 869 l 241 546 l 593 546 l 593 444 l 241 444 l 241 103 l 643 103 l 643 0 m 532 -174 q 346 -293 532 -293 q 302 -292 320 -293 l 302 -231 q 349 -235 331 -235 q 445 -174 445 -235 q 357 -121 445 -121 q 330 -123 351 -121 l 330 0 l 403 0 l 403 -71 q 497 -98 463 -71 q 532 -174 532 -125 z "},"ȩ":{"ha":726,"x_min":65,"x_max":671,"o":"m 671 319 l 180 319 q 243 140 183 203 q 407 77 302 77 q 623 155 524 77 l 623 50 q 380 -16 531 -16 q 149 78 233 -16 q 65 345 65 173 q 157 609 65 507 q 385 711 249 711 q 596 623 522 711 q 671 378 671 534 l 671 319 m 557 414 q 510 564 556 510 q 383 617 465 617 q 250 561 304 617 q 182 414 195 505 l 557 414 m 524 -174 q 337 -293 524 -293 q 293 -292 311 -293 l 293 -231 q 340 -235 322 -235 q 436 -174 436 -235 q 349 -121 436 -121 q 321 -123 342 -121 l 321 0 l 394 0 l 394 -71 q 489 -98 454 -71 q 524 -174 524 -125 z "},"Ḝ":{"ha":703,"x_min":127,"x_max":643,"o":"m 643 0 l 127 0 l 127 972 l 621 972 l 621 869 l 241 869 l 241 546 l 593 546 l 593 444 l 241 444 l 241 103 l 643 103 l 643 0 m 532 -174 q 346 -293 532 -293 q 302 -292 320 -293 l 302 -231 q 349 -235 331 -235 q 445 -174 445 -235 q 357 -121 445 -121 q 330 -123 351 -121 l 330 0 l 403 0 l 403 -71 q 497 -98 463 -71 q 532 -174 532 -125 m 557 1234 q 497 1111 551 1158 q 368 1063 444 1063 q 239 1110 289 1063 q 185 1234 189 1157 l 253 1234 q 370 1129 261 1129 q 449 1158 416 1129 q 488 1234 481 1186 l 557 1234 z "},"ḝ":{"ha":726,"x_min":65,"x_max":671,"o":"m 671 319 l 180 319 q 243 140 183 203 q 407 77 302 77 q 623 155 524 77 l 623 50 q 380 -16 531 -16 q 149 78 233 -16 q 65 345 65 173 q 157 609 65 507 q 385 711 249 711 q 596 623 522 711 q 671 378 671 534 l 671 319 m 557 414 q 510 564 556 510 q 383 617 465 617 q 250 561 304 617 q 182 414 195 505 l 557 414 m 524 -174 q 337 -293 524 -293 q 293 -292 311 -293 l 293 -231 q 340 -235 322 -235 q 436 -174 436 -235 q 349 -121 436 -121 q 321 -123 342 -121 l 321 0 l 394 0 l 394 -71 q 489 -98 454 -71 q 524 -174 524 -125 m 553 997 q 493 873 546 920 q 363 826 439 826 q 234 873 284 826 q 180 997 184 920 l 248 997 q 365 892 256 892 q 444 920 411 892 q 484 997 477 949 l 553 997 z "},"Ę":{"ha":703,"x_min":127,"x_max":643,"o":"m 643 0 l 127 0 l 127 972 l 621 972 l 621 869 l 241 869 l 241 546 l 593 546 l 593 444 l 241 444 l 241 103 l 643 103 l 643 0 m 587 0 q 485 -151 485 -96 q 531 -199 485 -199 q 569 -190 551 -199 l 569 -262 q 513 -271 549 -271 q 431 -244 462 -271 q 399 -170 399 -217 q 506 0 399 -87 l 587 0 z "},"ę":{"ha":726,"x_min":65,"x_max":671,"o":"m 671 319 l 180 319 q 243 140 183 203 q 407 77 302 77 q 623 155 524 77 l 623 50 q 380 -16 531 -16 q 149 78 233 -16 q 65 345 65 173 q 157 609 65 507 q 385 711 249 711 q 596 623 522 711 q 671 378 671 534 l 671 319 m 557 414 q 510 564 556 510 q 383 617 465 617 q 250 561 304 617 q 182 414 195 505 l 557 414 m 512 0 q 410 -151 410 -96 q 456 -199 410 -199 q 494 -190 477 -199 l 494 -262 q 439 -271 474 -271 q 356 -244 387 -271 q 325 -170 325 -217 q 431 0 325 -87 l 512 0 z "},"Ǝ":{"ha":704,"x_min":61,"x_max":576,"o":"m 576 0 l 61 0 l 61 103 l 463 103 l 463 435 l 111 435 l 111 537 l 463 537 l 463 869 l 83 869 l 83 972 l 576 972 l 576 0 z "},"ǝ":{"ha":726,"x_min":56,"x_max":661,"o":"m 56 375 l 546 375 q 484 554 543 491 q 319 617 425 617 q 104 540 202 617 l 104 644 q 346 711 195 711 q 577 616 493 711 q 661 350 661 522 q 569 85 661 186 q 342 -16 477 -16 q 130 73 204 -16 q 56 317 56 161 l 56 375 m 545 281 l 170 281 q 216 131 171 184 q 343 77 262 77 q 477 134 422 77 q 545 281 532 190 z "},"Ə":{"ha":1001,"x_min":58,"x_max":937,"o":"m 58 538 l 817 538 q 709 792 805 699 q 465 886 613 886 q 213 821 319 886 l 213 932 q 473 989 320 989 q 813 855 690 989 q 937 486 937 722 q 814 126 937 268 q 486 -16 690 -16 q 170 124 281 -16 q 58 538 58 265 m 817 436 l 180 436 q 265 181 183 277 q 488 86 347 86 q 715 181 628 86 q 817 436 803 276 z "},"ə":{"ha":726,"x_min":56,"x_max":661,"o":"m 56 375 l 546 375 q 484 554 543 491 q 319 617 424 617 q 104 540 201 617 l 104 644 q 346 711 195 711 q 577 616 493 711 q 661 350 661 522 q 569 85 661 186 q 342 -16 477 -16 q 130 73 204 -16 q 56 317 56 161 l 56 375 m 545 281 l 170 281 q 216 131 171 185 q 343 77 260 77 q 477 134 422 77 q 545 281 532 190 z "},"Ɛ":{"ha":751,"x_min":76,"x_max":686,"o":"m 686 36 q 433 -16 574 -16 q 172 59 267 -16 q 76 258 76 134 q 131 415 76 349 q 283 507 186 481 l 283 511 q 110 726 110 566 q 202 914 110 840 q 442 989 295 989 q 661 941 563 989 l 661 826 q 439 886 557 886 q 286 843 343 886 q 228 728 228 800 q 297 602 228 652 q 481 553 366 553 l 553 553 l 553 450 l 480 450 q 196 267 196 450 q 261 134 196 182 q 437 86 326 86 q 686 149 573 86 l 686 36 z "},"ɛ":{"ha":574,"x_min":65,"x_max":513,"o":"m 513 18 q 332 -16 435 -16 q 136 38 206 -16 q 65 184 65 93 q 216 362 65 325 l 216 365 q 89 522 89 408 q 157 659 89 607 q 336 711 225 711 q 494 680 425 711 l 494 575 q 336 617 420 617 q 238 590 275 617 q 201 517 201 562 q 249 435 201 465 q 378 406 296 406 l 432 406 l 432 309 l 376 309 q 179 193 179 309 q 222 109 179 140 q 343 77 266 77 q 513 119 434 77 l 513 18 z "},"F":{"ha":678,"x_min":127,"x_max":621,"o":"m 621 869 l 241 869 l 241 533 l 593 533 l 593 431 l 241 431 l 241 0 l 127 0 l 127 972 l 621 972 l 621 869 z "},"f":{"ha":435,"x_min":36,"x_max":456,"o":"m 456 930 q 382 949 423 949 q 265 802 265 949 l 265 694 l 428 694 l 428 600 l 265 600 l 265 0 l 155 0 l 155 600 l 36 600 l 36 694 l 155 694 l 155 807 q 218 980 155 916 q 375 1043 281 1043 q 456 1031 426 1043 l 456 930 z "},"Ḟ":{"ha":678,"x_min":127,"x_max":621,"o":"m 621 869 l 241 869 l 241 533 l 593 533 l 593 431 l 241 431 l 241 0 l 127 0 l 127 972 l 621 972 l 621 869 m 364 1063 q 317 1082 337 1063 q 297 1130 297 1101 q 317 1176 297 1157 q 364 1195 336 1195 q 411 1176 392 1195 q 431 1130 431 1158 q 411 1082 431 1102 q 364 1063 392 1063 z "},"ḟ":{"ha":435,"x_min":36,"x_max":456,"o":"m 456 930 q 382 949 423 949 q 265 802 265 949 l 265 694 l 428 694 l 428 600 l 265 600 l 265 0 l 155 0 l 155 600 l 36 600 l 36 694 l 155 694 l 155 807 q 218 980 155 916 q 375 1043 281 1043 q 456 1031 426 1043 l 456 930 m 142 1063 q 95 1082 115 1063 q 75 1130 75 1101 q 95 1176 75 1157 q 142 1195 115 1195 q 190 1176 170 1195 q 209 1130 209 1158 q 190 1082 209 1102 q 142 1063 170 1063 z "},"Ƒ":{"ha":678,"x_min":-69,"x_max":621,"o":"m 621 869 l 241 869 l 241 533 l 593 533 l 593 431 l 241 431 l 241 36 q 12 -245 241 -245 q -69 -232 -32 -245 l -69 -123 q 7 -143 -35 -143 q 127 36 127 -143 l 127 972 l 621 972 l 621 869 z "},"ƒ":{"ha":435,"x_min":-42,"x_max":456,"o":"m 456 930 q 382 949 423 949 q 265 802 265 949 l 265 694 l 428 694 l 428 600 l 265 600 l 265 36 q 210 -176 265 -106 q 39 -245 155 -245 q -42 -232 -3 -245 l -42 -123 q 34 -143 -8 -143 q 155 36 155 -143 l 155 600 l 36 600 l 36 694 l 155 694 l 155 807 q 218 979 155 916 q 375 1043 281 1043 q 456 1031 426 1043 l 456 930 z "},"ɸ":{"ha":886,"x_min":65,"x_max":821,"o":"m 498 -16 l 498 -319 l 388 -319 l 388 -16 q 152 94 238 -5 q 65 343 65 192 q 153 597 65 500 q 388 711 241 695 l 388 1028 l 498 1028 l 498 711 q 735 603 650 700 q 821 350 821 505 q 733 97 821 196 q 498 -16 646 -2 m 498 617 l 498 77 q 652 160 598 90 q 707 347 707 231 q 652 534 707 463 q 498 617 598 605 m 388 77 l 388 617 q 234 534 290 605 q 179 346 179 463 q 234 162 179 233 q 388 77 290 90 z "},"G":{"ha":953,"x_min":64,"x_max":854,"o":"m 854 66 q 529 -16 708 -16 q 192 118 321 -16 q 64 473 64 252 q 207 844 64 699 q 568 989 349 989 q 835 937 727 989 l 835 811 q 555 886 717 886 q 288 773 392 886 q 183 481 183 661 q 280 192 183 297 q 543 86 377 86 q 741 132 657 86 l 741 404 l 528 404 l 528 507 l 854 507 l 854 66 z "},"g":{"ha":818,"x_min":65,"x_max":705,"o":"m 705 56 q 339 -327 705 -327 q 114 -278 210 -327 l 114 -167 q 338 -232 231 -232 q 594 41 594 -232 l 594 117 l 591 117 q 353 -16 512 -16 q 144 76 223 -16 q 65 325 65 169 q 150 606 65 502 q 383 711 235 711 q 591 598 524 711 l 594 598 l 594 694 l 705 694 l 705 56 m 594 314 l 594 416 q 538 558 594 499 q 399 617 482 617 q 237 542 296 617 q 179 332 179 467 q 235 147 179 216 q 383 77 291 77 q 535 144 477 77 q 594 314 594 210 z "},"Ǵ":{"ha":953,"x_min":64,"x_max":854,"o":"m 854 66 q 529 -16 708 -16 q 192 118 321 -16 q 64 473 64 252 q 207 844 64 699 q 568 989 349 989 q 835 937 727 989 l 835 811 q 555 886 717 886 q 288 773 392 886 q 183 481 183 661 q 280 192 183 297 q 543 86 377 86 q 741 132 657 86 l 741 404 l 528 404 l 528 507 l 854 507 l 854 66 m 729 1286 l 551 1063 l 465 1063 l 616 1286 l 729 1286 z "},"ǵ":{"ha":818,"x_min":65,"x_max":705,"o":"m 705 56 q 339 -327 705 -327 q 114 -278 210 -327 l 114 -167 q 338 -232 231 -232 q 594 41 594 -232 l 594 117 l 591 117 q 353 -16 512 -16 q 144 76 223 -16 q 65 325 65 169 q 150 606 65 502 q 383 711 235 711 q 591 598 524 711 l 594 598 l 594 694 l 705 694 l 705 56 m 594 314 l 594 416 q 538 558 594 499 q 399 617 482 617 q 237 542 296 617 q 179 332 179 467 q 235 147 179 216 q 383 77 291 77 q 535 144 477 77 q 594 314 594 210 m 587 1048 l 410 826 l 323 826 l 475 1048 l 587 1048 z "},"Ĝ":{"ha":953,"x_min":64,"x_max":854,"o":"m 854 66 q 529 -16 708 -16 q 192 118 321 -16 q 64 473 64 252 q 207 844 64 699 q 568 989 349 989 q 835 937 727 989 l 835 811 q 555 886 717 886 q 288 773 392 886 q 183 481 183 661 q 280 192 183 297 q 543 86 377 86 q 741 132 657 86 l 741 404 l 528 404 l 528 507 l 854 507 l 854 66 m 720 1063 l 637 1063 l 526 1219 l 414 1063 l 337 1063 l 483 1289 l 573 1289 l 720 1063 z "},"ĝ":{"ha":818,"x_min":65,"x_max":705,"o":"m 705 56 q 339 -327 705 -327 q 114 -278 210 -327 l 114 -167 q 338 -232 231 -232 q 594 41 594 -232 l 594 117 l 591 117 q 353 -16 512 -16 q 144 76 223 -16 q 65 325 65 169 q 150 606 65 502 q 383 711 235 711 q 591 598 524 711 l 594 598 l 594 694 l 705 694 l 705 56 m 594 314 l 594 416 q 538 558 594 499 q 399 617 482 617 q 237 542 296 617 q 179 332 179 467 q 235 147 179 216 q 383 77 291 77 q 535 144 477 77 q 594 314 594 210 m 587 826 l 504 826 l 393 982 l 281 826 l 204 826 l 350 1051 l 440 1051 l 587 826 z "},"Ǧ":{"ha":953,"x_min":64,"x_max":854,"o":"m 854 66 q 529 -16 708 -16 q 192 118 321 -16 q 64 473 64 252 q 207 844 64 699 q 568 989 349 989 q 835 937 727 989 l 835 811 q 555 886 717 886 q 288 773 392 886 q 183 481 183 661 q 280 192 183 297 q 543 86 377 86 q 741 132 657 86 l 741 404 l 528 404 l 528 507 l 854 507 l 854 66 m 686 1282 l 541 1058 l 452 1058 l 305 1282 l 383 1282 l 494 1126 l 606 1282 l 686 1282 z "},"ǧ":{"ha":818,"x_min":65,"x_max":705,"o":"m 705 56 q 339 -327 705 -327 q 114 -278 210 -327 l 114 -167 q 338 -232 231 -232 q 594 41 594 -232 l 594 117 l 591 117 q 353 -16 512 -16 q 144 76 223 -16 q 65 325 65 169 q 150 606 65 502 q 383 711 235 711 q 591 598 524 711 l 594 598 l 594 694 l 705 694 l 705 56 m 594 314 l 594 416 q 538 558 594 499 q 399 617 482 617 q 237 542 296 617 q 179 332 179 467 q 235 147 179 216 q 383 77 291 77 q 535 144 477 77 q 594 314 594 210 m 582 1050 l 437 826 l 347 826 l 201 1050 l 279 1050 l 390 895 l 501 1050 l 582 1050 z "},"Ḡ":{"ha":953,"x_min":64,"x_max":854,"o":"m 854 66 q 529 -16 708 -16 q 192 118 321 -16 q 64 473 64 252 q 207 844 64 699 q 568 989 349 989 q 835 937 727 989 l 835 811 q 555 886 717 886 q 288 773 392 886 q 183 481 183 661 q 280 192 183 297 q 543 86 377 86 q 741 132 657 86 l 741 404 l 528 404 l 528 507 l 854 507 l 854 66 m 708 1063 l 363 1063 l 363 1137 l 708 1137 l 708 1063 z "},"ḡ":{"ha":818,"x_min":65,"x_max":705,"o":"m 705 56 q 339 -327 705 -327 q 114 -278 210 -327 l 114 -167 q 338 -232 231 -232 q 594 41 594 -232 l 594 117 l 591 117 q 353 -16 512 -16 q 144 76 223 -16 q 65 325 65 169 q 150 606 65 502 q 383 711 235 711 q 591 598 524 711 l 594 598 l 594 694 l 705 694 l 705 56 m 594 314 l 594 416 q 538 558 594 499 q 399 617 482 617 q 237 542 296 617 q 179 332 179 467 q 235 147 179 216 q 383 77 291 77 q 535 144 477 77 q 594 314 594 210 m 576 826 l 231 826 l 231 900 l 576 900 l 576 826 z "},"Ğ":{"ha":953,"x_min":64,"x_max":854,"o":"m 854 66 q 529 -16 708 -16 q 192 118 321 -16 q 64 473 64 252 q 207 844 64 699 q 568 989 349 989 q 835 937 727 989 l 835 811 q 555 886 717 886 q 288 773 392 886 q 183 481 183 661 q 280 192 183 297 q 543 86 377 86 q 741 132 657 86 l 741 404 l 528 404 l 528 507 l 854 507 l 854 66 m 724 1232 q 664 1108 718 1156 q 535 1061 611 1061 q 406 1108 456 1061 q 352 1232 355 1155 l 420 1232 q 536 1127 428 1127 q 615 1156 583 1127 q 655 1232 648 1184 l 724 1232 z "},"ğ":{"ha":818,"x_min":65,"x_max":705,"o":"m 705 56 q 339 -327 705 -327 q 114 -278 210 -327 l 114 -167 q 338 -232 231 -232 q 594 41 594 -232 l 594 117 l 591 117 q 353 -16 512 -16 q 144 76 223 -16 q 65 325 65 169 q 150 606 65 502 q 383 711 235 711 q 591 598 524 711 l 594 598 l 594 694 l 705 694 l 705 56 m 594 314 l 594 416 q 538 558 594 499 q 399 617 482 617 q 237 542 296 617 q 179 332 179 467 q 235 147 179 216 q 383 77 291 77 q 535 144 477 77 q 594 314 594 210 m 589 997 q 529 873 582 920 q 399 826 475 826 q 270 873 320 826 q 216 997 220 920 l 284 997 q 401 892 292 892 q 480 920 447 892 q 519 997 513 949 l 589 997 z "},"Ġ":{"ha":953,"x_min":64,"x_max":854,"o":"m 854 66 q 529 -16 708 -16 q 192 118 321 -16 q 64 473 64 252 q 207 844 64 699 q 568 989 349 989 q 835 937 727 989 l 835 811 q 555 886 717 886 q 288 773 392 886 q 183 481 183 661 q 280 192 183 297 q 543 86 377 86 q 741 132 657 86 l 741 404 l 528 404 l 528 507 l 854 507 l 854 66 m 541 1063 q 494 1082 514 1063 q 474 1130 474 1101 q 494 1176 474 1157 q 541 1195 513 1195 q 588 1176 569 1195 q 608 1130 608 1158 q 588 1082 608 1102 q 541 1063 569 1063 z "},"ġ":{"ha":818,"x_min":65,"x_max":705,"o":"m 705 56 q 339 -327 705 -327 q 114 -278 210 -327 l 114 -167 q 338 -232 231 -232 q 594 41 594 -232 l 594 117 l 591 117 q 353 -16 512 -16 q 144 76 223 -16 q 65 325 65 169 q 150 606 65 502 q 383 711 235 711 q 591 598 524 711 l 594 598 l 594 694 l 705 694 l 705 56 m 594 314 l 594 416 q 538 558 594 499 q 399 617 482 617 q 237 542 296 617 q 179 332 179 467 q 235 147 179 216 q 383 77 291 77 q 535 144 477 77 q 594 314 594 210 m 390 826 q 343 845 363 826 q 323 893 323 865 q 342 939 323 920 q 390 958 362 958 q 437 940 418 958 q 456 893 456 921 q 437 846 456 865 q 390 826 418 826 z "},"Ģ":{"ha":953,"x_min":64,"x_max":854,"o":"m 854 66 q 529 -16 708 -16 q 192 118 321 -16 q 64 473 64 252 q 207 844 64 699 q 568 989 349 989 q 835 937 727 989 l 835 811 q 555 886 717 886 q 288 773 392 886 q 183 481 183 661 q 280 192 183 297 q 543 86 377 86 q 741 132 657 86 l 741 404 l 528 404 l 528 507 l 854 507 l 854 66 m 600 -81 l 488 -257 l 404 -257 l 484 -81 l 600 -81 z "},"ģ":{"ha":818,"x_min":65,"x_max":705,"o":"m 705 56 q 339 -327 705 -327 q 114 -278 208 -327 l 114 -167 q 338 -232 232 -232 q 594 41 594 -232 l 594 117 l 591 117 q 353 -16 513 -16 q 144 77 224 -16 q 65 325 65 170 q 150 606 65 502 q 383 711 235 711 q 591 598 525 711 l 594 598 l 594 694 l 705 694 l 705 56 m 594 314 l 594 416 q 538 558 594 498 q 399 617 483 617 q 237 542 294 617 q 179 332 179 467 q 235 147 179 217 q 383 77 292 77 q 536 143 477 77 q 594 314 594 210 m 319 826 l 432 1002 l 515 1002 l 436 826 l 319 826 z "},"Ǥ":{"ha":953,"x_min":64,"x_max":953,"o":"m 953 207 l 854 207 l 854 66 q 529 -16 708 -16 q 192 118 321 -16 q 64 473 64 252 q 207 844 64 699 q 568 989 349 989 q 835 937 727 989 l 835 811 q 555 886 717 886 q 288 773 392 886 q 183 481 183 661 q 280 192 183 297 q 543 86 377 86 q 741 132 657 86 l 741 207 l 529 207 l 529 301 l 741 301 l 741 404 l 528 404 l 528 507 l 854 507 l 854 301 l 953 301 l 953 207 z "},"ǥ":{"ha":818,"x_min":-9,"x_max":789,"o":"m 789 283 l 705 283 l 705 56 q 339 -327 705 -327 q 114 -278 210 -327 l 114 -167 q 338 -232 231 -232 q 594 41 594 -232 l 594 117 l 591 117 q 353 -16 512 -16 q 242 5 292 -16 q 155 64 192 26 q 95 159 117 103 q 66 283 72 214 l -9 283 l -9 374 l 67 374 q 97 514 73 452 q 162 620 121 576 q 259 687 203 664 q 383 711 315 711 q 591 598 524 711 l 594 598 l 594 694 l 705 694 l 705 374 l 789 374 l 789 283 m 594 416 q 579 493 594 457 q 538 557 564 530 q 476 601 511 585 q 399 617 440 617 q 247 554 304 617 q 180 374 190 491 l 594 374 l 594 416 m 182 283 q 204 198 188 237 q 247 133 220 160 q 307 92 273 106 q 383 77 341 77 q 463 93 427 77 q 527 135 499 108 q 571 200 554 163 q 593 283 588 238 l 182 283 z "},"Ɠ":{"ha":961,"x_min":64,"x_max":958,"o":"m 958 1023 q 906 1036 930 1036 q 829 922 829 1036 q 839 817 829 873 l 833 812 q 562 886 704 886 q 289 774 395 886 q 183 481 183 662 q 280 192 183 297 q 543 86 377 86 q 741 132 657 86 l 741 404 l 528 404 l 528 507 l 856 507 l 856 66 q 529 -16 709 -16 q 192 118 321 -16 q 64 473 64 252 q 207 844 64 699 q 568 989 349 989 q 730 966 650 989 q 778 1082 732 1034 q 893 1131 823 1131 q 958 1118 926 1131 l 958 1023 z "},"ɠ":{"ha":818,"x_min":65,"x_max":890,"o":"m 890 930 q 817 949 853 949 q 705 808 705 949 l 705 56 q 339 -327 705 -327 q 114 -278 210 -327 l 114 -167 q 338 -232 231 -232 q 594 41 594 -232 l 594 117 l 591 117 q 353 -16 512 -16 q 144 76 223 -16 q 65 325 65 169 q 150 606 65 502 q 383 711 235 711 q 591 598 524 711 l 594 598 l 594 815 q 655 981 594 919 q 810 1043 716 1043 q 890 1031 859 1043 l 890 930 m 594 314 l 594 416 q 538 558 594 499 q 399 617 482 617 q 237 542 296 617 q 179 332 179 467 q 235 147 179 216 q 383 77 291 77 q 535 144 477 77 q 594 314 594 210 z "},"Ɣ":{"ha":863,"x_min":12,"x_max":850,"o":"m 850 972 l 502 66 l 506 58 q 583 -171 583 -96 q 537 -282 583 -237 q 423 -327 490 -327 q 314 -283 358 -327 q 270 -171 270 -239 q 284 -90 270 -130 q 350 54 298 -50 l 355 65 l 12 972 l 139 972 l 408 232 q 428 156 422 193 l 431 156 q 453 232 439 195 l 728 972 l 850 972 m 426 -26 q 380 -168 380 -122 q 426 -228 380 -228 q 472 -168 472 -228 q 426 -26 472 -122 z "},"ɣ":{"ha":665,"x_min":9,"x_max":655,"o":"m 655 694 l 389 109 l 412 62 q 476 -136 476 -65 q 434 -247 476 -203 q 325 -292 392 -292 q 220 -247 260 -292 q 179 -136 179 -203 q 245 62 179 -75 l 269 109 l 9 694 l 130 694 l 330 218 l 534 694 l 655 694 m 328 11 q 285 -133 285 -83 q 328 -200 285 -200 q 372 -133 372 -200 q 328 11 372 -90 z "},"H":{"ha":986,"x_min":127,"x_max":859,"o":"m 859 0 l 745 0 l 745 444 l 241 444 l 241 0 l 127 0 l 127 972 l 241 972 l 241 546 l 745 546 l 745 972 l 859 972 l 859 0 z "},"h":{"ha":786,"x_min":113,"x_max":689,"o":"m 689 0 l 578 0 l 578 400 q 416 617 578 617 q 279 554 335 617 q 224 393 224 492 l 224 0 l 113 0 l 113 1028 l 224 1028 l 224 579 l 227 579 q 454 711 307 711 q 689 428 689 711 l 689 0 z "},"Ĥ":{"ha":986,"x_min":127,"x_max":859,"o":"m 859 0 l 745 0 l 745 444 l 241 444 l 241 0 l 127 0 l 127 972 l 241 972 l 241 546 l 745 546 l 745 972 l 859 972 l 859 0 m 682 1062 l 600 1062 l 488 1218 l 376 1062 l 300 1062 l 446 1287 l 536 1287 l 682 1062 z "},"ĥ":{"ha":786,"x_min":113,"x_max":689,"o":"m 689 0 l 578 0 l 578 400 q 416 617 578 617 q 279 554 335 617 q 224 393 224 492 l 224 0 l 113 0 l 113 1028 l 224 1028 l 224 579 l 227 579 q 454 711 307 711 q 689 428 689 711 l 689 0 m 618 1117 l 536 1117 l 425 1273 l 313 1117 l 236 1117 l 382 1342 l 472 1342 l 618 1117 z "},"Ȟ":{"ha":986,"x_min":127,"x_max":859,"o":"m 859 0 l 745 0 l 745 444 l 241 444 l 241 0 l 127 0 l 127 972 l 241 972 l 241 546 l 745 546 l 745 972 l 859 972 l 859 0 m 684 1282 l 538 1058 l 449 1058 l 302 1282 l 380 1282 l 492 1126 l 603 1282 l 684 1282 z "},"ȟ":{"ha":786,"x_min":113,"x_max":689,"o":"m 689 0 l 578 0 l 578 400 q 416 617 578 617 q 279 554 335 617 q 224 393 224 492 l 224 0 l 113 0 l 113 1028 l 224 1028 l 224 579 l 227 579 q 454 711 307 711 q 689 428 689 711 l 689 0 m 538 1282 l 393 1058 l 303 1058 l 157 1282 l 235 1282 l 346 1126 l 457 1282 l 538 1282 z "},"Ḧ":{"ha":986,"x_min":127,"x_max":859,"o":"m 859 0 l 745 0 l 745 444 l 241 444 l 241 0 l 127 0 l 127 972 l 241 972 l 241 546 l 745 546 l 745 972 l 859 972 l 859 0 m 625 1063 q 578 1082 598 1063 q 559 1130 559 1101 q 578 1177 559 1158 q 624 1196 597 1196 q 672 1177 652 1196 q 692 1130 692 1158 q 673 1082 692 1102 q 625 1063 654 1063 m 365 1063 q 316 1083 336 1063 q 296 1130 296 1103 q 316 1177 296 1158 q 363 1196 335 1196 q 411 1177 391 1196 q 431 1130 431 1158 q 412 1082 431 1102 q 365 1063 392 1063 z "},"ḧ":{"ha":786,"x_min":113,"x_max":689,"o":"m 689 0 l 578 0 l 578 400 q 416 617 578 617 q 279 554 335 617 q 224 393 224 492 l 224 0 l 113 0 l 113 1028 l 224 1028 l 224 579 l 227 579 q 454 711 307 711 q 689 428 689 711 l 689 0 m 568 1063 q 521 1082 541 1063 q 501 1130 501 1101 q 520 1177 501 1158 q 566 1196 539 1196 q 614 1177 595 1196 q 634 1130 634 1158 q 615 1082 634 1102 q 568 1063 596 1063 m 307 1063 q 259 1083 279 1063 q 239 1130 239 1103 q 258 1177 239 1158 q 305 1196 277 1196 q 353 1177 333 1196 q 374 1130 374 1158 q 354 1082 374 1102 q 307 1063 334 1063 z "},"Ḣ":{"ha":986,"x_min":127,"x_max":859,"o":"m 859 0 l 745 0 l 745 444 l 241 444 l 241 0 l 127 0 l 127 972 l 241 972 l 241 546 l 745 546 l 745 972 l 859 972 l 859 0 m 488 1063 q 441 1082 461 1063 q 421 1130 421 1101 q 441 1176 421 1157 q 488 1195 460 1195 q 535 1176 516 1195 q 555 1130 555 1158 q 535 1082 555 1102 q 488 1063 516 1063 z "},"ḣ":{"ha":786,"x_min":113,"x_max":689,"o":"m 689 0 l 578 0 l 578 400 q 416 617 578 617 q 279 554 335 617 q 224 393 224 492 l 224 0 l 113 0 l 113 1028 l 224 1028 l 224 579 l 227 579 q 454 711 307 711 q 689 428 689 711 l 689 0 m 409 826 q 362 845 382 826 q 342 893 342 865 q 361 939 342 920 q 409 958 381 958 q 456 940 437 958 q 475 893 475 921 q 456 846 475 865 q 409 826 437 826 z "},"Ḥ":{"ha":986,"x_min":127,"x_max":859,"o":"m 859 0 l 745 0 l 745 444 l 241 444 l 241 0 l 127 0 l 127 972 l 241 972 l 241 546 l 745 546 l 745 972 l 859 972 l 859 0 m 502 -213 q 454 -193 474 -213 q 435 -146 435 -174 q 455 -99 435 -118 q 502 -81 475 -81 q 549 -99 530 -81 q 569 -146 569 -118 q 549 -193 569 -174 q 502 -213 530 -213 z "},"ḥ":{"ha":786,"x_min":113,"x_max":689,"o":"m 689 0 l 578 0 l 578 400 q 416 617 578 617 q 279 554 335 617 q 224 393 224 492 l 224 0 l 113 0 l 113 1028 l 224 1028 l 224 579 l 227 579 q 454 711 307 711 q 689 428 689 711 l 689 0 m 388 -213 q 340 -193 360 -213 q 321 -146 321 -174 q 341 -99 321 -118 q 388 -81 361 -81 q 435 -99 416 -81 q 455 -146 455 -118 q 435 -193 455 -174 q 388 -213 416 -213 z "},"Ḫ":{"ha":986,"x_min":127,"x_max":859,"o":"m 859 0 l 745 0 l 745 444 l 241 444 l 241 0 l 127 0 l 127 972 l 241 972 l 241 546 l 745 546 l 745 972 l 859 972 l 859 0 m 684 -81 q 624 -204 677 -157 q 494 -252 570 -252 q 365 -205 415 -252 q 311 -81 315 -158 l 379 -81 q 496 -186 387 -186 q 575 -157 542 -186 q 614 -81 608 -129 l 684 -81 z "},"ḫ":{"ha":786,"x_min":113,"x_max":689,"o":"m 689 0 l 578 0 l 578 400 q 416 617 578 617 q 279 554 335 617 q 224 393 224 492 l 224 0 l 113 0 l 113 1028 l 224 1028 l 224 579 l 227 579 q 454 711 307 711 q 689 428 689 711 l 689 0 m 597 -81 q 537 -204 591 -157 q 408 -252 484 -252 q 279 -205 329 -252 q 225 -81 229 -158 l 293 -81 q 410 -186 301 -186 q 489 -157 456 -186 q 528 -81 522 -129 l 597 -81 z "},"Ḩ":{"ha":986,"x_min":109,"x_max":859,"o":"m 859 0 l 745 0 l 745 444 l 241 444 l 241 0 l 127 0 l 127 972 l 241 972 l 241 546 l 745 546 l 745 972 l 859 972 l 859 0 m 339 -174 q 153 -293 339 -293 q 109 -292 127 -293 l 109 -231 q 156 -235 138 -235 q 252 -174 252 -235 q 164 -121 252 -121 q 136 -123 157 -121 l 136 0 l 210 0 l 210 -71 q 304 -98 269 -71 q 339 -174 339 -125 z "},"ḩ":{"ha":786,"x_min":95,"x_max":689,"o":"m 689 0 l 578 0 l 578 400 q 416 617 578 617 q 279 554 335 617 q 224 393 224 492 l 224 0 l 113 0 l 113 1028 l 224 1028 l 224 579 l 227 579 q 454 711 307 711 q 689 428 689 711 l 689 0 m 326 -174 q 139 -293 326 -293 q 95 -292 113 -293 l 95 -231 q 142 -235 124 -235 q 238 -174 238 -235 q 151 -121 238 -121 q 123 -123 144 -121 l 123 0 l 196 0 l 196 -71 q 291 -98 256 -71 q 326 -174 326 -125 z "},"Ħ":{"ha":986,"x_min":19,"x_max":967,"o":"m 859 0 l 745 0 l 745 444 l 241 444 l 241 0 l 127 0 l 127 697 l 19 697 l 19 800 l 127 800 l 127 972 l 241 972 l 241 800 l 745 800 l 745 972 l 859 972 l 859 800 l 967 800 l 967 697 l 859 697 l 859 0 m 241 697 l 241 546 l 745 546 l 745 697 l 241 697 z "},"ħ":{"ha":786,"x_min":20,"x_max":689,"o":"m 689 0 l 578 0 l 578 400 q 416 617 578 617 q 279 554 335 617 q 224 393 224 492 l 224 0 l 113 0 l 113 815 l 20 815 l 20 906 l 113 906 l 113 1028 l 224 1028 l 224 906 l 449 906 l 449 815 l 224 815 l 224 579 l 227 579 q 454 711 308 711 q 629 638 568 711 q 689 428 689 566 l 689 0 z "},"I":{"ha":370,"x_min":33,"x_max":336,"o":"m 336 972 l 336 875 l 241 875 l 241 98 l 336 98 l 336 0 l 33 0 l 33 98 l 127 98 l 127 875 l 33 875 l 33 972 l 336 972 z "},"i":{"ha":336,"x_min":98,"x_max":243,"o":"m 170 871 q 119 891 140 871 q 98 943 98 911 q 119 995 98 974 q 170 1015 140 1015 q 221 995 200 1015 q 243 943 243 974 q 221 892 243 913 q 170 871 200 871 m 224 0 l 113 0 l 113 694 l 224 694 l 224 0 z "},"Ì":{"ha":370,"x_min":19,"x_max":336,"o":"m 336 972 l 336 875 l 241 875 l 241 98 l 336 98 l 336 0 l 33 0 l 33 98 l 127 98 l 127 875 l 33 875 l 33 972 l 336 972 m 283 1062 l 197 1062 l 19 1284 l 133 1284 l 283 1062 z "},"ì":{"ha":336,"x_min":-13,"x_max":251,"o":"m 224 0 l 113 0 l 113 694 l 224 694 l 224 0 m 251 826 l 165 826 l -13 1048 l 101 1048 l 251 826 z "},"Í":{"ha":370,"x_min":33,"x_max":346,"o":"m 336 972 l 336 875 l 241 875 l 241 98 l 336 98 l 336 0 l 33 0 l 33 98 l 127 98 l 127 875 l 33 875 l 33 972 l 336 972 m 346 1284 l 168 1062 l 82 1062 l 233 1284 l 346 1284 z "},"í":{"ha":336,"x_min":60,"x_max":324,"o":"m 224 0 l 113 0 l 113 694 l 224 694 l 224 0 m 324 1048 l 146 826 l 60 826 l 212 1048 l 324 1048 z "},"Î":{"ha":370,"x_min":-2,"x_max":380,"o":"m 336 972 l 336 875 l 241 875 l 241 98 l 336 98 l 336 0 l 33 0 l 33 98 l 127 98 l 127 875 l 33 875 l 33 972 l 336 972 m 380 1063 l 298 1063 l 186 1219 l 75 1063 l -2 1063 l 144 1288 l 234 1288 l 380 1063 z "},"î":{"ha":336,"x_min":-28,"x_max":354,"o":"m 224 0 l 113 0 l 113 694 l 224 694 l 224 0 m 354 826 l 271 826 l 160 982 l 48 826 l -28 826 l 117 1051 l 208 1051 l 354 826 z "},"Ǐ":{"ha":370,"x_min":-5,"x_max":376,"o":"m 336 972 l 336 875 l 241 875 l 241 98 l 336 98 l 336 0 l 33 0 l 33 98 l 127 98 l 127 875 l 33 875 l 33 972 l 336 972 m 376 1282 l 231 1058 l 141 1058 l -5 1282 l 73 1282 l 184 1126 l 295 1282 l 376 1282 z "},"ǐ":{"ha":336,"x_min":-22,"x_max":359,"o":"m 224 0 l 113 0 l 113 694 l 224 694 l 224 0 m 359 1050 l 214 826 l 125 826 l -22 1050 l 56 1050 l 168 895 l 279 1050 l 359 1050 z "},"Ĩ":{"ha":370,"x_min":-32,"x_max":403,"o":"m 336 972 l 336 875 l 241 875 l 241 98 l 336 98 l 336 0 l 33 0 l 33 98 l 127 98 l 127 875 l 33 875 l 33 972 l 336 972 m 403 1223 q 370 1107 403 1152 q 282 1062 338 1062 q 172 1097 234 1062 q 92 1126 120 1126 q 32 1050 32 1126 l -32 1050 q 1 1166 -32 1122 q 92 1210 33 1210 q 193 1175 136 1210 q 279 1145 243 1145 q 336 1223 336 1145 l 403 1223 z "},"ĩ":{"ha":336,"x_min":-56,"x_max":379,"o":"m 224 0 l 113 0 l 113 694 l 224 694 l 224 0 m 379 989 q 347 872 379 918 q 258 827 314 827 q 149 863 210 827 q 68 892 96 892 q 8 815 8 892 l -56 815 q -23 931 -56 888 q 68 975 9 975 q 169 940 112 975 q 256 910 219 910 q 313 989 313 910 l 379 989 z "},"Ï":{"ha":370,"x_min":-9,"x_max":386,"o":"m 336 972 l 336 875 l 241 875 l 241 98 l 336 98 l 336 0 l 33 0 l 33 98 l 127 98 l 127 875 l 33 875 l 33 972 l 336 972 m 319 1062 q 273 1081 292 1062 q 253 1129 253 1100 q 272 1177 253 1158 q 318 1196 291 1196 q 366 1176 347 1196 q 386 1129 386 1157 q 367 1082 386 1101 q 319 1062 348 1062 m 59 1062 q 11 1082 31 1062 q -9 1129 -9 1102 q 10 1177 -9 1158 q 57 1196 29 1196 q 105 1176 85 1196 q 125 1129 125 1157 q 106 1082 125 1101 q 59 1062 86 1062 z "},"ï":{"ha":336,"x_min":-37,"x_max":358,"o":"m 224 0 l 113 0 l 113 694 l 224 694 l 224 0 m 292 826 q 245 845 264 826 q 225 893 225 864 q 244 941 225 922 q 290 960 263 960 q 338 940 319 960 q 358 893 358 921 q 339 846 358 865 q 292 826 320 826 m 31 826 q -17 846 3 826 q -37 893 -37 866 q -18 941 -37 922 q 29 960 1 960 q 77 940 57 960 q 98 893 98 921 q 78 846 98 865 q 31 826 58 826 z "},"Ḯ":{"ha":370,"x_min":-9,"x_max":386,"o":"m 336 972 l 336 875 l 241 875 l 241 98 l 336 98 l 336 0 l 33 0 l 33 98 l 127 98 l 127 875 l 33 875 l 33 972 l 336 972 m 319 1062 q 273 1081 292 1062 q 253 1129 253 1100 q 272 1177 253 1158 q 318 1196 291 1196 q 366 1176 347 1196 q 386 1129 386 1157 q 367 1082 386 1101 q 319 1062 348 1062 m 59 1062 q 11 1082 31 1062 q -9 1129 -9 1102 q 10 1177 -9 1158 q 57 1196 29 1196 q 105 1176 85 1196 q 125 1129 125 1157 q 106 1082 125 1101 q 59 1062 86 1062 m 133 1190 l 255 1357 l 369 1357 l 220 1190 l 133 1190 z "},"ḯ":{"ha":336,"x_min":-29,"x_max":366,"o":"m 224 0 l 113 0 l 113 694 l 224 694 l 224 0 m 300 826 q 253 845 273 826 q 233 893 233 864 q 252 941 233 922 q 298 960 271 960 q 347 940 327 960 q 366 893 366 921 q 347 846 366 865 q 300 826 328 826 m 39 826 q -9 846 11 826 q -29 893 -29 866 q -10 941 -29 922 q 37 960 9 960 q 85 940 65 960 q 106 893 106 921 q 86 846 106 865 q 39 826 66 826 m 113 954 l 235 1121 l 349 1121 l 200 954 l 113 954 z "},"Ī":{"ha":370,"x_min":14,"x_max":358,"o":"m 336 972 l 336 875 l 241 875 l 241 98 l 336 98 l 336 0 l 33 0 l 33 98 l 127 98 l 127 875 l 33 875 l 33 972 l 336 972 m 358 1062 l 14 1062 l 14 1136 l 358 1136 l 358 1062 z "},"ī":{"ha":336,"x_min":-11,"x_max":334,"o":"m 224 0 l 113 0 l 113 694 l 224 694 l 224 0 m 334 826 l -11 826 l -11 900 l 334 900 l 334 826 z "},"Ĭ":{"ha":370,"x_min":-1,"x_max":372,"o":"m 336 972 l 336 875 l 241 875 l 241 98 l 336 98 l 336 0 l 33 0 l 33 98 l 127 98 l 127 875 l 33 875 l 33 972 l 336 972 m 372 1233 q 312 1109 365 1156 q 182 1062 258 1062 q 53 1109 103 1062 q -1 1233 3 1156 l 67 1233 q 184 1128 75 1128 q 263 1156 230 1128 q 302 1233 296 1185 l 372 1233 z "},"ĭ":{"ha":336,"x_min":-24,"x_max":348,"o":"m 224 0 l 113 0 l 113 694 l 224 694 l 224 0 m 348 997 q 288 873 341 920 q 159 826 235 826 q 29 873 79 826 q -24 997 -21 920 l 43 997 q 160 892 52 892 q 239 920 206 892 q 279 997 272 949 l 348 997 z "},"Ȋ":{"ha":370,"x_min":-1,"x_max":370,"o":"m 336 972 l 336 875 l 241 875 l 241 98 l 336 98 l 336 0 l 33 0 l 33 98 l 127 98 l 127 875 l 33 875 l 33 972 l 336 972 m 370 1063 l 301 1063 q 262 1140 295 1112 q 183 1168 229 1168 q 66 1063 75 1168 l -1 1063 q 52 1187 1 1140 q 182 1234 102 1234 q 311 1187 258 1234 q 370 1063 363 1140 z "},"ȋ":{"ha":336,"x_min":-18,"x_max":354,"o":"m 224 0 l 113 0 l 113 694 l 224 694 l 224 0 m 354 826 l 285 826 q 246 903 279 875 q 167 932 213 932 q 50 826 58 932 l -18 826 q 36 950 -15 903 q 165 997 86 997 q 295 950 242 997 q 354 826 347 903 z "},"Ȉ":{"ha":370,"x_min":-83,"x_max":336,"o":"m 336 972 l 336 875 l 241 875 l 241 98 l 336 98 l 336 0 l 33 0 l 33 98 l 127 98 l 127 875 l 33 875 l 33 972 l 336 972 m 313 1063 l 248 1063 l 85 1279 l 173 1279 l 313 1063 m 149 1063 l 84 1063 l -83 1279 l 7 1279 l 149 1063 z "},"ȉ":{"ha":336,"x_min":-99,"x_max":297,"o":"m 224 0 l 113 0 l 113 694 l 224 694 l 224 0 m 297 826 l 231 826 l 69 1042 l 157 1042 l 297 826 m 133 826 l 68 826 l -99 1042 l -9 1042 l 133 826 z "},"Ḭ":{"ha":370,"x_min":-33,"x_max":402,"o":"m 336 972 l 336 875 l 241 875 l 241 98 l 336 98 l 336 0 l 33 0 l 33 98 l 127 98 l 127 875 l 33 875 l 33 972 l 336 972 m 402 -67 q 370 -183 402 -138 q 281 -229 337 -229 q 172 -193 233 -229 q 91 -164 119 -164 q 31 -241 31 -164 l -33 -241 q 0 -124 -33 -168 q 91 -81 33 -81 q 192 -116 135 -81 q 279 -146 242 -146 q 336 -67 336 -146 l 402 -67 z "},"ḭ":{"ha":336,"x_min":-47,"x_max":387,"o":"m 170 871 q 119 891 140 871 q 98 943 98 911 q 119 995 98 974 q 170 1015 140 1015 q 221 995 200 1015 q 243 943 243 974 q 221 892 243 913 q 170 871 200 871 m 224 0 l 113 0 l 113 694 l 224 694 l 224 0 m 387 -67 q 355 -183 387 -138 q 267 -229 322 -229 q 157 -193 218 -229 q 76 -164 104 -164 q 16 -241 16 -164 l -47 -241 q -15 -124 -47 -168 q 76 -81 18 -81 q 177 -116 120 -81 q 264 -146 227 -146 q 321 -67 321 -146 l 387 -67 z "},"Ị":{"ha":370,"x_min":33,"x_max":336,"o":"m 336 972 l 336 875 l 241 875 l 241 98 l 336 98 l 336 0 l 33 0 l 33 98 l 127 98 l 127 875 l 33 875 l 33 972 l 336 972 m 189 -213 q 141 -193 161 -213 q 121 -146 121 -174 q 142 -99 121 -118 q 189 -81 162 -81 q 236 -99 216 -81 q 256 -146 256 -118 q 236 -193 256 -174 q 189 -213 216 -213 z "},"ị":{"ha":336,"x_min":98,"x_max":243,"o":"m 170 871 q 119 891 140 871 q 98 943 98 911 q 119 995 98 974 q 170 1015 140 1015 q 221 995 200 1015 q 243 943 243 974 q 221 892 243 913 q 170 871 200 871 m 224 0 l 113 0 l 113 694 l 224 694 l 224 0 m 169 -213 q 121 -193 141 -213 q 102 -146 102 -174 q 122 -99 102 -118 q 169 -81 142 -81 q 216 -99 197 -81 q 236 -146 236 -118 q 216 -193 236 -174 q 169 -213 197 -213 z "},"Į":{"ha":370,"x_min":33,"x_max":336,"o":"m 336 972 l 336 875 l 241 875 l 241 98 l 336 98 l 336 0 l 33 0 l 33 98 l 127 98 l 127 875 l 33 875 l 33 972 l 336 972 m 290 0 q 188 -151 188 -96 q 234 -199 188 -199 q 272 -190 254 -199 l 272 -262 q 216 -271 252 -271 q 134 -244 165 -271 q 102 -170 102 -217 q 209 0 102 -87 l 290 0 z "},"į":{"ha":336,"x_min":38,"x_max":243,"o":"m 170 871 q 119 891 140 871 q 98 943 98 911 q 119 995 98 974 q 170 1015 140 1015 q 221 995 200 1015 q 243 943 243 974 q 221 892 243 913 q 170 871 200 871 m 224 0 l 113 0 l 113 694 l 224 694 l 224 0 m 225 0 q 123 -151 123 -96 q 170 -199 123 -199 q 208 -190 190 -199 l 208 -262 q 152 -271 187 -271 q 69 -244 100 -271 q 38 -170 38 -217 q 144 0 38 -87 l 225 0 z "},"İ":{"ha":370,"x_min":33,"x_max":336,"o":"m 336 972 l 336 875 l 241 875 l 241 98 l 336 98 l 336 0 l 33 0 l 33 98 l 127 98 l 127 875 l 33 875 l 33 972 l 336 972 m 184 1063 q 137 1082 157 1063 q 117 1130 117 1101 q 137 1176 117 1157 q 184 1195 157 1195 q 232 1176 212 1195 q 251 1130 251 1158 q 232 1082 251 1102 q 184 1063 212 1063 z "},"ı":{"ha":336,"x_min":113,"x_max":224,"o":"m 224 0 l 113 0 l 113 694 l 224 694 l 224 0 z "},"ɪ":{"ha":445,"x_min":52,"x_max":393,"o":"m 393 0 l 52 0 l 52 95 l 167 95 l 167 600 l 52 600 l 52 694 l 393 694 l 393 600 l 278 600 l 278 95 l 393 95 l 393 0 z "},"Ɨ":{"ha":370,"x_min":20,"x_max":350,"o":"m 336 972 l 336 875 l 241 875 l 241 546 l 350 546 l 350 444 l 241 444 l 241 98 l 336 98 l 336 0 l 33 0 l 33 98 l 127 98 l 127 444 l 20 444 l 20 546 l 127 546 l 127 875 l 33 875 l 33 972 l 336 972 z "},"ɨ":{"ha":363,"x_min":7,"x_max":357,"o":"m 184 871 q 133 891 155 871 q 111 943 111 911 q 133 995 111 974 q 184 1015 155 1015 q 236 995 216 1015 q 257 943 257 974 q 236 892 257 913 q 184 871 216 871 m 357 322 l 237 322 l 237 0 l 126 0 l 126 322 l 7 322 l 7 416 l 126 416 l 126 694 l 237 694 l 237 416 l 357 416 l 357 322 z "},"ᵻ":{"ha":445,"x_min":50,"x_max":395,"o":"m 395 321 l 278 321 l 278 95 l 393 95 l 393 0 l 52 0 l 52 95 l 167 95 l 167 321 l 50 321 l 50 395 l 167 395 l 167 600 l 52 600 l 52 694 l 393 694 l 393 600 l 278 600 l 278 395 l 395 395 l 395 321 z "},"Ĳ":{"ha":865,"x_min":33,"x_max":747,"o":"m 336 972 l 336 875 l 241 875 l 241 98 l 336 98 l 336 0 l 33 0 l 33 98 l 127 98 l 127 875 l 33 875 l 33 972 l 336 972 m 747 349 q 674 80 747 176 q 478 -16 601 -16 q 385 0 421 -16 l 385 113 q 479 86 421 86 q 633 347 633 86 l 633 972 l 747 972 l 747 349 z "},"ĳ":{"ha":688,"x_min":98,"x_max":594,"o":"m 170 871 q 119 891 140 871 q 98 943 98 911 q 119 995 98 974 q 170 1015 140 1015 q 221 995 200 1015 q 243 943 243 974 q 221 892 243 913 q 170 871 200 871 m 224 0 l 113 0 l 113 694 l 224 694 l 224 0 m 575 29 q 506 -234 575 -142 q 309 -327 437 -327 q 217 -305 262 -327 l 217 -201 q 312 -232 267 -232 q 464 11 464 -232 l 464 694 l 575 694 l 575 29 m 521 871 q 470 891 491 871 q 449 943 449 911 q 470 995 449 974 q 521 1015 491 1015 q 573 995 551 1015 q 594 943 594 974 q 573 892 594 913 q 521 871 551 871 z "},"Ɩ":{"ha":400,"x_min":125,"x_max":372,"o":"m 372 3 q 292 -12 332 -12 q 125 184 125 -12 l 125 972 l 239 972 l 239 187 q 309 90 239 90 q 372 104 342 90 l 372 3 z "},"ɩ":{"ha":387,"x_min":100,"x_max":379,"o":"m 379 5 q 278 -15 340 -15 q 100 186 100 -15 l 100 694 l 212 694 l 212 205 q 309 79 212 79 q 379 100 350 79 l 379 5 z "},"ᵼ":{"ha":370,"x_min":-3,"x_max":353,"o":"m 341 321 l 223 321 l 223 183 q 292 90 223 90 q 353 102 320 90 l 353 7 q 271 -8 311 -8 q 113 180 113 -8 l 113 321 l -3 321 l -3 395 l 113 395 l 113 694 l 223 694 l 223 395 l 341 395 l 341 321 z "},"J":{"ha":496,"x_min":14,"x_max":376,"o":"m 376 349 q 303 80 376 176 q 107 -16 230 -16 q 14 0 50 -16 l 14 113 q 109 86 50 86 q 262 347 262 86 l 262 972 l 376 972 l 376 349 z "},"j":{"ha":336,"x_min":-134,"x_max":243,"o":"m 224 29 q 155 -234 224 -142 q -42 -327 86 -327 q -134 -305 -90 -327 l -134 -201 q -39 -232 -84 -232 q 113 11 113 -232 l 113 694 l 224 694 l 224 29 m 170 871 q 119 891 140 871 q 98 943 98 911 q 119 995 98 974 q 170 1015 140 1015 q 221 995 200 1015 q 243 943 243 974 q 221 892 243 913 q 170 871 200 871 z "},"ȷ":{"ha":336,"x_min":-134,"x_max":224,"o":"m 224 29 q 206 -123 224 -56 q 155 -234 189 -189 q 72 -303 121 -279 q -42 -327 22 -327 q -134 -305 -89 -327 l -134 -201 q -39 -232 -85 -232 q 113 11 113 -232 l 113 694 l 224 694 l 224 29 z "},"Ĵ":{"ha":496,"x_min":14,"x_max":511,"o":"m 376 349 q 303 80 376 176 q 107 -16 230 -16 q 14 0 50 -16 l 14 113 q 109 86 50 86 q 262 347 262 86 l 262 972 l 376 972 l 376 349 m 511 1062 l 429 1062 l 317 1218 l 205 1062 l 129 1062 l 275 1287 l 365 1287 l 511 1062 z "},"ĵ":{"ha":336,"x_min":-134,"x_max":358,"o":"m 224 29 q 206 -123 224 -56 q 155 -234 189 -189 q 72 -303 121 -279 q -42 -327 22 -327 q -134 -305 -89 -327 l -134 -201 q -39 -232 -85 -232 q 113 11 113 -232 l 113 694 l 224 694 l 224 29 m 358 826 l 275 826 l 164 982 l 52 826 l -24 826 l 121 1051 l 212 1051 l 358 826 z "},"Ɉ":{"ha":496,"x_min":14,"x_max":475,"o":"m 376 349 q 303 80 376 176 q 107 -16 230 -16 q 14 0 50 -16 l 14 113 q 109 86 50 86 q 262 347 262 86 l 262 435 l 116 435 l 116 538 l 262 538 l 262 972 l 376 972 l 376 538 l 475 538 l 475 435 l 376 435 l 376 349 z "},"ɉ":{"ha":336,"x_min":-134,"x_max":317,"o":"m 224 29 q 155 -234 224 -142 q -42 -327 86 -327 q -134 -305 -90 -327 l -134 -201 q -39 -232 -84 -232 q 113 11 113 -232 l 113 291 l 19 291 l 19 382 l 113 382 l 113 694 l 224 694 l 224 382 l 317 382 l 317 291 l 224 291 l 224 29 m 170 871 q 119 891 140 871 q 98 943 98 911 q 119 995 98 974 q 170 1015 140 1015 q 221 995 200 1015 q 243 943 243 974 q 221 892 243 913 q 170 871 200 871 z "},"ɟ":{"ha":385,"x_min":-86,"x_max":366,"o":"m 366 322 l 248 322 l 248 -22 q 182 -247 248 -168 q -1 -327 116 -327 q -86 -309 -50 -327 l -86 -205 q 0 -232 -45 -232 q 138 -25 138 -232 l 138 322 l 19 322 l 19 416 l 138 416 l 138 694 l 248 694 l 248 416 l 366 416 l 366 322 z "},"K":{"ha":806,"x_min":127,"x_max":804,"o":"m 804 0 l 646 0 l 270 445 q 244 479 249 470 l 241 479 l 241 0 l 127 0 l 127 972 l 241 972 l 241 515 l 244 515 q 270 549 254 530 l 633 972 l 775 972 l 358 506 l 804 0 z "},"k":{"ha":690,"x_min":113,"x_max":689,"o":"m 689 0 l 533 0 l 227 334 l 224 334 l 224 0 l 113 0 l 113 1028 l 224 1028 l 224 376 l 227 376 l 518 694 l 664 694 l 342 359 l 689 0 z "},"Ḱ":{"ha":806,"x_min":127,"x_max":804,"o":"m 804 0 l 646 0 l 270 445 q 244 479 249 470 l 241 479 l 241 0 l 127 0 l 127 972 l 241 972 l 241 515 l 244 515 q 270 549 254 530 l 633 972 l 775 972 l 358 506 l 804 0 m 595 1284 l 418 1061 l 332 1061 l 483 1284 l 595 1284 z "},"ḱ":{"ha":690,"x_min":113,"x_max":689,"o":"m 689 0 l 533 0 l 227 334 l 224 334 l 224 0 l 113 0 l 113 1028 l 224 1028 l 224 376 l 227 376 l 518 694 l 664 694 l 342 359 l 689 0 m 509 1285 l 331 1063 l 245 1063 l 396 1285 l 509 1285 z "},"Ǩ":{"ha":806,"x_min":127,"x_max":804,"o":"m 804 0 l 646 0 l 270 445 q 244 479 249 470 l 241 479 l 241 0 l 127 0 l 127 972 l 241 972 l 241 515 l 244 515 q 270 549 254 530 l 633 972 l 775 972 l 358 506 l 804 0 m 600 1282 l 455 1058 l 366 1058 l 219 1282 l 297 1282 l 408 1126 l 519 1282 l 600 1282 z "},"ǩ":{"ha":690,"x_min":113,"x_max":689,"o":"m 689 0 l 533 0 l 227 334 l 224 334 l 224 0 l 113 0 l 113 1028 l 224 1028 l 224 376 l 227 376 l 518 694 l 664 694 l 342 359 l 689 0 m 538 1282 l 393 1058 l 303 1058 l 157 1282 l 235 1282 l 346 1126 l 457 1282 l 538 1282 z "},"Ḵ":{"ha":806,"x_min":127,"x_max":804,"o":"m 804 0 l 646 0 l 270 445 q 244 479 249 470 l 241 479 l 241 0 l 127 0 l 127 972 l 241 972 l 241 515 l 244 515 q 270 549 254 530 l 633 972 l 775 972 l 358 506 l 804 0 m 614 -152 l 270 -152 l 270 -78 l 614 -78 l 614 -152 z "},"ḵ":{"ha":690,"x_min":113,"x_max":689,"o":"m 689 0 l 533 0 l 227 334 l 224 334 l 224 0 l 113 0 l 113 1028 l 224 1028 l 224 376 l 227 376 l 518 694 l 664 694 l 342 359 l 689 0 m 561 -152 l 216 -152 l 216 -78 l 561 -78 l 561 -152 z "},"Ḳ":{"ha":806,"x_min":127,"x_max":804,"o":"m 804 0 l 646 0 l 270 445 q 244 479 249 470 l 241 479 l 241 0 l 127 0 l 127 972 l 241 972 l 241 515 l 244 515 q 270 549 254 530 l 633 972 l 775 972 l 358 506 l 804 0 m 433 -213 q 385 -193 405 -213 q 366 -146 366 -174 q 386 -99 366 -118 q 433 -81 406 -81 q 480 -99 460 -81 q 500 -146 500 -118 q 480 -193 500 -174 q 433 -213 460 -213 z "},"ḳ":{"ha":690,"x_min":113,"x_max":689,"o":"m 689 0 l 533 0 l 227 334 l 224 334 l 224 0 l 113 0 l 113 1028 l 224 1028 l 224 376 l 227 376 l 518 694 l 664 694 l 342 359 l 689 0 m 367 -213 q 319 -193 339 -213 q 300 -146 300 -174 q 320 -99 300 -118 q 367 -81 340 -81 q 414 -99 395 -81 q 434 -146 434 -118 q 414 -193 434 -174 q 367 -213 395 -213 z "},"Ķ":{"ha":806,"x_min":127,"x_max":804,"o":"m 804 0 l 646 0 l 270 445 q 244 479 249 470 l 241 479 l 241 0 l 127 0 l 127 972 l 241 972 l 241 515 l 244 515 q 270 549 254 530 l 633 972 l 775 972 l 358 506 l 804 0 m 503 -81 l 391 -257 l 307 -257 l 387 -81 l 503 -81 z "},"ķ":{"ha":690,"x_min":113,"x_max":689,"o":"m 689 0 l 533 0 l 227 334 l 224 334 l 224 0 l 113 0 l 113 1028 l 224 1028 l 224 376 l 227 376 l 518 694 l 664 694 l 342 359 l 689 0 m 436 -81 l 323 -257 l 240 -257 l 319 -81 l 436 -81 z "},"Ƙ":{"ha":806,"x_min":127,"x_max":804,"o":"m 804 0 l 646 0 l 270 445 q 244 479 249 470 l 241 479 l 241 0 l 127 0 l 127 972 l 241 972 l 241 515 l 244 515 l 458 800 q 604 958 554 928 q 717 989 654 989 q 792 971 755 989 l 792 865 q 712 886 754 886 q 578 782 658 886 l 363 503 l 804 0 z "},"ƙ":{"ha":692,"x_min":113,"x_max":689,"o":"m 689 0 l 533 0 l 227 334 l 224 334 l 224 0 l 113 0 l 113 815 q 173 981 113 919 q 328 1043 234 1043 q 408 1031 376 1043 l 408 930 q 335 949 371 949 q 224 808 224 949 l 224 376 l 227 376 l 518 694 l 664 694 l 342 359 l 689 0 z "},"L":{"ha":654,"x_min":127,"x_max":632,"o":"m 632 0 l 127 0 l 127 972 l 241 972 l 241 103 l 632 103 l 632 0 z "},"l":{"ha":336,"x_min":113,"x_max":224,"o":"m 224 0 l 113 0 l 113 1028 l 224 1028 l 224 0 z "},"Ĺ":{"ha":654,"x_min":127,"x_max":632,"o":"m 632 0 l 127 0 l 127 972 l 241 972 l 241 103 l 632 103 l 632 0 m 581 1284 l 403 1062 l 317 1062 l 468 1284 l 581 1284 z "},"ĺ":{"ha":336,"x_min":96,"x_max":360,"o":"m 224 0 l 113 0 l 113 1028 l 224 1028 l 224 0 m 360 1342 l 182 1120 l 96 1120 l 248 1342 l 360 1342 z "},"Ḹ":{"ha":654,"x_min":127,"x_max":632,"o":"m 632 0 l 127 0 l 127 972 l 241 972 l 241 103 l 632 103 l 632 0 m 527 1063 l 182 1063 l 182 1137 l 527 1137 l 527 1063 m 370 -213 q 323 -193 342 -213 q 303 -146 303 -174 q 323 -99 303 -118 q 370 -81 344 -81 q 418 -99 398 -81 q 437 -146 437 -118 q 418 -193 437 -174 q 370 -213 398 -213 z "},"ḹ":{"ha":336,"x_min":-3,"x_max":341,"o":"m 224 0 l 113 0 l 113 1028 l 224 1028 l 224 0 m 341 1103 l -3 1103 l -3 1177 l 341 1177 l 341 1103 m 168 -213 q 121 -193 140 -213 q 101 -146 101 -174 q 121 -99 101 -118 q 168 -81 142 -81 q 216 -99 196 -81 q 235 -146 235 -118 q 216 -193 235 -174 q 168 -213 196 -213 z "},"Ľ":{"ha":654,"x_min":127,"x_max":632,"o":"m 592 989 l 497 686 l 417 686 l 492 989 l 592 989 m 632 0 l 127 0 l 127 972 l 241 972 l 241 103 l 632 103 l 632 0 z "},"ľ":{"ha":427,"x_min":113,"x_max":481,"o":"m 481 1025 l 387 723 l 307 723 l 382 1025 l 481 1025 m 224 0 l 113 0 l 113 1028 l 224 1028 l 224 0 z "},"Ḽ":{"ha":654,"x_min":127,"x_max":632,"o":"m 632 0 l 127 0 l 127 972 l 241 972 l 241 103 l 632 103 l 632 0 m 572 -305 l 489 -305 l 378 -149 l 266 -305 l 189 -305 l 335 -80 l 425 -80 l 572 -305 z "},"ḽ":{"ha":336,"x_min":-22,"x_max":361,"o":"m 224 0 l 113 0 l 113 1028 l 224 1028 l 224 0 m 361 -304 l 278 -304 l 167 -149 l 55 -304 l -22 -304 l 124 -79 l 214 -79 l 361 -304 z "},"Ḻ":{"ha":654,"x_min":127,"x_max":632,"o":"m 632 0 l 127 0 l 127 972 l 241 972 l 241 103 l 632 103 l 632 0 m 561 -152 l 216 -152 l 216 -78 l 561 -78 l 561 -152 z "},"ḻ":{"ha":336,"x_min":-2,"x_max":342,"o":"m 224 0 l 113 0 l 113 1028 l 224 1028 l 224 0 m 342 -152 l -2 -152 l -2 -78 l 342 -78 l 342 -152 z "},"Ḷ":{"ha":654,"x_min":127,"x_max":632,"o":"m 632 0 l 127 0 l 127 972 l 241 972 l 241 103 l 632 103 l 632 0 m 370 -213 q 323 -193 342 -213 q 303 -146 303 -174 q 323 -99 303 -118 q 370 -81 344 -81 q 418 -99 398 -81 q 437 -146 437 -118 q 418 -193 437 -174 q 370 -213 398 -213 z "},"ḷ":{"ha":336,"x_min":102,"x_max":236,"o":"m 224 0 l 113 0 l 113 1028 l 224 1028 l 224 0 m 169 -213 q 121 -193 141 -213 q 102 -146 102 -174 q 122 -99 102 -118 q 169 -81 142 -81 q 216 -99 197 -81 q 236 -146 236 -118 q 216 -193 236 -174 q 169 -213 197 -213 z "},"Ļ":{"ha":654,"x_min":127,"x_max":632,"o":"m 632 0 l 127 0 l 127 972 l 241 972 l 241 103 l 632 103 l 632 0 m 456 -81 l 343 -257 l 260 -257 l 339 -81 l 456 -81 z "},"ļ":{"ha":336,"x_min":41,"x_max":237,"o":"m 224 0 l 113 0 l 113 1028 l 224 1028 l 224 0 m 237 -81 l 124 -257 l 41 -257 l 120 -81 l 237 -81 z "},"Ŀ":{"ha":654,"x_min":127,"x_max":632,"o":"m 632 0 l 127 0 l 127 972 l 241 972 l 241 103 l 632 103 l 632 0 m 499 452 q 452 472 472 452 q 432 519 432 491 q 452 566 432 547 q 499 585 471 585 q 546 566 527 585 q 566 519 566 547 q 546 472 566 492 q 499 452 527 452 z "},"ŀ":{"ha":437,"x_min":113,"x_max":439,"o":"m 224 0 l 113 0 l 113 1028 l 224 1028 l 224 0 m 372 452 q 325 472 345 452 q 305 519 305 491 q 325 566 305 547 q 372 585 345 585 q 419 566 400 585 q 439 519 439 547 q 419 472 439 492 q 372 452 400 452 z "},"Ł":{"ha":654,"x_min":22,"x_max":632,"o":"m 632 0 l 127 0 l 127 371 l 22 305 l 22 408 l 127 473 l 127 972 l 241 972 l 241 545 l 464 682 l 464 578 l 241 442 l 241 103 l 632 103 l 632 0 z "},"ł":{"ha":380,"x_min":15,"x_max":359,"o":"m 359 550 l 241 467 l 241 0 l 130 0 l 130 392 l 15 311 l 15 418 l 130 498 l 130 1028 l 241 1028 l 241 574 l 359 656 l 359 550 z "},"Ƚ":{"ha":654,"x_min":12,"x_max":632,"o":"m 357 471 l 241 471 l 241 103 l 632 103 l 632 0 l 127 0 l 127 471 l 12 471 l 12 545 l 127 545 l 127 972 l 241 972 l 241 545 l 357 545 l 357 471 z "},"ƚ":{"ha":336,"x_min":14,"x_max":322,"o":"m 322 480 l 224 480 l 224 0 l 113 0 l 113 480 l 14 480 l 14 575 l 113 575 l 113 1028 l 224 1028 l 224 575 l 322 575 l 322 480 z "},"Ɫ":{"ha":711,"x_min":26,"x_max":690,"o":"m 690 0 l 185 0 l 185 972 l 299 972 l 299 103 l 690 103 l 690 0 m 461 538 q 429 421 461 467 q 340 376 396 376 q 231 412 292 376 q 150 441 178 441 q 90 364 90 441 l 26 364 q 59 480 26 437 q 150 524 92 524 q 251 489 194 524 q 338 459 301 459 q 395 538 395 459 l 461 538 z "},"ɫ":{"ha":389,"x_min":-14,"x_max":403,"o":"m 403 494 q 297 456 357 456 q 245 463 272 456 l 245 0 l 134 0 l 134 494 q 87 503 104 503 q -14 456 35 503 l -14 557 q 92 597 35 597 q 134 591 109 597 l 134 1028 l 245 1028 l 245 559 q 301 550 276 550 q 403 597 354 550 l 403 494 z "},"M":{"ha":1247,"x_min":127,"x_max":1119,"o":"m 1119 0 l 1006 0 l 1006 652 q 1015 842 1006 730 l 1013 842 q 983 747 996 776 l 651 0 l 595 0 l 264 742 q 235 842 250 774 l 232 842 q 237 651 237 783 l 237 0 l 127 0 l 127 972 l 278 972 l 576 294 q 621 178 611 216 l 625 178 q 672 297 654 258 l 977 972 l 1119 972 l 1119 0 z "},"m":{"ha":1196,"x_min":113,"x_max":1099,"o":"m 1099 0 l 987 0 l 987 399 q 952 566 987 514 q 832 617 916 617 q 711 552 761 617 q 661 396 661 487 l 661 0 l 550 0 l 550 412 q 392 617 550 617 q 271 556 319 617 q 224 396 224 494 l 224 0 l 113 0 l 113 694 l 224 694 l 224 585 l 227 585 q 442 711 300 711 q 566 671 513 711 q 639 567 619 631 q 869 711 716 711 q 1099 428 1099 711 l 1099 0 z "},"Ḿ":{"ha":1247,"x_min":127,"x_max":1119,"o":"m 1119 0 l 1006 0 l 1006 652 q 1015 842 1006 730 l 1013 842 q 983 747 996 776 l 651 0 l 595 0 l 264 742 q 235 842 250 774 l 232 842 q 237 651 237 783 l 237 0 l 127 0 l 127 972 l 278 972 l 576 294 q 621 178 611 216 l 625 178 q 672 297 654 258 l 977 972 l 1119 972 l 1119 0 m 751 1285 l 574 1063 l 488 1063 l 639 1285 l 751 1285 z "},"ḿ":{"ha":1196,"x_min":113,"x_max":1099,"o":"m 1099 0 l 987 0 l 987 399 q 952 566 987 514 q 832 617 916 617 q 711 552 761 617 q 661 396 661 487 l 661 0 l 550 0 l 550 412 q 392 617 550 617 q 271 556 319 617 q 224 396 224 494 l 224 0 l 113 0 l 113 694 l 224 694 l 224 585 l 227 585 q 442 711 300 711 q 566 671 513 711 q 639 567 619 631 q 869 711 716 711 q 1099 428 1099 711 l 1099 0 m 736 1048 l 559 826 l 473 826 l 624 1048 l 736 1048 z "},"Ṁ":{"ha":1247,"x_min":127,"x_max":1119,"o":"m 1119 0 l 1006 0 l 1006 652 q 1015 842 1006 730 l 1013 842 q 983 747 996 776 l 651 0 l 595 0 l 264 742 q 235 842 250 774 l 232 842 q 237 651 237 783 l 237 0 l 127 0 l 127 972 l 278 972 l 576 294 q 621 178 611 216 l 625 178 q 672 297 654 258 l 977 972 l 1119 972 l 1119 0 m 569 1063 q 522 1082 542 1063 q 502 1130 502 1101 q 522 1176 502 1157 q 569 1195 541 1195 q 616 1176 597 1195 q 635 1130 635 1158 q 616 1082 635 1102 q 569 1063 597 1063 z "},"ṁ":{"ha":1196,"x_min":113,"x_max":1099,"o":"m 1099 0 l 987 0 l 987 399 q 952 566 987 514 q 832 617 916 617 q 711 552 761 617 q 661 396 661 487 l 661 0 l 550 0 l 550 412 q 392 617 550 617 q 271 556 319 617 q 224 396 224 494 l 224 0 l 113 0 l 113 694 l 224 694 l 224 585 l 227 585 q 442 711 300 711 q 566 671 513 711 q 639 567 619 631 q 869 711 716 711 q 1099 428 1099 711 l 1099 0 m 604 826 q 557 845 577 826 q 537 893 537 865 q 557 939 537 920 q 604 958 576 958 q 651 940 632 958 q 671 893 671 921 q 651 846 671 865 q 604 826 632 826 z "},"Ṃ":{"ha":1247,"x_min":127,"x_max":1119,"o":"m 1119 0 l 1006 0 l 1006 652 q 1015 842 1006 730 l 1013 842 q 983 747 996 776 l 651 0 l 595 0 l 264 742 q 235 842 250 774 l 232 842 q 237 651 237 783 l 237 0 l 127 0 l 127 972 l 278 972 l 576 294 q 621 178 611 216 l 625 178 q 672 297 654 258 l 977 972 l 1119 972 l 1119 0 m 569 -213 q 522 -193 541 -213 q 502 -146 502 -174 q 522 -99 502 -118 q 569 -81 543 -81 q 616 -99 597 -81 q 636 -146 636 -118 q 616 -193 636 -174 q 569 -213 597 -213 z "},"ṃ":{"ha":1196,"x_min":113,"x_max":1099,"o":"m 1099 0 l 987 0 l 987 399 q 952 566 987 514 q 832 617 916 617 q 711 552 761 617 q 661 396 661 487 l 661 0 l 550 0 l 550 412 q 392 617 550 617 q 271 556 319 617 q 224 396 224 494 l 224 0 l 113 0 l 113 694 l 224 694 l 224 585 l 227 585 q 442 711 300 711 q 566 671 513 711 q 639 567 619 631 q 869 711 716 711 q 1099 428 1099 711 l 1099 0 m 605 -213 q 557 -193 577 -213 q 538 -146 538 -174 q 558 -99 538 -118 q 605 -81 578 -81 q 652 -99 633 -81 q 672 -146 672 -118 q 652 -193 672 -174 q 605 -213 633 -213 z "},"Ɱ":{"ha":1247,"x_min":127,"x_max":1119,"o":"m 1006 652 q 1008 738 1006 691 q 1015 842 1010 785 l 1013 842 q 983 747 996 774 l 651 0 l 595 0 l 264 742 q 235 842 250 773 l 232 842 q 236 765 235 812 q 237 651 237 718 l 237 0 l 127 0 l 127 972 l 278 972 l 576 294 q 621 178 611 216 l 625 178 q 652 248 640 218 q 672 297 663 277 l 977 972 l 1119 972 l 1119 3 q 871 -327 1119 -327 q 779 -306 820 -327 l 779 -194 q 874 -224 832 -224 q 972 -178 939 -224 q 1006 -41 1006 -133 l 1006 652 z "},"ɱ":{"ha":1196,"x_min":113,"x_max":1099,"o":"m 987 -16 l 987 399 q 952 566 987 514 q 832 617 916 617 q 711 552 761 617 q 661 396 661 487 l 661 0 l 550 0 l 550 412 q 392 617 550 617 q 271 556 319 617 q 224 396 224 494 l 224 0 l 113 0 l 113 694 l 224 694 l 224 585 l 227 585 q 442 711 300 711 q 566 671 513 711 q 639 567 619 631 q 869 711 716 711 q 1099 428 1099 711 l 1099 -3 q 1034 -243 1099 -159 q 852 -327 969 -327 q 764 -309 800 -327 l 764 -205 q 852 -232 806 -232 q 987 -16 987 -232 z "},"N":{"ha":1039,"x_min":127,"x_max":911,"o":"m 911 0 l 772 0 l 271 775 q 240 836 252 804 l 236 836 q 241 703 241 805 l 241 0 l 127 0 l 127 972 l 275 972 l 762 210 q 802 144 793 162 l 804 144 q 798 288 798 186 l 798 972 l 911 972 l 911 0 z "},"n":{"ha":786,"x_min":113,"x_max":689,"o":"m 689 0 l 578 0 l 578 396 q 416 617 578 617 q 278 554 333 617 q 224 396 224 492 l 224 0 l 113 0 l 113 694 l 224 694 l 224 579 l 227 579 q 454 711 305 711 q 629 637 568 711 q 689 425 689 564 l 689 0 z "},"Ǹ":{"ha":1039,"x_min":127,"x_max":911,"o":"m 911 0 l 772 0 l 271 775 q 240 836 252 804 l 236 836 q 241 703 241 805 l 241 0 l 127 0 l 127 972 l 275 972 l 762 210 q 802 144 793 162 l 804 144 q 798 288 798 186 l 798 972 l 911 972 l 911 0 m 578 1063 l 492 1063 l 314 1286 l 428 1286 l 578 1063 z "},"ǹ":{"ha":786,"x_min":113,"x_max":689,"o":"m 689 0 l 578 0 l 578 396 q 416 617 578 617 q 278 554 333 617 q 224 396 224 492 l 224 0 l 113 0 l 113 694 l 224 694 l 224 579 l 227 579 q 454 711 305 711 q 629 637 568 711 q 689 425 689 564 l 689 0 m 457 826 l 371 826 l 193 1048 l 307 1048 l 457 826 z "},"Ń":{"ha":1039,"x_min":127,"x_max":911,"o":"m 911 0 l 772 0 l 271 775 q 240 836 252 804 l 236 836 q 241 703 241 805 l 241 0 l 127 0 l 127 972 l 275 972 l 762 210 q 802 144 793 162 l 804 144 q 798 288 798 186 l 798 972 l 911 972 l 911 0 m 682 1284 l 505 1062 l 418 1062 l 570 1284 l 682 1284 z "},"ń":{"ha":786,"x_min":113,"x_max":689,"o":"m 689 0 l 578 0 l 578 396 q 416 617 578 617 q 278 554 333 617 q 224 396 224 492 l 224 0 l 113 0 l 113 694 l 224 694 l 224 579 l 227 579 q 454 711 305 711 q 629 637 568 711 q 689 425 689 564 l 689 0 m 567 1048 l 389 826 l 303 826 l 454 1048 l 567 1048 z "},"Ň":{"ha":1039,"x_min":127,"x_max":911,"o":"m 911 0 l 772 0 l 271 775 q 240 836 252 804 l 236 836 q 241 703 241 805 l 241 0 l 127 0 l 127 972 l 275 972 l 762 210 q 802 144 793 162 l 804 144 q 798 288 798 186 l 798 972 l 911 972 l 911 0 m 709 1286 l 564 1062 l 475 1062 l 328 1286 l 406 1286 l 517 1131 l 629 1286 l 709 1286 z "},"ň":{"ha":786,"x_min":113,"x_max":689,"o":"m 689 0 l 578 0 l 578 396 q 416 617 578 617 q 278 554 333 617 q 224 396 224 492 l 224 0 l 113 0 l 113 694 l 224 694 l 224 579 l 227 579 q 454 711 305 711 q 629 637 568 711 q 689 425 689 564 l 689 0 m 598 1050 l 453 826 l 363 826 l 217 1050 l 295 1050 l 406 895 l 517 1050 l 598 1050 z "},"Ñ":{"ha":1039,"x_min":127,"x_max":911,"o":"m 911 0 l 772 0 l 271 775 q 240 836 252 804 l 236 836 q 241 703 241 805 l 241 0 l 127 0 l 127 972 l 275 972 l 762 210 q 802 144 793 162 l 804 144 q 798 288 798 186 l 798 972 l 911 972 l 911 0 m 755 1223 q 722 1106 755 1152 q 634 1061 690 1061 q 524 1097 586 1061 q 444 1126 472 1126 q 384 1049 384 1126 l 320 1049 q 353 1165 320 1122 q 444 1209 385 1209 q 545 1174 488 1209 q 631 1144 595 1144 q 688 1223 688 1144 l 755 1223 z "},"ñ":{"ha":786,"x_min":113,"x_max":689,"o":"m 689 0 l 578 0 l 578 396 q 416 617 578 617 q 278 554 333 617 q 224 396 224 492 l 224 0 l 113 0 l 113 694 l 224 694 l 224 579 l 227 579 q 454 711 305 711 q 629 637 568 711 q 689 425 689 564 l 689 0 m 616 989 q 583 872 616 918 q 495 827 551 827 q 385 863 447 827 q 304 892 333 892 q 245 815 245 892 l 181 815 q 214 931 181 888 q 304 975 246 975 q 406 940 349 975 q 492 910 456 910 q 549 989 549 910 l 616 989 z "},"Ṅ":{"ha":1039,"x_min":127,"x_max":911,"o":"m 911 0 l 772 0 l 271 775 q 240 836 252 804 l 236 836 q 241 703 241 805 l 241 0 l 127 0 l 127 972 l 275 972 l 762 210 q 802 144 793 162 l 804 144 q 798 288 798 186 l 798 972 l 911 972 l 911 0 m 514 1063 q 467 1083 487 1063 q 447 1131 447 1102 q 467 1177 447 1158 q 514 1196 486 1196 q 561 1177 542 1196 q 581 1131 581 1158 q 561 1083 581 1103 q 514 1063 542 1063 z "},"ṅ":{"ha":786,"x_min":113,"x_max":689,"o":"m 689 0 l 578 0 l 578 396 q 416 617 578 617 q 278 554 333 617 q 224 396 224 492 l 224 0 l 113 0 l 113 694 l 224 694 l 224 579 l 227 579 q 454 711 305 711 q 629 637 568 711 q 689 425 689 564 l 689 0 m 408 826 q 360 845 380 826 q 340 893 340 865 q 360 939 340 920 q 408 958 380 958 q 455 940 435 958 q 474 893 474 921 q 455 846 474 865 q 408 826 435 826 z "},"Ṋ":{"ha":1039,"x_min":127,"x_max":911,"o":"m 911 0 l 772 0 l 271 775 q 240 836 252 804 l 236 836 q 241 703 241 805 l 241 0 l 127 0 l 127 972 l 275 972 l 762 210 q 802 144 793 162 l 804 144 q 798 288 798 186 l 798 972 l 911 972 l 911 0 m 717 -306 l 634 -306 l 523 -150 l 411 -306 l 334 -306 l 480 -81 l 570 -81 l 717 -306 z "},"ṋ":{"ha":786,"x_min":113,"x_max":689,"o":"m 689 0 l 578 0 l 578 396 q 416 617 578 617 q 278 554 333 617 q 224 396 224 492 l 224 0 l 113 0 l 113 694 l 224 694 l 224 579 l 227 579 q 454 711 305 711 q 629 637 568 711 q 689 425 689 564 l 689 0 m 598 -306 l 515 -306 l 404 -150 l 292 -306 l 216 -306 l 361 -81 l 452 -81 l 598 -306 z "},"Ṉ":{"ha":1039,"x_min":127,"x_max":911,"o":"m 911 0 l 772 0 l 271 775 q 240 836 252 804 l 236 836 q 241 703 241 805 l 241 0 l 127 0 l 127 972 l 275 972 l 762 210 q 802 144 793 162 l 804 144 q 798 288 798 186 l 798 972 l 911 972 l 911 0 m 690 -152 l 345 -152 l 345 -78 l 690 -78 l 690 -152 z "},"ṉ":{"ha":786,"x_min":113,"x_max":689,"o":"m 689 0 l 578 0 l 578 396 q 416 617 578 617 q 278 554 333 617 q 224 396 224 492 l 224 0 l 113 0 l 113 694 l 224 694 l 224 579 l 227 579 q 454 711 305 711 q 629 637 568 711 q 689 425 689 564 l 689 0 m 581 -152 l 237 -152 l 237 -78 l 581 -78 l 581 -152 z "},"Ṇ":{"ha":1039,"x_min":127,"x_max":911,"o":"m 911 0 l 772 0 l 271 775 q 240 836 252 804 l 236 836 q 241 703 241 805 l 241 0 l 127 0 l 127 972 l 275 972 l 762 210 q 802 144 793 162 l 804 144 q 798 288 798 186 l 798 972 l 911 972 l 911 0 m 513 -213 q 466 -193 486 -213 q 446 -146 446 -174 q 467 -99 446 -118 q 513 -81 487 -81 q 561 -99 541 -81 q 581 -146 581 -118 q 561 -193 581 -174 q 513 -213 541 -213 z "},"ṇ":{"ha":786,"x_min":113,"x_max":689,"o":"m 689 0 l 578 0 l 578 396 q 416 617 578 617 q 278 554 333 617 q 224 396 224 492 l 224 0 l 113 0 l 113 694 l 224 694 l 224 579 l 227 579 q 454 711 305 711 q 629 637 568 711 q 689 425 689 564 l 689 0 m 408 -213 q 360 -193 380 -213 q 340 -146 340 -174 q 361 -99 340 -118 q 408 -81 381 -81 q 455 -99 435 -81 q 475 -146 475 -118 q 455 -193 475 -174 q 408 -213 435 -213 z "},"Ņ":{"ha":1039,"x_min":127,"x_max":911,"o":"m 911 0 l 772 0 l 271 775 q 240 836 252 804 l 236 836 q 241 703 241 805 l 241 0 l 127 0 l 127 972 l 275 972 l 762 210 q 802 144 793 162 l 804 144 q 798 288 798 186 l 798 972 l 911 972 l 911 0 m 590 -81 l 477 -257 l 394 -257 l 473 -81 l 590 -81 z "},"ņ":{"ha":786,"x_min":113,"x_max":689,"o":"m 689 0 l 578 0 l 578 396 q 416 617 578 617 q 278 554 333 617 q 224 396 224 492 l 224 0 l 113 0 l 113 694 l 224 694 l 224 579 l 227 579 q 454 711 305 711 q 629 637 568 711 q 689 425 689 564 l 689 0 m 470 -81 l 357 -257 l 274 -257 l 353 -81 l 470 -81 z "},"ŉ":{"ha":842,"x_min":-27,"x_max":745,"o":"m 745 0 l 633 0 l 633 396 q 472 617 633 617 q 334 554 389 617 q 279 396 279 492 l 279 0 l 168 0 l 168 694 l 279 694 l 279 579 l 282 579 q 510 711 361 711 q 684 637 624 711 q 745 425 745 564 l 745 0 m 148 989 l 53 686 l -27 686 l 48 989 l 148 989 z "},"Ŋ":{"ha":1019,"x_min":127,"x_max":895,"o":"m 241 795 l 245 795 q 568 989 352 989 q 708 962 647 989 q 810 885 768 936 q 873 759 852 833 q 895 587 895 684 l 895 265 q 665 -16 895 -16 q 584 -3 623 -16 l 584 106 q 660 86 618 86 q 781 265 781 86 l 781 557 q 541 886 781 886 q 421 860 476 886 q 326 789 366 834 q 264 683 286 744 q 241 550 241 621 l 241 0 l 127 0 l 127 972 l 241 972 l 241 795 z "},"ŋ":{"ha":786,"x_min":113,"x_max":689,"o":"m 689 18 q 446 -286 689 -286 q 353 -265 395 -286 l 353 -153 q 449 -183 406 -183 q 578 0 578 -183 l 578 396 q 416 617 578 617 q 279 554 334 617 q 224 396 224 492 l 224 0 l 113 0 l 113 694 l 224 694 l 224 579 l 227 579 q 454 711 306 711 q 689 425 689 711 l 689 18 z "},"Ɲ":{"ha":1039,"x_min":-69,"x_max":913,"o":"m 913 0 l 772 0 l 271 775 q 240 836 252 804 l 236 836 q 241 703 241 805 l 241 36 q 12 -245 241 -245 q -69 -232 -32 -245 l -69 -123 q 7 -143 -35 -143 q 127 36 127 -143 l 127 972 l 275 972 l 762 210 q 802 144 793 162 l 804 144 q 798 288 798 186 l 798 972 l 913 972 l 913 0 z "},"ɲ":{"ha":772,"x_min":-72,"x_max":689,"o":"m 689 0 l 578 0 l 578 396 q 418 617 578 617 q 279 554 334 617 q 224 396 224 492 l 224 -100 q 163 -266 224 -204 q 8 -327 102 -327 q -72 -314 -41 -327 l -72 -214 q 1 -232 -35 -232 q 113 -93 113 -232 l 113 694 l 224 694 l 224 579 l 227 579 q 456 711 305 711 q 689 425 689 711 l 689 0 z "},"ɳ":{"ha":772,"x_min":113,"x_max":873,"o":"m 873 -308 q 785 -327 830 -327 q 631 -268 685 -327 q 578 -100 578 -208 l 578 396 q 418 617 578 617 q 279 554 334 617 q 224 396 224 492 l 224 0 l 113 0 l 113 694 l 224 694 l 224 579 l 227 579 q 456 711 305 711 q 689 425 689 711 l 689 -96 q 798 -232 689 -232 q 873 -214 838 -232 l 873 -308 z "},"Ƞ":{"ha":1019,"x_min":127,"x_max":895,"o":"m 895 -319 l 781 -319 l 781 557 q 541 886 781 886 q 326 790 411 886 q 241 550 241 694 l 241 0 l 127 0 l 127 972 l 241 972 l 241 795 l 245 795 q 568 989 353 989 q 810 885 726 989 q 895 587 895 781 l 895 -319 z "},"ƞ":{"ha":799,"x_min":89,"x_max":689,"o":"m 689 -274 l 576 -274 l 576 388 q 416 610 576 610 q 278 550 332 610 q 224 399 224 490 l 224 0 l 113 0 l 113 471 q 89 694 113 633 l 203 694 q 221 576 221 646 l 224 576 q 454 711 300 711 q 628 638 568 711 q 689 428 689 566 l 689 -274 z "},"O":{"ha":1047,"x_min":64,"x_max":983,"o":"m 519 -16 q 188 120 313 -16 q 64 475 64 256 q 191 849 64 709 q 536 989 317 989 q 860 853 737 989 q 983 498 983 718 q 857 122 983 260 q 519 -16 731 -16 m 528 886 q 279 775 374 886 q 183 485 183 665 q 276 196 183 305 q 519 86 370 86 q 772 191 680 86 q 864 483 864 295 q 774 781 864 675 q 528 886 685 886 z "},"o":{"ha":814,"x_min":65,"x_max":749,"o":"m 403 -16 q 157 81 249 -16 q 65 339 65 178 q 161 612 65 514 q 419 711 256 711 q 662 615 574 711 q 749 350 749 519 q 655 84 749 184 q 403 -16 561 -16 m 411 617 q 241 544 304 617 q 179 343 179 471 q 242 149 179 220 q 411 77 305 77 q 577 147 519 77 q 635 346 635 217 q 577 547 635 476 q 411 617 519 617 z "},"Ò":{"ha":1047,"x_min":64,"x_max":983,"o":"m 519 -16 q 188 120 313 -16 q 64 475 64 256 q 191 849 64 709 q 536 989 317 989 q 860 853 737 989 q 983 498 983 718 q 857 122 983 260 q 519 -16 731 -16 m 528 886 q 279 775 374 886 q 183 485 183 665 q 276 196 183 305 q 519 86 370 86 q 772 191 680 86 q 864 483 864 295 q 774 781 864 675 q 528 886 685 886 m 597 1062 l 511 1062 l 333 1284 l 447 1284 l 597 1062 z "},"ò":{"ha":814,"x_min":65,"x_max":749,"o":"m 403 -16 q 157 81 249 -16 q 65 339 65 178 q 161 612 65 514 q 419 711 256 711 q 662 615 574 711 q 749 350 749 519 q 655 84 749 184 q 403 -16 561 -16 m 411 617 q 241 544 304 617 q 179 343 179 471 q 242 149 179 220 q 411 77 305 77 q 577 147 519 77 q 635 346 635 217 q 577 547 635 476 q 411 617 519 617 m 507 826 l 420 826 l 243 1048 l 357 1048 l 507 826 z "},"Ó":{"ha":1047,"x_min":64,"x_max":983,"o":"m 519 -16 q 188 120 313 -16 q 64 475 64 256 q 191 849 64 709 q 536 989 317 989 q 860 853 737 989 q 983 498 983 718 q 857 122 983 260 q 519 -16 731 -16 m 528 886 q 279 775 374 886 q 183 485 183 665 q 276 196 183 305 q 519 86 370 86 q 772 191 680 86 q 864 483 864 295 q 774 781 864 675 q 528 886 685 886 m 697 1284 l 519 1062 l 433 1062 l 585 1284 l 697 1284 z "},"ó":{"ha":814,"x_min":65,"x_max":749,"o":"m 403 -16 q 157 81 249 -16 q 65 339 65 178 q 161 612 65 514 q 419 711 256 711 q 662 615 574 711 q 749 350 749 519 q 655 84 749 184 q 403 -16 561 -16 m 411 617 q 241 544 304 617 q 179 343 179 471 q 242 149 179 220 q 411 77 305 77 q 577 147 519 77 q 635 346 635 217 q 577 547 635 476 q 411 617 519 617 m 574 1048 l 396 826 l 310 826 l 461 1048 l 574 1048 z "},"Ô":{"ha":1047,"x_min":64,"x_max":983,"o":"m 519 -16 q 188 120 313 -16 q 64 475 64 256 q 191 849 64 709 q 536 989 317 989 q 860 853 737 989 q 983 498 983 718 q 857 122 983 260 q 519 -16 731 -16 m 528 886 q 279 775 374 886 q 183 485 183 665 q 276 196 183 305 q 519 86 370 86 q 772 191 680 86 q 864 483 864 295 q 774 781 864 675 q 528 886 685 886 m 721 1062 l 638 1062 l 527 1218 l 415 1062 l 338 1062 l 484 1287 l 574 1287 l 721 1062 z "},"ô":{"ha":814,"x_min":65,"x_max":749,"o":"m 403 -16 q 157 81 249 -16 q 65 339 65 178 q 161 612 65 514 q 419 711 256 711 q 662 615 574 711 q 749 350 749 519 q 655 84 749 184 q 403 -16 561 -16 m 411 617 q 241 544 304 617 q 179 343 179 471 q 242 149 179 220 q 411 77 305 77 q 577 147 519 77 q 635 346 635 217 q 577 547 635 476 q 411 617 519 617 m 600 826 l 517 826 l 406 982 l 294 826 l 218 826 l 363 1051 l 454 1051 l 600 826 z "},"Ǒ":{"ha":1047,"x_min":64,"x_max":983,"o":"m 519 -16 q 188 120 313 -16 q 64 475 64 256 q 191 849 64 709 q 536 989 317 989 q 860 853 737 989 q 983 498 983 718 q 857 122 983 260 q 519 -16 731 -16 m 528 886 q 279 775 374 886 q 183 485 183 665 q 276 196 183 305 q 519 86 370 86 q 772 191 680 86 q 864 483 864 295 q 774 781 864 675 q 528 886 685 886 m 714 1282 l 569 1058 l 479 1058 l 333 1282 l 411 1282 l 522 1126 l 633 1282 l 714 1282 z "},"ǒ":{"ha":814,"x_min":65,"x_max":749,"o":"m 403 -16 q 157 81 249 -16 q 65 339 65 178 q 161 612 65 514 q 419 711 256 711 q 662 615 574 711 q 749 350 749 519 q 655 84 749 184 q 403 -16 561 -16 m 411 617 q 241 544 304 617 q 179 343 179 471 q 242 149 179 220 q 411 77 305 77 q 577 147 519 77 q 635 346 635 217 q 577 547 635 476 q 411 617 519 617 m 597 1050 l 452 826 l 363 826 l 216 1050 l 294 1050 l 406 895 l 517 1050 l 597 1050 z "},"Õ":{"ha":1047,"x_min":64,"x_max":983,"o":"m 519 -16 q 188 120 313 -16 q 64 475 64 256 q 191 849 64 709 q 536 989 317 989 q 860 853 737 989 q 983 498 983 718 q 857 122 983 260 q 519 -16 731 -16 m 528 886 q 279 775 374 886 q 183 485 183 665 q 276 196 183 305 q 519 86 370 86 q 772 191 680 86 q 864 483 864 295 q 774 781 864 675 q 528 886 685 886 m 748 1222 q 715 1106 748 1151 q 627 1061 683 1061 q 517 1096 579 1061 q 437 1125 465 1125 q 377 1048 377 1125 l 313 1048 q 346 1165 313 1121 q 437 1208 378 1208 q 538 1173 481 1208 q 625 1143 588 1143 q 682 1222 682 1143 l 748 1222 z "},"õ":{"ha":814,"x_min":65,"x_max":749,"o":"m 403 -16 q 157 81 249 -16 q 65 339 65 178 q 161 612 65 514 q 419 711 256 711 q 662 615 574 711 q 749 350 749 519 q 655 84 749 184 q 403 -16 561 -16 m 411 617 q 241 544 304 617 q 179 343 179 471 q 242 149 179 220 q 411 77 305 77 q 577 147 519 77 q 635 346 635 217 q 577 547 635 476 q 411 617 519 617 m 631 989 q 599 872 631 918 q 511 827 566 827 q 401 863 463 827 q 320 892 349 892 q 260 815 260 892 l 197 815 q 229 931 197 888 q 320 975 262 975 q 421 940 364 975 q 508 910 471 910 q 565 989 565 910 l 631 989 z "},"Ṍ":{"ha":1047,"x_min":64,"x_max":983,"o":"m 519 -16 q 188 120 313 -16 q 64 475 64 256 q 191 849 64 709 q 536 989 317 989 q 860 853 737 989 q 983 498 983 718 q 857 122 983 260 q 519 -16 731 -16 m 528 886 q 279 775 374 886 q 183 485 183 665 q 276 196 183 305 q 519 86 370 86 q 772 191 680 86 q 864 483 864 295 q 774 781 864 675 q 528 886 685 886 m 748 1208 q 715 1092 748 1137 q 627 1047 683 1047 q 517 1082 579 1047 q 437 1112 465 1112 q 377 1035 377 1112 l 313 1035 q 346 1151 313 1107 q 437 1195 378 1195 q 538 1160 481 1195 q 625 1130 588 1130 q 682 1208 682 1130 l 748 1208 m 442 1227 l 564 1394 l 678 1394 l 529 1227 l 442 1227 z "},"ṍ":{"ha":814,"x_min":65,"x_max":749,"o":"m 403 -16 q 157 81 249 -16 q 65 339 65 178 q 161 612 65 514 q 419 711 256 711 q 662 615 574 711 q 749 350 749 519 q 655 84 749 184 q 403 -16 561 -16 m 411 617 q 241 544 304 617 q 179 343 179 471 q 242 149 179 220 q 411 77 305 77 q 577 147 519 77 q 635 346 635 217 q 577 547 635 476 q 411 617 519 617 m 618 969 q 586 853 618 898 q 498 808 553 808 q 388 843 450 808 q 307 872 336 872 q 248 795 248 872 l 184 795 q 216 912 184 868 q 307 956 249 956 q 408 920 351 956 q 495 890 458 890 q 552 969 552 890 l 618 969 m 313 987 l 435 1154 l 549 1154 l 399 987 l 313 987 z "},"Ṏ":{"ha":1047,"x_min":64,"x_max":983,"o":"m 519 -16 q 188 120 313 -16 q 64 475 64 256 q 191 849 64 709 q 536 989 317 989 q 860 853 737 989 q 983 498 983 718 q 857 122 983 260 q 519 -16 731 -16 m 528 886 q 279 775 374 886 q 183 485 183 665 q 276 196 183 305 q 519 86 370 86 q 772 191 680 86 q 864 483 864 295 q 774 781 864 675 q 528 886 685 886 m 748 1208 q 715 1092 748 1137 q 627 1047 683 1047 q 517 1082 579 1047 q 437 1112 465 1112 q 377 1035 377 1112 l 313 1035 q 346 1151 313 1107 q 437 1195 378 1195 q 538 1160 481 1195 q 625 1130 588 1130 q 682 1208 682 1130 l 748 1208 m 653 1255 q 606 1274 626 1255 q 587 1322 587 1293 q 606 1370 587 1351 q 652 1389 625 1389 q 700 1370 680 1389 q 720 1322 720 1350 q 701 1275 720 1295 q 653 1255 682 1255 m 393 1255 q 344 1275 364 1255 q 324 1322 324 1295 q 343 1370 324 1351 q 391 1389 363 1389 q 439 1370 418 1389 q 459 1322 459 1350 q 439 1275 459 1295 q 393 1255 420 1255 z "},"ṏ":{"ha":814,"x_min":65,"x_max":749,"o":"m 403 -16 q 157 81 249 -16 q 65 339 65 178 q 161 612 65 514 q 419 711 256 711 q 662 615 574 711 q 749 350 749 519 q 655 84 749 184 q 403 -16 561 -16 m 411 617 q 241 544 304 617 q 179 343 179 471 q 242 149 179 220 q 411 77 305 77 q 577 147 519 77 q 635 346 635 217 q 577 547 635 476 q 411 617 519 617 m 618 969 q 586 853 618 898 q 498 808 553 808 q 388 843 450 808 q 307 872 336 872 q 248 795 248 872 l 184 795 q 216 912 184 868 q 307 956 249 956 q 408 920 351 956 q 495 890 458 890 q 552 969 552 890 l 618 969 m 545 1025 q 498 1044 517 1025 q 478 1092 478 1063 q 497 1139 478 1120 q 543 1158 516 1158 q 591 1139 572 1158 q 611 1092 611 1120 q 592 1044 611 1064 q 545 1025 573 1025 m 284 1025 q 236 1045 256 1025 q 216 1092 216 1065 q 235 1139 216 1120 q 282 1158 254 1158 q 330 1139 310 1158 q 351 1092 351 1120 q 331 1044 351 1064 q 284 1025 311 1025 z "},"Ȭ":{"ha":1047,"x_min":64,"x_max":983,"o":"m 519 -16 q 188 120 313 -16 q 64 475 64 256 q 191 849 64 709 q 536 989 317 989 q 860 853 737 989 q 983 498 983 718 q 857 122 983 260 q 519 -16 731 -16 m 528 886 q 279 775 374 886 q 183 485 183 665 q 276 196 183 305 q 519 86 370 86 q 772 191 680 86 q 864 483 864 295 q 774 781 864 675 q 528 886 685 886 m 748 1208 q 715 1092 748 1137 q 627 1047 683 1047 q 517 1082 579 1047 q 437 1112 465 1112 q 377 1035 377 1112 l 313 1035 q 346 1151 313 1107 q 437 1195 378 1195 q 538 1160 481 1195 q 625 1130 588 1130 q 682 1208 682 1130 l 748 1208 m 697 1267 l 353 1267 l 353 1341 l 697 1341 l 697 1267 z "},"ȭ":{"ha":814,"x_min":65,"x_max":749,"o":"m 403 -16 q 157 81 249 -16 q 65 339 65 178 q 161 612 65 514 q 419 711 256 711 q 662 615 574 711 q 749 350 749 519 q 655 84 749 184 q 403 -16 561 -16 m 411 617 q 241 544 304 617 q 179 343 179 471 q 242 149 179 220 q 411 77 305 77 q 577 147 519 77 q 635 346 635 217 q 577 547 635 476 q 411 617 519 617 m 619 969 q 587 853 619 898 q 498 808 554 808 q 389 843 450 808 q 308 872 336 872 q 248 795 248 872 l 184 795 q 217 912 184 868 q 308 956 250 956 q 409 920 352 956 q 496 890 459 890 q 553 969 553 890 l 619 969 m 568 1027 l 224 1027 l 224 1101 l 568 1101 l 568 1027 z "},"Ö":{"ha":1047,"x_min":64,"x_max":983,"o":"m 519 -16 q 188 120 313 -16 q 64 475 64 256 q 191 849 64 709 q 536 989 317 989 q 860 853 737 989 q 983 498 983 718 q 857 122 983 260 q 519 -16 731 -16 m 528 886 q 279 775 374 886 q 183 485 183 665 q 276 196 183 305 q 519 86 370 86 q 772 191 680 86 q 864 483 864 295 q 774 781 864 675 q 528 886 685 886 m 656 1060 q 610 1079 629 1060 q 590 1127 590 1098 q 609 1175 590 1156 q 655 1194 628 1194 q 703 1174 684 1194 q 723 1127 723 1155 q 704 1080 723 1099 q 656 1060 685 1060 m 396 1060 q 348 1080 368 1060 q 328 1127 328 1100 q 347 1175 328 1156 q 394 1194 366 1194 q 442 1174 422 1194 q 463 1127 463 1155 q 443 1080 463 1099 q 396 1060 423 1060 z "},"ö":{"ha":814,"x_min":65,"x_max":749,"o":"m 403 -16 q 157 81 249 -16 q 65 339 65 178 q 161 612 65 514 q 419 711 256 711 q 662 615 574 711 q 749 350 749 519 q 655 84 749 184 q 403 -16 561 -16 m 411 617 q 241 544 304 617 q 179 343 179 471 q 242 149 179 220 q 411 77 305 77 q 577 147 519 77 q 635 346 635 217 q 577 547 635 476 q 411 617 519 617 m 538 826 q 491 845 511 826 q 471 893 471 864 q 490 941 471 922 q 536 960 509 960 q 585 940 565 960 q 604 893 604 921 q 585 846 604 865 q 538 826 566 826 m 277 826 q 229 846 249 826 q 209 893 209 866 q 228 941 209 922 q 275 960 248 960 q 323 940 303 960 q 344 893 344 921 q 324 846 344 865 q 277 826 304 826 z "},"Ȫ":{"ha":1047,"x_min":64,"x_max":983,"o":"m 519 -16 q 188 120 313 -16 q 64 475 64 256 q 191 849 64 709 q 536 989 317 989 q 860 853 737 989 q 983 498 983 718 q 857 122 983 260 q 519 -16 731 -16 m 528 886 q 279 775 374 886 q 183 485 183 665 q 276 196 183 305 q 519 86 370 86 q 772 191 680 86 q 864 483 864 295 q 774 781 864 675 q 528 886 685 886 m 656 1060 q 610 1079 629 1060 q 590 1127 590 1098 q 609 1175 590 1156 q 655 1194 628 1194 q 703 1174 684 1194 q 723 1127 723 1155 q 704 1080 723 1099 q 656 1060 685 1060 m 396 1060 q 348 1080 368 1060 q 328 1127 328 1100 q 347 1175 328 1156 q 394 1194 366 1194 q 442 1174 422 1194 q 463 1127 463 1155 q 443 1080 463 1099 q 396 1060 423 1060 m 700 1251 l 355 1251 l 355 1324 l 700 1324 l 700 1251 z "},"ȫ":{"ha":814,"x_min":65,"x_max":749,"o":"m 403 -16 q 157 81 249 -16 q 65 339 65 178 q 161 612 65 514 q 419 711 256 711 q 662 615 574 711 q 749 350 749 519 q 655 84 749 184 q 403 -16 561 -16 m 411 617 q 241 544 304 617 q 179 343 179 471 q 242 149 179 220 q 411 77 305 77 q 577 147 519 77 q 635 346 635 217 q 577 547 635 476 q 411 617 519 617 m 538 826 q 491 845 511 826 q 471 893 471 864 q 490 941 471 922 q 536 960 509 960 q 585 940 565 960 q 604 893 604 921 q 585 846 604 865 q 538 826 566 826 m 277 826 q 229 846 249 826 q 209 893 209 866 q 228 941 209 922 q 275 960 248 960 q 323 940 303 960 q 344 893 344 921 q 324 846 344 865 q 277 826 304 826 m 579 1007 l 235 1007 l 235 1081 l 579 1081 l 579 1007 z "},"Ō":{"ha":1047,"x_min":64,"x_max":983,"o":"m 519 -16 q 188 120 313 -16 q 64 475 64 256 q 191 849 64 709 q 536 989 317 989 q 860 853 737 989 q 983 498 983 718 q 857 122 983 260 q 519 -16 731 -16 m 528 886 q 279 775 374 886 q 183 485 183 665 q 276 196 183 305 q 519 86 370 86 q 772 191 680 86 q 864 483 864 295 q 774 781 864 675 q 528 886 685 886 m 700 1062 l 355 1062 l 355 1136 l 700 1136 l 700 1062 z "},"ō":{"ha":814,"x_min":65,"x_max":749,"o":"m 403 -16 q 157 81 249 -16 q 65 339 65 178 q 161 612 65 514 q 419 711 256 711 q 662 615 574 711 q 749 350 749 519 q 655 84 749 184 q 403 -16 561 -16 m 411 617 q 241 544 304 617 q 179 343 179 471 q 242 149 179 220 q 411 77 305 77 q 577 147 519 77 q 635 346 635 217 q 577 547 635 476 q 411 617 519 617 m 586 826 l 241 826 l 241 900 l 586 900 l 586 826 z "},"Ŏ":{"ha":1047,"x_min":64,"x_max":983,"o":"m 519 -16 q 188 120 313 -16 q 64 475 64 256 q 191 849 64 709 q 536 989 317 989 q 860 853 737 989 q 983 498 983 718 q 857 122 983 260 q 519 -16 731 -16 m 528 886 q 279 775 374 886 q 183 485 183 665 q 276 196 183 305 q 519 86 370 86 q 772 191 680 86 q 864 483 864 295 q 774 781 864 675 q 528 886 685 886 m 717 1234 q 657 1111 710 1158 q 528 1063 604 1063 q 398 1110 448 1063 q 345 1234 348 1157 l 412 1234 q 529 1129 420 1129 q 608 1158 575 1129 q 648 1234 641 1186 l 717 1234 z "},"ŏ":{"ha":814,"x_min":65,"x_max":749,"o":"m 403 -16 q 157 81 249 -16 q 65 339 65 178 q 161 612 65 514 q 419 711 256 711 q 662 615 574 711 q 749 350 749 519 q 655 84 749 184 q 403 -16 561 -16 m 411 617 q 241 544 304 617 q 179 343 179 471 q 242 149 179 220 q 411 77 305 77 q 577 147 519 77 q 635 346 635 217 q 577 547 635 476 q 411 617 519 617 m 607 997 q 547 873 600 920 q 418 826 494 826 q 288 873 338 826 q 235 997 238 920 l 302 997 q 419 892 311 892 q 498 920 465 892 q 538 997 531 949 l 607 997 z "},"Ȏ":{"ha":1047,"x_min":64,"x_max":983,"o":"m 519 -16 q 188 120 313 -16 q 64 475 64 256 q 191 849 64 709 q 536 989 317 989 q 860 853 737 989 q 983 498 983 718 q 857 122 983 260 q 519 -16 731 -16 m 528 886 q 279 775 374 886 q 183 485 183 665 q 276 196 183 305 q 519 86 370 86 q 772 191 680 86 q 864 483 864 295 q 774 781 864 675 q 528 886 685 886 m 711 1063 l 642 1063 q 603 1140 635 1112 q 524 1168 570 1168 q 407 1063 415 1168 l 339 1063 q 392 1187 342 1140 q 522 1234 443 1234 q 651 1187 599 1234 q 711 1063 704 1140 z "},"ȏ":{"ha":814,"x_min":65,"x_max":749,"o":"m 403 -16 q 157 81 249 -16 q 65 339 65 178 q 161 612 65 514 q 419 711 256 711 q 662 615 574 711 q 749 350 749 519 q 655 84 749 184 q 403 -16 561 -16 m 411 617 q 241 544 304 617 q 179 343 179 471 q 242 149 179 220 q 411 77 305 77 q 577 147 519 77 q 635 346 635 217 q 577 547 635 476 q 411 617 519 617 m 598 826 l 529 826 q 490 903 523 875 q 411 932 457 932 q 294 826 302 932 l 227 826 q 280 950 229 903 q 410 997 330 997 q 539 950 486 997 q 598 826 591 903 z "},"Ṑ":{"ha":1047,"x_min":64,"x_max":983,"o":"m 519 -16 q 188 120 313 -16 q 64 475 64 256 q 191 849 64 709 q 536 989 317 989 q 860 853 737 989 q 983 498 983 718 q 857 122 983 260 q 519 -16 731 -16 m 528 886 q 279 775 374 886 q 183 485 183 665 q 276 196 183 305 q 519 86 370 86 q 772 191 680 86 q 864 483 864 295 q 774 781 864 675 q 528 886 685 886 m 700 1062 l 355 1062 l 355 1136 l 700 1136 l 700 1062 m 599 1189 l 513 1189 l 363 1356 l 477 1356 l 599 1189 z "},"ṑ":{"ha":814,"x_min":65,"x_max":749,"o":"m 403 -16 q 157 81 249 -16 q 65 339 65 178 q 161 612 65 514 q 419 711 256 711 q 662 615 574 711 q 749 350 749 519 q 655 84 749 184 q 403 -16 561 -16 m 411 617 q 241 544 304 617 q 179 343 179 471 q 242 149 179 220 q 411 77 305 77 q 577 147 519 77 q 635 346 635 217 q 577 547 635 476 q 411 617 519 617 m 586 826 l 241 826 l 241 900 l 586 900 l 586 826 m 481 952 l 395 952 l 245 1119 l 359 1119 l 481 952 z "},"Ṓ":{"ha":1047,"x_min":64,"x_max":983,"o":"m 519 -16 q 188 120 313 -16 q 64 475 64 256 q 191 849 64 709 q 536 989 317 989 q 860 853 737 989 q 983 498 983 718 q 857 122 983 260 q 519 -16 731 -16 m 528 886 q 279 775 374 886 q 183 485 183 665 q 276 196 183 305 q 519 86 370 86 q 772 191 680 86 q 864 483 864 295 q 774 781 864 675 q 528 886 685 886 m 700 1062 l 355 1062 l 355 1136 l 700 1136 l 700 1062 m 450 1189 l 572 1356 l 686 1356 l 536 1189 l 450 1189 z "},"ṓ":{"ha":814,"x_min":65,"x_max":749,"o":"m 403 -16 q 157 81 249 -16 q 65 339 65 178 q 161 612 65 514 q 419 711 256 711 q 662 615 574 711 q 749 350 749 519 q 655 84 749 184 q 403 -16 561 -16 m 411 617 q 241 544 304 617 q 179 343 179 471 q 242 149 179 220 q 411 77 305 77 q 577 147 519 77 q 635 346 635 217 q 577 547 635 476 q 411 617 519 617 m 586 826 l 241 826 l 241 900 l 586 900 l 586 826 m 326 953 l 448 1120 l 562 1120 l 412 953 l 326 953 z "},"Ȯ":{"ha":1047,"x_min":64,"x_max":983,"o":"m 519 -16 q 188 120 313 -16 q 64 475 64 256 q 191 849 64 709 q 536 989 317 989 q 860 853 737 989 q 983 498 983 718 q 857 122 983 260 q 519 -16 731 -16 m 528 886 q 279 775 374 886 q 183 485 183 665 q 276 196 183 305 q 519 86 370 86 q 772 191 680 86 q 864 483 864 295 q 774 781 864 675 q 528 886 685 886 m 524 1068 q 477 1087 497 1068 q 457 1135 457 1107 q 477 1181 457 1162 q 524 1200 496 1200 q 571 1182 552 1200 q 591 1135 591 1163 q 571 1088 591 1107 q 524 1068 552 1068 z "},"ȯ":{"ha":814,"x_min":65,"x_max":749,"o":"m 403 -16 q 157 81 249 -16 q 65 339 65 178 q 161 612 65 514 q 419 711 256 711 q 662 615 574 711 q 749 350 749 519 q 655 84 749 184 q 403 -16 561 -16 m 411 617 q 241 544 304 617 q 179 343 179 471 q 242 149 179 220 q 411 77 305 77 q 577 147 519 77 q 635 346 635 217 q 577 547 635 476 q 411 617 519 617 m 408 826 q 360 845 380 826 q 340 893 340 865 q 360 939 340 920 q 408 958 380 958 q 455 940 435 958 q 474 893 474 921 q 455 846 474 865 q 408 826 435 826 z "},"Ȱ":{"ha":1047,"x_min":64,"x_max":983,"o":"m 519 -16 q 188 120 313 -16 q 64 475 64 256 q 191 849 64 709 q 536 989 317 989 q 860 853 737 989 q 983 498 983 718 q 857 122 983 260 q 519 -16 731 -16 m 528 886 q 279 775 374 886 q 183 485 183 665 q 276 196 183 305 q 519 86 370 86 q 772 191 680 86 q 864 483 864 295 q 774 781 864 675 q 528 886 685 886 m 524 1068 q 477 1087 497 1068 q 457 1135 457 1107 q 477 1181 457 1162 q 524 1200 496 1200 q 571 1182 552 1200 q 591 1135 591 1163 q 571 1088 591 1107 q 524 1068 552 1068 m 700 1244 l 355 1244 l 355 1318 l 700 1318 l 700 1244 z "},"ȱ":{"ha":814,"x_min":65,"x_max":749,"o":"m 403 -16 q 157 81 249 -16 q 65 339 65 178 q 161 612 65 514 q 419 711 256 711 q 662 615 574 711 q 749 350 749 519 q 655 84 749 184 q 403 -16 561 -16 m 411 617 q 241 544 304 617 q 179 343 179 471 q 242 149 179 220 q 411 77 305 77 q 577 147 519 77 q 635 346 635 217 q 577 547 635 476 q 411 617 519 617 m 408 826 q 360 845 380 826 q 340 893 340 865 q 360 939 340 920 q 408 958 380 958 q 455 940 435 958 q 474 893 474 921 q 455 846 474 865 q 408 826 435 826 m 586 1004 l 241 1004 l 241 1078 l 586 1078 l 586 1004 z "},"Ȍ":{"ha":1047,"x_min":64,"x_max":983,"o":"m 519 -16 q 188 120 313 -16 q 64 475 64 256 q 191 849 64 709 q 536 989 317 989 q 860 853 737 989 q 983 498 983 718 q 857 122 983 260 q 519 -16 731 -16 m 528 886 q 279 775 374 886 q 183 485 183 665 q 276 196 183 305 q 519 86 370 86 q 772 191 680 86 q 864 483 864 295 q 774 781 864 675 q 528 886 685 886 m 644 1063 l 578 1063 l 416 1279 l 504 1279 l 644 1063 m 480 1063 l 415 1063 l 248 1279 l 338 1279 l 480 1063 z "},"ȍ":{"ha":814,"x_min":65,"x_max":749,"o":"m 403 -16 q 157 81 249 -16 q 65 339 65 178 q 161 612 65 514 q 419 711 256 711 q 662 615 574 711 q 749 350 749 519 q 655 84 749 184 q 403 -16 561 -16 m 411 617 q 241 544 304 617 q 179 343 179 471 q 242 149 179 220 q 411 77 305 77 q 577 147 519 77 q 635 346 635 217 q 577 547 635 476 q 411 617 519 617 m 526 826 l 460 826 l 298 1042 l 386 1042 l 526 826 m 362 826 l 297 826 l 130 1042 l 220 1042 l 362 826 z "},"Ő":{"ha":1047,"x_min":64,"x_max":983,"o":"m 519 -16 q 188 120 313 -16 q 64 475 64 256 q 191 849 64 709 q 536 989 317 989 q 860 853 737 989 q 983 498 983 718 q 857 122 983 260 q 519 -16 731 -16 m 528 886 q 279 775 374 886 q 183 485 183 665 q 276 196 183 305 q 519 86 370 86 q 772 191 680 86 q 864 483 864 295 q 774 781 864 675 q 528 886 685 886 m 765 1279 l 599 1063 l 533 1063 l 675 1279 l 765 1279 m 597 1279 l 435 1063 l 370 1063 l 509 1279 l 597 1279 z "},"ő":{"ha":814,"x_min":65,"x_max":749,"o":"m 403 -16 q 157 81 249 -16 q 65 339 65 178 q 161 612 65 514 q 419 711 256 711 q 662 615 574 711 q 749 350 749 519 q 655 84 749 184 q 403 -16 561 -16 m 411 617 q 241 544 304 617 q 179 343 179 471 q 242 149 179 220 q 411 77 305 77 q 577 147 519 77 q 635 346 635 217 q 577 547 635 476 q 411 617 519 617 m 655 1042 l 489 826 l 423 826 l 565 1042 l 655 1042 m 488 1042 l 325 826 l 260 826 l 399 1042 l 488 1042 z "},"Ọ":{"ha":1047,"x_min":64,"x_max":983,"o":"m 519 -16 q 188 120 313 -16 q 64 475 64 256 q 191 849 64 709 q 536 989 317 989 q 860 853 737 989 q 983 498 983 718 q 857 122 983 260 q 519 -16 731 -16 m 528 886 q 279 775 374 886 q 183 485 183 665 q 276 196 183 305 q 519 86 370 86 q 772 191 680 86 q 864 483 864 295 q 774 781 864 675 q 528 886 685 886 m 519 -213 q 471 -193 491 -213 q 452 -146 452 -174 q 472 -99 452 -118 q 519 -81 492 -81 q 566 -99 547 -81 q 586 -146 586 -118 q 566 -193 586 -174 q 519 -213 547 -213 z "},"ọ":{"ha":814,"x_min":65,"x_max":749,"o":"m 403 -16 q 157 81 249 -16 q 65 339 65 178 q 161 612 65 514 q 419 711 256 711 q 662 615 574 711 q 749 350 749 519 q 655 84 749 184 q 403 -16 561 -16 m 411 617 q 241 544 304 617 q 179 343 179 471 q 242 149 179 220 q 411 77 305 77 q 577 147 519 77 q 635 346 635 217 q 577 547 635 476 q 411 617 519 617 m 409 -213 q 361 -193 381 -213 q 342 -146 342 -174 q 362 -99 342 -118 q 409 -81 382 -81 q 456 -99 437 -81 q 476 -146 476 -118 q 456 -193 476 -174 q 409 -213 437 -213 z "},"Ǫ":{"ha":1047,"x_min":64,"x_max":983,"o":"m 519 -16 q 188 120 313 -16 q 64 475 64 256 q 191 849 64 709 q 536 989 317 989 q 860 853 737 989 q 983 498 983 718 q 857 122 983 260 q 519 -16 731 -16 m 528 886 q 279 775 374 886 q 183 485 183 665 q 276 196 183 305 q 519 86 370 86 q 772 191 680 86 q 864 483 864 295 q 774 781 864 675 q 528 886 685 886 m 584 0 q 482 -151 482 -96 q 528 -199 482 -199 q 566 -190 549 -199 l 566 -262 q 511 -271 546 -271 q 428 -244 459 -271 q 397 -170 397 -217 q 503 0 397 -87 l 584 0 z "},"ǫ":{"ha":814,"x_min":65,"x_max":749,"o":"m 403 -16 q 157 81 249 -16 q 65 339 65 178 q 161 612 65 514 q 419 711 256 711 q 662 615 574 711 q 749 350 749 519 q 655 84 749 184 q 403 -16 561 -16 m 411 617 q 241 544 304 617 q 179 343 179 471 q 242 149 179 220 q 411 77 305 77 q 577 147 519 77 q 635 346 635 217 q 577 547 635 476 q 411 617 519 617 m 472 0 q 370 -151 370 -96 q 416 -199 370 -199 q 454 -190 437 -199 l 454 -262 q 399 -271 434 -271 q 316 -244 347 -271 q 285 -170 285 -217 q 391 0 285 -87 l 472 0 z "},"Ǭ":{"ha":1047,"x_min":64,"x_max":983,"o":"m 519 -16 q 188 120 313 -16 q 64 475 64 256 q 191 849 64 709 q 536 989 317 989 q 860 853 737 989 q 983 498 983 718 q 857 122 983 260 q 519 -16 731 -16 m 528 886 q 279 775 374 886 q 183 485 183 665 q 276 196 183 305 q 519 86 370 86 q 772 191 680 86 q 864 483 864 295 q 774 781 864 675 q 528 886 685 886 m 584 0 q 482 -151 482 -96 q 528 -199 482 -199 q 566 -190 549 -199 l 566 -262 q 511 -271 546 -271 q 428 -244 459 -271 q 397 -170 397 -217 q 503 0 397 -87 l 584 0 m 703 1063 l 358 1063 l 358 1137 l 703 1137 l 703 1063 z "},"ǭ":{"ha":814,"x_min":65,"x_max":749,"o":"m 403 -16 q 157 81 249 -16 q 65 339 65 178 q 161 612 65 514 q 419 711 256 711 q 662 615 574 711 q 749 350 749 519 q 655 84 749 184 q 403 -16 561 -16 m 411 617 q 241 544 304 617 q 179 343 179 471 q 242 149 179 220 q 411 77 305 77 q 577 147 519 77 q 635 346 635 217 q 577 547 635 476 q 411 617 519 617 m 472 0 q 370 -151 370 -96 q 416 -199 370 -199 q 454 -190 437 -199 l 454 -262 q 399 -271 434 -271 q 316 -244 347 -271 q 285 -170 285 -217 q 391 0 285 -87 l 472 0 m 586 826 l 241 826 l 241 900 l 586 900 l 586 826 z "},"Ɵ":{"ha":1047,"x_min":64,"x_max":983,"o":"m 519 -16 q 188 120 313 -16 q 64 475 64 256 q 191 849 64 709 q 536 989 317 989 q 860 853 737 989 q 983 498 983 718 q 857 122 983 260 q 519 -16 731 -16 m 863 537 q 762 795 850 704 q 528 886 674 886 q 294 791 387 886 q 186 537 201 696 l 863 537 m 863 432 l 186 432 q 291 180 200 273 q 519 86 382 86 q 759 177 669 86 q 863 432 850 267 z "},"ɵ":{"ha":814,"x_min":65,"x_max":749,"o":"m 403 -16 q 157 81 249 -16 q 65 339 65 178 q 161 612 65 514 q 419 711 256 711 q 662 615 574 711 q 749 350 749 519 q 655 84 749 184 q 403 -16 561 -16 m 632 401 q 411 617 612 617 q 255 561 315 617 q 183 401 195 505 l 632 401 m 633 307 l 182 307 q 250 138 189 199 q 411 77 311 77 q 633 307 620 77 z "},"Ø":{"ha":1047,"x_min":64,"x_max":983,"o":"m 117 -35 l 64 9 l 171 139 q 64 475 64 272 q 190 848 64 707 q 536 989 317 989 q 808 901 694 989 l 900 1011 l 953 968 l 859 856 q 983 498 983 721 q 857 122 983 260 q 519 -16 731 -16 q 220 89 339 -16 l 117 -35 m 739 817 q 528 886 654 886 q 278 774 374 886 q 183 485 183 663 q 250 232 183 334 l 739 817 m 293 179 q 519 86 382 86 q 772 191 680 86 q 864 483 864 295 q 785 766 864 659 l 293 179 z "},"ø":{"ha":814,"x_min":33,"x_max":796,"o":"m 796 711 l 682 589 q 749 354 749 495 q 654 83 749 183 q 403 -16 560 -16 q 187 53 273 -16 l 89 -56 l 33 -3 l 134 109 q 65 339 65 201 q 161 612 65 514 q 420 711 258 711 q 629 644 545 711 l 739 764 l 796 711 m 557 567 q 411 617 503 617 q 241 544 303 617 q 179 343 179 471 q 213 191 179 254 l 557 567 m 604 503 l 260 129 q 410 77 319 77 q 578 148 520 77 q 636 347 636 218 q 604 503 636 438 z "},"Ǿ":{"ha":1047,"x_min":64,"x_max":983,"o":"m 117 -35 l 64 9 l 171 139 q 64 475 64 272 q 190 848 64 707 q 536 989 317 989 q 808 901 694 989 l 900 1011 l 953 968 l 859 856 q 983 498 983 721 q 857 122 983 260 q 519 -16 731 -16 q 220 89 339 -16 l 117 -35 m 739 817 q 528 886 654 886 q 278 774 374 886 q 183 485 183 663 q 250 232 183 334 l 739 817 m 293 179 q 519 86 382 86 q 772 191 680 86 q 864 483 864 295 q 785 766 864 659 l 293 179 m 699 1284 l 521 1062 l 435 1062 l 586 1284 l 699 1284 z "},"ǿ":{"ha":814,"x_min":33,"x_max":796,"o":"m 796 711 l 682 589 q 749 354 749 495 q 654 83 749 183 q 403 -16 560 -16 q 187 53 273 -16 l 89 -56 l 33 -3 l 134 109 q 65 339 65 201 q 161 612 65 514 q 420 711 258 711 q 629 644 545 711 l 739 764 l 796 711 m 557 567 q 411 617 503 617 q 241 544 303 617 q 179 343 179 471 q 213 191 179 254 l 557 567 m 604 503 l 260 129 q 410 77 319 77 q 578 148 520 77 q 636 347 636 218 q 604 503 636 438 m 589 1048 l 411 826 l 325 826 l 476 1048 l 589 1048 z "},"Ɔ":{"ha":861,"x_min":72,"x_max":798,"o":"m 72 24 l 72 144 q 302 86 176 86 q 574 198 469 86 q 678 497 678 311 q 581 781 678 675 q 325 886 484 886 q 72 821 178 886 l 72 932 q 340 989 180 989 q 672 855 547 989 q 798 505 798 722 q 658 127 798 271 q 301 -16 518 -16 q 72 24 163 -16 z "},"ɔ":{"ha":647,"x_min":61,"x_max":582,"o":"m 62 22 l 62 134 q 233 77 144 77 q 402 152 337 77 q 468 351 468 227 q 404 545 468 473 q 232 617 340 617 q 61 560 143 617 l 61 665 q 250 711 142 711 q 490 614 398 711 q 582 362 582 517 q 487 87 582 190 q 231 -16 391 -16 q 62 22 136 -16 z "},"Œ":{"ha":1293,"x_min":64,"x_max":1227,"o":"m 1227 0 l 739 0 q 646 -9 728 0 q 522 -16 579 -16 q 187 120 311 -16 q 64 475 64 256 q 192 849 64 709 q 541 989 321 989 q 662 982 602 989 q 739 972 738 972 l 1206 972 l 1206 869 l 826 869 l 826 546 l 1177 546 l 1177 444 l 826 444 l 826 103 l 1227 103 l 1227 0 m 712 109 l 712 867 q 530 886 604 886 q 279 773 375 886 q 183 485 183 661 q 278 198 183 310 q 526 86 372 86 q 712 109 605 86 z "},"œ":{"ha":1289,"x_min":65,"x_max":1238,"o":"m 1238 319 l 746 319 q 808 140 748 203 q 972 77 868 77 q 1189 155 1091 77 l 1189 50 q 947 -16 1097 -16 q 688 144 764 -16 l 685 144 q 403 -16 596 -16 q 156 81 248 -16 q 65 338 65 178 q 161 612 65 513 q 420 711 258 711 q 693 551 620 711 l 696 551 q 957 711 777 711 q 1164 622 1090 711 q 1238 379 1238 532 l 1238 319 m 1124 414 q 1077 564 1122 510 q 953 617 1031 617 q 815 559 871 617 q 747 414 758 501 l 1124 414 m 411 617 q 241 544 304 617 q 179 340 179 470 q 241 148 179 218 q 410 77 304 77 q 576 147 517 77 q 635 345 635 216 q 576 547 635 476 q 411 617 517 617 z "},"P":{"ha":778,"x_min":127,"x_max":722,"o":"m 241 368 l 241 0 l 127 0 l 127 972 l 395 972 q 636 897 551 972 q 722 682 722 821 q 627 456 722 544 q 370 368 532 368 l 241 368 m 241 869 l 241 471 l 361 471 q 541 525 479 471 q 603 677 603 578 q 375 869 603 869 l 241 869 z "},"p":{"ha":817,"x_min":113,"x_max":751,"o":"m 227 100 l 224 100 l 224 -319 l 113 -319 l 113 694 l 224 694 l 224 572 l 227 572 q 467 711 309 711 q 676 617 601 711 q 751 368 751 524 q 667 89 751 193 q 435 -16 582 -16 q 227 100 300 -16 m 224 380 l 224 283 q 280 137 224 197 q 422 77 336 77 q 580 155 523 77 q 637 370 637 232 q 584 551 637 486 q 439 617 530 617 q 283 550 342 617 q 224 380 224 482 z "},"Ṕ":{"ha":778,"x_min":127,"x_max":722,"o":"m 241 368 l 241 0 l 127 0 l 127 972 l 395 972 q 636 897 551 972 q 722 682 722 821 q 627 456 722 544 q 370 368 532 368 l 241 368 m 241 869 l 241 471 l 361 471 q 541 525 479 471 q 603 677 603 578 q 375 869 603 869 l 241 869 m 509 1285 l 331 1063 l 245 1063 l 396 1285 l 509 1285 z "},"ṕ":{"ha":817,"x_min":113,"x_max":751,"o":"m 227 100 l 224 100 l 224 -319 l 113 -319 l 113 694 l 224 694 l 224 572 l 227 572 q 467 711 309 711 q 676 617 601 711 q 751 368 751 524 q 667 89 751 193 q 435 -16 582 -16 q 227 100 300 -16 m 224 380 l 224 283 q 280 137 224 197 q 422 77 336 77 q 580 155 523 77 q 637 370 637 232 q 584 551 637 486 q 439 617 530 617 q 283 550 342 617 q 224 380 224 482 m 547 1048 l 370 826 l 283 826 l 435 1048 l 547 1048 z "},"Ṗ":{"ha":778,"x_min":127,"x_max":722,"o":"m 241 368 l 241 0 l 127 0 l 127 972 l 395 972 q 636 897 551 972 q 722 682 722 821 q 627 456 722 544 q 370 368 532 368 l 241 368 m 241 869 l 241 471 l 361 471 q 541 525 479 471 q 603 677 603 578 q 375 869 603 869 l 241 869 m 376 1063 q 329 1082 349 1063 q 309 1130 309 1101 q 329 1176 309 1157 q 376 1195 349 1195 q 424 1176 404 1195 q 443 1130 443 1158 q 424 1082 443 1102 q 376 1063 404 1063 z "},"ṗ":{"ha":817,"x_min":113,"x_max":751,"o":"m 227 100 l 224 100 l 224 -319 l 113 -319 l 113 694 l 224 694 l 224 572 l 227 572 q 467 711 309 711 q 676 617 601 711 q 751 368 751 524 q 667 89 751 193 q 435 -16 582 -16 q 227 100 300 -16 m 224 380 l 224 283 q 280 137 224 197 q 422 77 336 77 q 580 155 523 77 q 637 370 637 232 q 584 551 637 486 q 439 617 530 617 q 283 550 342 617 q 224 380 224 482 m 422 826 q 375 845 395 826 q 355 893 355 865 q 374 939 355 920 q 422 958 394 958 q 469 940 450 958 q 488 893 488 921 q 469 846 488 865 q 422 826 450 826 z "},"Ᵽ":{"ha":778,"x_min":19,"x_max":722,"o":"m 241 368 l 241 0 l 127 0 l 127 614 l 19 614 l 19 718 l 127 718 l 127 972 l 395 972 q 636 897 551 972 q 722 682 722 821 q 627 456 722 544 q 370 368 532 368 l 241 368 m 241 869 l 241 718 l 439 718 l 439 614 l 241 614 l 241 471 l 361 471 q 541 525 479 471 q 603 677 603 578 q 375 869 603 869 l 241 869 z "},"ᵽ":{"ha":817,"x_min":23,"x_max":839,"o":"m 227 100 l 224 100 l 224 -319 l 113 -319 l 113 320 l 23 320 l 23 394 l 113 394 l 113 694 l 224 694 l 224 572 l 227 572 q 467 711 309 711 q 676 617 601 711 q 751 394 745 532 l 839 394 l 839 320 l 749 320 q 667 88 739 178 q 435 -16 582 -16 q 227 100 300 -16 m 279 137 q 422 77 336 77 q 580 155 523 77 q 635 320 627 217 l 224 320 l 224 283 q 279 137 224 197 m 584 551 q 439 617 530 617 q 283 549 342 617 q 224 394 228 486 l 637 394 q 584 551 631 492 z "},"Ƥ":{"ha":835,"x_min":-57,"x_max":778,"o":"m 297 368 l 297 0 l 183 0 l 183 869 l 167 869 q 82 838 112 869 q 52 754 52 806 q 65 682 52 717 l -42 682 q -57 765 -57 720 q 9 913 -57 854 q 184 972 75 972 l 450 972 q 692 896 606 972 q 778 682 778 820 q 682 456 778 545 q 425 368 587 368 l 297 368 m 297 869 l 297 471 l 416 471 q 659 677 659 471 q 431 869 659 869 l 297 869 z "},"ƥ":{"ha":817,"x_min":113,"x_max":751,"o":"m 227 100 l 224 100 l 224 -319 l 113 -319 l 113 815 q 173 981 113 918 q 328 1043 233 1043 q 408 1031 376 1043 l 408 930 q 335 949 371 949 q 224 808 224 949 l 224 572 l 227 572 q 467 711 307 711 q 676 618 600 711 q 751 368 751 526 q 667 89 751 193 q 435 -16 582 -16 q 227 100 298 -16 m 224 380 l 224 283 q 280 138 224 198 q 422 77 336 77 q 580 154 523 77 q 637 370 637 231 q 584 551 637 486 q 439 617 530 617 q 283 550 342 617 q 224 380 224 483 z "},"Q":{"ha":1047,"x_min":64,"x_max":1006,"o":"m 513 -16 q 425 -8 469 -16 q 338 18 380 1 q 257 61 296 35 q 188 120 219 86 q 64 475 64 256 q 190 849 64 710 q 538 989 317 989 q 860 853 736 989 q 983 498 983 718 q 963 325 983 406 q 900 177 942 243 q 794 65 858 111 q 644 0 730 20 q 710 -67 679 -38 q 771 -116 741 -96 q 836 -146 802 -136 q 909 -157 869 -157 q 932 -156 920 -157 q 959 -152 945 -155 q 984 -147 972 -150 q 1006 -140 996 -144 l 1006 -250 q 982 -255 996 -253 q 955 -259 968 -258 q 927 -262 941 -261 q 902 -263 913 -263 q 785 -244 837 -263 q 688 -191 733 -224 q 601 -113 643 -157 q 513 -16 559 -68 m 528 886 q 279 775 374 886 q 183 485 183 665 q 276 195 183 306 q 519 86 370 86 q 772 191 680 86 q 864 483 864 295 q 774 781 864 676 q 528 886 685 886 z "},"q":{"ha":818,"x_min":65,"x_max":705,"o":"m 705 -319 l 594 -319 l 594 119 l 591 119 q 354 -16 519 -16 q 144 77 223 -16 q 65 331 65 170 q 152 607 65 504 q 385 711 239 711 q 591 598 528 711 l 594 598 l 594 694 l 705 694 l 705 -319 m 594 313 l 594 414 q 538 558 594 499 q 396 617 482 617 q 237 543 296 617 q 179 334 179 469 q 235 145 179 214 q 380 77 292 77 q 536 144 478 77 q 594 313 594 211 z "},"Ɋ":{"ha":1042,"x_min":64,"x_max":1083,"o":"m 885 972 l 885 36 q 1006 -143 885 -143 q 1083 -123 1048 -143 l 1083 -232 q 1000 -245 1045 -245 q 832 -169 892 -245 q 771 36 771 -92 l 771 144 q 754 122 763 133 q 460 -16 644 -16 q 172 120 280 -16 q 64 475 64 256 q 174 849 64 709 q 475 989 284 989 q 757 853 650 989 q 771 833 764 844 l 771 972 l 885 972 m 481 886 q 266 775 349 886 q 183 485 183 665 q 263 196 183 305 q 473 86 344 86 q 691 191 612 86 q 771 483 771 295 l 771 492 q 694 781 769 678 q 481 886 616 886 z "},"ɋ":{"ha":818,"x_min":65,"x_max":903,"o":"m 826 -143 q 903 -123 868 -143 l 903 -232 q 821 -245 865 -245 q 652 -169 713 -245 q 608 -79 621 -130 q 594 36 594 -28 l 594 118 l 591 118 q 353 -16 514 -16 q 143 77 222 -16 q 65 331 65 170 q 152 607 65 503 q 383 711 239 711 q 591 598 526 711 l 594 598 l 594 694 l 705 694 l 705 36 q 826 -143 705 -143 m 594 314 l 594 416 q 538 559 594 501 q 397 617 482 617 q 237 543 296 617 q 179 336 179 468 q 235 146 179 216 q 385 77 291 77 q 536 144 478 77 q 594 314 594 212 z "},"R":{"ha":831,"x_min":127,"x_max":825,"o":"m 825 0 l 689 0 l 526 273 q 483 337 504 311 q 440 381 462 364 q 392 406 418 398 q 335 414 367 414 l 241 414 l 241 0 l 127 0 l 127 972 l 418 972 q 535 957 481 972 q 629 908 589 941 q 691 827 669 876 q 713 713 713 779 q 698 620 713 663 q 655 545 683 578 q 587 488 627 511 q 498 452 547 465 l 498 449 q 540 424 522 438 q 574 391 558 410 q 607 348 591 372 q 642 292 623 324 l 825 0 m 241 869 l 241 517 l 396 517 q 475 530 439 517 q 538 567 511 543 q 579 626 564 591 q 594 704 594 661 q 544 826 594 782 q 397 869 493 869 l 241 869 z "},"r":{"ha":483,"x_min":113,"x_max":475,"o":"m 475 582 q 391 604 446 604 q 272 537 319 604 q 224 354 224 470 l 224 0 l 113 0 l 113 694 l 224 694 l 224 551 l 227 551 q 299 666 250 625 q 408 707 348 707 q 475 697 452 707 l 475 582 z "},"Ŕ":{"ha":831,"x_min":127,"x_max":825,"o":"m 825 0 l 689 0 l 526 273 q 483 337 504 311 q 440 381 462 364 q 392 406 418 398 q 335 414 367 414 l 241 414 l 241 0 l 127 0 l 127 972 l 418 972 q 535 957 481 972 q 629 908 589 941 q 691 827 669 876 q 713 713 713 779 q 698 620 713 663 q 655 545 683 578 q 587 488 627 511 q 498 452 547 465 l 498 449 q 540 424 522 438 q 574 391 558 410 q 607 348 591 372 q 642 292 623 324 l 825 0 m 241 869 l 241 517 l 396 517 q 475 530 439 517 q 538 567 511 543 q 579 626 564 591 q 594 704 594 661 q 544 826 594 782 q 397 869 493 869 l 241 869 m 593 1284 l 416 1062 l 330 1062 l 481 1284 l 593 1284 z "},"ŕ":{"ha":483,"x_min":113,"x_max":475,"o":"m 475 582 q 391 604 446 604 q 272 537 319 604 q 224 354 224 470 l 224 0 l 113 0 l 113 694 l 224 694 l 224 551 l 227 551 q 299 666 250 625 q 408 707 348 707 q 475 697 452 707 l 475 582 m 467 1048 l 289 826 l 203 826 l 354 1048 l 467 1048 z "},"Ř":{"ha":831,"x_min":127,"x_max":825,"o":"m 825 0 l 689 0 l 526 273 q 483 337 504 311 q 440 381 462 364 q 392 406 418 398 q 335 414 367 414 l 241 414 l 241 0 l 127 0 l 127 972 l 418 972 q 535 957 481 972 q 629 908 589 941 q 691 827 669 876 q 713 713 713 779 q 698 620 713 663 q 655 545 683 578 q 587 488 627 511 q 498 452 547 465 l 498 449 q 540 424 522 438 q 574 391 558 410 q 607 348 591 372 q 642 292 623 324 l 825 0 m 241 869 l 241 517 l 396 517 q 475 530 439 517 q 538 567 511 543 q 579 626 564 591 q 594 704 594 661 q 544 826 594 782 q 397 869 493 869 l 241 869 m 604 1286 l 459 1062 l 370 1062 l 223 1286 l 301 1286 l 412 1131 l 524 1286 l 604 1286 z "},"ř":{"ha":483,"x_min":102,"x_max":484,"o":"m 475 582 q 391 604 446 604 q 272 537 319 604 q 224 354 224 470 l 224 0 l 113 0 l 113 694 l 224 694 l 224 551 l 227 551 q 299 666 250 625 q 408 707 348 707 q 475 697 452 707 l 475 582 m 484 1050 l 338 826 l 249 826 l 102 1050 l 180 1050 l 292 895 l 403 1050 l 484 1050 z "},"Ṝ":{"ha":831,"x_min":127,"x_max":825,"o":"m 825 0 l 689 0 l 526 273 q 483 337 504 311 q 440 381 462 364 q 392 406 418 398 q 335 414 367 414 l 241 414 l 241 0 l 127 0 l 127 972 l 418 972 q 535 957 481 972 q 629 908 589 941 q 691 827 669 876 q 713 713 713 779 q 698 620 713 663 q 655 545 683 578 q 587 488 627 511 q 498 452 547 465 l 498 449 q 540 424 522 438 q 574 391 558 410 q 607 348 591 372 q 642 292 623 324 l 825 0 m 241 869 l 241 517 l 396 517 q 475 530 439 517 q 538 567 511 543 q 579 626 564 591 q 594 704 594 661 q 544 826 594 782 q 397 869 493 869 l 241 869 m 584 1063 l 239 1063 l 239 1137 l 584 1137 l 584 1063 m 439 -213 q 392 -193 412 -213 q 372 -146 372 -174 q 393 -99 372 -118 q 439 -81 413 -81 q 487 -99 467 -81 q 507 -146 507 -118 q 487 -193 507 -174 q 439 -213 467 -213 z "},"ṝ":{"ha":483,"x_min":113,"x_max":475,"o":"m 475 582 q 391 604 446 604 q 272 537 319 604 q 224 354 224 470 l 224 0 l 113 0 l 113 694 l 224 694 l 224 551 l 227 551 q 299 666 250 625 q 408 707 348 707 q 475 697 452 707 l 475 582 m 460 826 l 115 826 l 115 900 l 460 900 l 460 826 m 292 -213 q 245 -193 264 -213 q 225 -146 225 -174 q 245 -99 225 -118 q 292 -81 266 -81 q 340 -99 320 -81 q 359 -146 359 -118 q 340 -193 359 -174 q 292 -213 320 -213 z "},"Ȓ":{"ha":831,"x_min":127,"x_max":825,"o":"m 825 0 l 689 0 l 526 273 q 483 337 504 311 q 440 381 462 364 q 392 406 418 398 q 335 414 367 414 l 241 414 l 241 0 l 127 0 l 127 972 l 418 972 q 535 957 481 972 q 629 908 589 941 q 691 827 669 876 q 713 713 713 779 q 698 620 713 663 q 655 545 683 578 q 587 488 627 511 q 498 452 547 465 l 498 449 q 540 424 522 438 q 574 391 558 410 q 607 348 591 372 q 642 292 623 324 l 825 0 m 241 869 l 241 517 l 396 517 q 475 530 439 517 q 538 567 511 543 q 579 626 564 591 q 594 704 594 661 q 544 826 594 782 q 397 869 493 869 l 241 869 m 591 1063 l 522 1063 q 483 1140 516 1112 q 404 1168 450 1168 q 288 1063 296 1168 l 220 1063 q 273 1187 222 1140 q 403 1234 323 1234 q 532 1187 479 1234 q 591 1063 585 1140 z "},"ȓ":{"ha":483,"x_min":108,"x_max":479,"o":"m 475 582 q 391 604 446 604 q 272 537 319 604 q 224 354 224 470 l 224 0 l 113 0 l 113 694 l 224 694 l 224 551 l 227 551 q 299 666 250 625 q 408 707 348 707 q 475 697 452 707 l 475 582 m 479 826 l 410 826 q 371 903 404 875 q 292 932 338 932 q 176 826 184 932 l 108 826 q 161 950 111 903 q 291 997 212 997 q 420 950 368 997 q 479 826 473 903 z "},"Ṙ":{"ha":831,"x_min":127,"x_max":825,"o":"m 825 0 l 689 0 l 526 273 q 483 337 504 311 q 440 381 462 364 q 392 406 418 398 q 335 414 367 414 l 241 414 l 241 0 l 127 0 l 127 972 l 418 972 q 535 957 481 972 q 629 908 589 941 q 691 827 669 876 q 713 713 713 779 q 698 620 713 663 q 655 545 683 578 q 587 488 627 511 q 498 452 547 465 l 498 449 q 540 424 522 438 q 574 391 558 410 q 607 348 591 372 q 642 292 623 324 l 825 0 m 241 869 l 241 517 l 396 517 q 475 530 439 517 q 538 567 511 543 q 579 626 564 591 q 594 704 594 661 q 544 826 594 782 q 397 869 493 869 l 241 869 m 406 1063 q 358 1082 378 1063 q 338 1130 338 1101 q 358 1176 338 1157 q 406 1195 378 1195 q 453 1176 433 1195 q 472 1130 472 1158 q 453 1082 472 1102 q 406 1063 433 1063 z "},"ṙ":{"ha":483,"x_min":113,"x_max":475,"o":"m 475 582 q 391 604 446 604 q 272 537 319 604 q 224 354 224 470 l 224 0 l 113 0 l 113 694 l 224 694 l 224 551 l 227 551 q 299 666 250 625 q 408 707 348 707 q 475 697 452 707 l 475 582 m 264 826 q 217 845 237 826 q 197 893 197 865 q 216 939 197 920 q 264 958 236 958 q 311 940 292 958 q 330 893 330 921 q 311 846 330 865 q 264 826 292 826 z "},"Ȑ":{"ha":799,"x_min":109,"x_max":825,"o":"m 825 0 l 689 0 l 526 273 q 483 337 504 311 q 440 381 462 364 q 392 406 418 398 q 335 414 367 414 l 241 414 l 241 0 l 127 0 l 127 972 l 418 972 q 535 957 481 972 q 629 908 589 941 q 691 827 669 876 q 713 713 713 779 q 698 620 713 663 q 655 545 683 578 q 587 488 627 511 q 498 452 547 465 l 498 449 q 540 424 522 438 q 574 391 558 410 q 607 348 591 372 q 642 292 623 324 l 825 0 m 241 869 l 241 517 l 396 517 q 475 530 439 517 q 538 567 511 543 q 579 626 564 591 q 594 704 594 661 q 544 826 594 782 q 397 869 493 869 l 241 869 m 505 1063 l 439 1063 l 277 1279 l 364 1279 l 505 1063 m 340 1063 l 275 1063 l 109 1279 l 199 1279 l 340 1063 z "},"ȑ":{"ha":483,"x_min":3,"x_max":475,"o":"m 475 582 q 391 604 446 604 q 272 537 319 604 q 224 354 224 470 l 224 0 l 113 0 l 113 694 l 224 694 l 224 551 l 227 551 q 299 666 250 625 q 408 707 348 707 q 475 697 452 707 l 475 582 m 399 826 l 333 826 l 171 1042 l 258 1042 l 399 826 m 235 826 l 170 826 l 3 1042 l 93 1042 l 235 826 z "},"Ṟ":{"ha":831,"x_min":127,"x_max":825,"o":"m 825 0 l 689 0 l 526 273 q 483 337 504 311 q 440 381 462 364 q 392 406 418 398 q 335 414 367 414 l 241 414 l 241 0 l 127 0 l 127 972 l 418 972 q 535 957 481 972 q 629 908 589 941 q 691 827 669 876 q 713 713 713 779 q 698 620 713 663 q 655 545 683 578 q 587 488 627 511 q 498 452 547 465 l 498 449 q 540 424 522 438 q 574 391 558 410 q 607 348 591 372 q 642 292 623 324 l 825 0 m 241 869 l 241 517 l 396 517 q 475 530 439 517 q 538 567 511 543 q 579 626 564 591 q 594 704 594 661 q 544 826 594 782 q 397 869 493 869 l 241 869 m 622 -152 l 277 -152 l 277 -78 l 622 -78 l 622 -152 z "},"ṟ":{"ha":483,"x_min":113,"x_max":475,"o":"m 475 582 q 391 604 446 604 q 272 537 319 604 q 224 354 224 470 l 224 0 l 113 0 l 113 694 l 224 694 l 224 551 l 227 551 q 299 666 250 625 q 408 707 348 707 q 475 697 452 707 l 475 582 m 475 -152 l 131 -152 l 131 -78 l 475 -78 l 475 -152 z "},"Ṛ":{"ha":831,"x_min":127,"x_max":825,"o":"m 825 0 l 689 0 l 526 273 q 483 337 504 311 q 440 381 462 364 q 392 406 418 398 q 335 414 367 414 l 241 414 l 241 0 l 127 0 l 127 972 l 418 972 q 535 957 481 972 q 629 908 589 941 q 691 827 669 876 q 713 713 713 779 q 698 620 713 663 q 655 545 683 578 q 587 488 627 511 q 498 452 547 465 l 498 449 q 540 424 522 438 q 574 391 558 410 q 607 348 591 372 q 642 292 623 324 l 825 0 m 241 869 l 241 517 l 396 517 q 475 530 439 517 q 538 567 511 543 q 579 626 564 591 q 594 704 594 661 q 544 826 594 782 q 397 869 493 869 l 241 869 m 439 -213 q 392 -193 412 -213 q 372 -146 372 -174 q 393 -99 372 -118 q 439 -81 413 -81 q 487 -99 467 -81 q 507 -146 507 -118 q 487 -193 507 -174 q 439 -213 467 -213 z "},"ṛ":{"ha":483,"x_min":113,"x_max":475,"o":"m 475 582 q 391 604 446 604 q 272 537 319 604 q 224 354 224 470 l 224 0 l 113 0 l 113 694 l 224 694 l 224 551 l 227 551 q 299 666 250 625 q 408 707 348 707 q 475 697 452 707 l 475 582 m 292 -213 q 245 -193 264 -213 q 225 -146 225 -174 q 245 -99 225 -118 q 292 -81 266 -81 q 340 -99 320 -81 q 359 -146 359 -118 q 340 -193 359 -174 q 292 -213 320 -213 z "},"Ŗ":{"ha":831,"x_min":127,"x_max":825,"o":"m 825 0 l 689 0 l 526 273 q 483 337 504 311 q 440 381 462 364 q 392 406 418 398 q 335 414 367 414 l 241 414 l 241 0 l 127 0 l 127 972 l 418 972 q 535 957 481 972 q 629 908 589 941 q 691 827 669 876 q 713 713 713 779 q 698 620 713 663 q 655 545 683 578 q 587 488 627 511 q 498 452 547 465 l 498 449 q 540 424 522 438 q 574 391 558 410 q 607 348 591 372 q 642 292 623 324 l 825 0 m 241 869 l 241 517 l 396 517 q 475 530 439 517 q 538 567 511 543 q 579 626 564 591 q 594 704 594 661 q 544 826 594 782 q 397 869 493 869 l 241 869 m 499 -81 l 387 -257 l 303 -257 l 382 -81 l 499 -81 z "},"ŗ":{"ha":483,"x_min":113,"x_max":475,"o":"m 475 582 q 391 604 446 604 q 272 537 319 604 q 224 354 224 470 l 224 0 l 113 0 l 113 694 l 224 694 l 224 551 l 227 551 q 299 666 250 625 q 408 707 348 707 q 475 697 452 707 l 475 582 m 361 -81 l 249 -257 l 165 -257 l 245 -81 l 361 -81 z "},"Ɍ":{"ha":831,"x_min":19,"x_max":825,"o":"m 825 0 l 689 0 l 526 273 q 483 337 504 311 q 440 381 462 364 q 392 406 418 398 q 335 414 367 414 l 241 414 l 241 0 l 127 0 l 127 414 l 19 414 l 19 517 l 127 517 l 127 972 l 418 972 q 535 957 481 972 q 629 908 589 941 q 691 827 669 876 q 713 713 713 779 q 698 620 713 663 q 655 545 683 578 q 587 488 627 511 q 498 452 547 465 l 498 449 q 540 424 522 438 q 574 391 558 410 q 607 348 591 372 q 642 292 623 324 l 825 0 m 241 869 l 241 517 l 396 517 q 475 530 439 517 q 538 567 511 543 q 579 626 564 591 q 594 704 594 661 q 544 826 594 782 q 397 869 493 869 l 241 869 z "},"ɍ":{"ha":483,"x_min":19,"x_max":475,"o":"m 475 582 q 391 604 446 604 q 272 537 319 604 q 224 354 224 470 l 224 330 l 412 330 l 412 227 l 224 227 l 224 0 l 113 0 l 113 227 l 19 227 l 19 330 l 113 330 l 113 694 l 224 694 l 224 551 l 227 551 q 299 666 250 625 q 408 707 348 707 q 475 697 452 707 l 475 582 z "},"Ɽ":{"ha":831,"x_min":127,"x_max":825,"o":"m 825 0 l 689 0 l 526 273 q 483 337 504 311 q 440 381 462 364 q 392 406 418 398 q 335 414 367 414 l 241 414 l 241 0 q 362 -143 241 -143 q 439 -123 405 -143 l 439 -232 q 357 -245 401 -245 q 188 -179 249 -245 q 127 0 127 -112 l 127 972 l 418 972 q 535 957 481 972 q 629 908 589 941 q 691 827 669 876 q 713 713 713 779 q 698 620 713 663 q 655 545 683 578 q 587 488 627 511 q 498 452 547 465 l 498 449 q 540 424 522 438 q 574 391 558 410 q 607 348 591 372 q 642 292 623 324 l 825 0 m 241 869 l 241 517 l 396 517 q 475 530 439 517 q 538 567 511 543 q 579 626 564 591 q 594 704 594 661 q 544 826 594 782 q 397 869 493 869 l 241 869 z "},"ɽ":{"ha":483,"x_min":113,"x_max":475,"o":"m 475 582 q 391 604 446 604 q 272 537 319 604 q 224 354 224 470 l 224 -96 q 332 -232 224 -232 q 408 -214 373 -232 l 408 -308 q 319 -327 365 -327 q 166 -268 220 -327 q 113 -100 113 -208 l 113 694 l 224 694 l 224 551 l 227 551 q 299 666 250 625 q 408 707 348 707 q 475 697 452 707 l 475 582 z "},"S":{"ha":738,"x_min":82,"x_max":671,"o":"m 82 39 l 82 174 q 137 137 105 153 q 205 110 170 121 q 277 92 241 98 q 343 86 313 86 q 500 125 448 86 q 552 237 552 164 q 535 306 552 277 q 487 359 517 335 q 415 405 456 383 q 325 452 373 427 q 230 504 274 477 q 153 562 186 530 q 102 634 121 594 q 83 729 83 675 q 113 845 83 795 q 189 926 142 894 q 297 973 237 958 q 421 989 358 989 q 631 954 565 989 l 631 826 q 410 886 545 886 q 335 878 372 886 q 269 852 298 870 q 221 807 239 835 q 203 739 203 779 q 217 675 203 702 q 258 625 231 648 q 324 582 285 603 q 414 536 363 561 q 513 481 466 510 q 595 418 559 453 q 651 342 630 384 q 671 245 671 300 q 643 124 671 174 q 567 43 615 74 q 457 -2 519 12 q 326 -16 395 -16 q 269 -13 302 -16 q 199 -2 235 -9 q 133 16 164 5 q 82 39 101 26 z "},"s":{"ha":589,"x_min":71,"x_max":531,"o":"m 71 25 l 71 144 q 271 77 161 77 q 417 175 417 77 q 405 222 417 203 q 371 256 392 241 q 320 283 349 271 q 258 308 292 295 q 177 345 212 326 q 119 387 142 363 q 84 440 96 410 q 72 510 72 470 q 94 596 72 559 q 154 660 117 634 q 239 698 191 685 q 338 711 287 711 q 499 680 428 711 l 499 567 q 323 617 422 617 q 267 610 292 617 q 223 590 241 603 q 196 559 205 577 q 186 519 186 541 q 196 474 186 492 q 224 441 205 456 q 271 416 243 427 q 332 391 298 404 q 415 354 378 373 q 477 312 452 336 q 517 258 503 289 q 531 186 531 228 q 508 96 531 134 q 448 33 486 58 q 360 -4 410 8 q 256 -16 311 -16 q 71 25 149 -16 z "},"Ś":{"ha":738,"x_min":82,"x_max":671,"o":"m 82 39 l 82 174 q 137 137 105 153 q 205 110 170 121 q 277 92 241 98 q 343 86 313 86 q 500 125 448 86 q 552 237 552 164 q 535 306 552 277 q 487 359 517 335 q 415 405 456 383 q 325 452 373 427 q 230 504 274 477 q 153 562 186 530 q 102 634 121 594 q 83 729 83 675 q 113 845 83 795 q 189 926 142 894 q 297 973 237 958 q 421 989 358 989 q 631 954 565 989 l 631 826 q 410 886 545 886 q 335 878 372 886 q 269 852 298 870 q 221 807 239 835 q 203 739 203 779 q 217 675 203 702 q 258 625 231 648 q 324 582 285 603 q 414 536 363 561 q 513 481 466 510 q 595 418 559 453 q 651 342 630 384 q 671 245 671 300 q 643 124 671 174 q 567 43 615 74 q 457 -2 519 12 q 326 -16 395 -16 q 269 -13 302 -16 q 199 -2 235 -9 q 133 16 164 5 q 82 39 101 26 m 557 1284 l 379 1061 l 293 1061 l 444 1284 l 557 1284 z "},"ś":{"ha":589,"x_min":71,"x_max":531,"o":"m 71 25 l 71 144 q 271 77 161 77 q 417 175 417 77 q 405 222 417 203 q 371 256 392 241 q 320 283 349 271 q 258 308 292 295 q 177 345 212 326 q 119 387 142 363 q 84 440 96 410 q 72 510 72 470 q 94 596 72 559 q 154 660 117 634 q 239 698 191 685 q 338 711 287 711 q 499 680 428 711 l 499 567 q 323 617 422 617 q 267 610 292 617 q 223 590 241 603 q 196 559 205 577 q 186 519 186 541 q 196 474 186 492 q 224 441 205 456 q 271 416 243 427 q 332 391 298 404 q 415 354 378 373 q 477 312 452 336 q 517 258 503 289 q 531 186 531 228 q 508 96 531 134 q 448 33 486 58 q 360 -4 410 8 q 256 -16 311 -16 q 71 25 149 -16 m 484 1048 l 307 826 l 220 826 l 372 1048 l 484 1048 z "},"Ṥ":{"ha":738,"x_min":82,"x_max":671,"o":"m 82 39 l 82 174 q 137 137 105 153 q 205 110 170 121 q 277 92 241 98 q 343 86 313 86 q 500 125 448 86 q 552 237 552 164 q 535 306 552 277 q 487 359 517 335 q 415 405 456 383 q 325 452 373 427 q 230 504 274 477 q 153 562 186 530 q 102 634 121 594 q 83 729 83 675 q 113 845 83 795 q 189 926 142 894 q 297 973 237 958 q 421 989 358 989 q 631 954 565 989 l 631 826 q 410 886 545 886 q 335 878 372 886 q 269 852 298 870 q 221 807 239 835 q 203 739 203 779 q 217 675 203 702 q 258 625 231 648 q 324 582 285 603 q 414 536 363 561 q 513 481 466 510 q 595 418 559 453 q 651 342 630 384 q 671 245 671 300 q 643 124 671 174 q 567 43 615 74 q 457 -2 519 12 q 326 -16 395 -16 q 269 -13 302 -16 q 199 -2 235 -9 q 133 16 164 5 q 82 39 101 26 m 356 1062 l 478 1229 l 592 1229 l 443 1062 l 356 1062 m 315 1155 q 268 1174 288 1155 q 248 1222 248 1194 q 268 1268 248 1249 q 315 1287 288 1287 q 362 1269 343 1287 q 382 1222 382 1250 q 362 1175 382 1194 q 315 1155 343 1155 z "},"ṥ":{"ha":589,"x_min":71,"x_max":531,"o":"m 71 25 l 71 144 q 271 77 161 77 q 417 175 417 77 q 405 222 417 203 q 371 256 392 241 q 320 283 349 271 q 258 308 292 295 q 177 345 212 326 q 119 387 142 363 q 84 440 96 410 q 72 510 72 470 q 94 596 72 559 q 154 660 117 634 q 239 698 191 685 q 338 711 287 711 q 499 680 428 711 l 499 567 q 323 617 422 617 q 267 610 292 617 q 223 590 241 603 q 196 559 205 577 q 186 519 186 541 q 196 474 186 492 q 224 441 205 456 q 271 416 243 427 q 332 391 298 404 q 415 354 378 373 q 477 312 452 336 q 517 258 503 289 q 531 186 531 228 q 508 96 531 134 q 448 33 486 58 q 360 -4 410 8 q 256 -16 311 -16 q 71 25 149 -16 m 272 826 l 394 993 l 508 993 l 359 826 l 272 826 m 231 919 q 184 938 204 919 q 164 986 164 958 q 184 1032 164 1013 q 231 1051 203 1051 q 278 1033 259 1051 q 298 986 298 1014 q 278 939 298 958 q 231 919 259 919 z "},"Ŝ":{"ha":738,"x_min":82,"x_max":671,"o":"m 82 39 l 82 174 q 137 137 105 153 q 205 110 170 121 q 277 92 241 98 q 343 86 313 86 q 500 125 448 86 q 552 237 552 164 q 535 306 552 277 q 487 359 517 335 q 415 405 456 383 q 325 452 373 427 q 230 504 274 477 q 153 562 186 530 q 102 634 121 594 q 83 729 83 675 q 113 845 83 795 q 189 926 142 894 q 297 973 237 958 q 421 989 358 989 q 631 954 565 989 l 631 826 q 410 886 545 886 q 335 878 372 886 q 269 852 298 870 q 221 807 239 835 q 203 739 203 779 q 217 675 203 702 q 258 625 231 648 q 324 582 285 603 q 414 536 363 561 q 513 481 466 510 q 595 418 559 453 q 651 342 630 384 q 671 245 671 300 q 643 124 671 174 q 567 43 615 74 q 457 -2 519 12 q 326 -16 395 -16 q 269 -13 302 -16 q 199 -2 235 -9 q 133 16 164 5 q 82 39 101 26 m 565 1062 l 482 1062 l 371 1218 l 259 1062 l 182 1062 l 328 1287 l 418 1287 l 565 1062 z "},"ŝ":{"ha":589,"x_min":71,"x_max":531,"o":"m 71 25 l 71 144 q 271 77 161 77 q 417 175 417 77 q 405 222 417 203 q 371 256 392 241 q 320 283 349 271 q 258 308 292 295 q 177 345 212 326 q 119 387 142 363 q 84 440 96 410 q 72 510 72 470 q 94 596 72 559 q 154 660 117 634 q 239 698 191 685 q 338 711 287 711 q 499 680 428 711 l 499 567 q 323 617 422 617 q 267 610 292 617 q 223 590 241 603 q 196 559 205 577 q 186 519 186 541 q 196 474 186 492 q 224 441 205 456 q 271 416 243 427 q 332 391 298 404 q 415 354 378 373 q 477 312 452 336 q 517 258 503 289 q 531 186 531 228 q 508 96 531 134 q 448 33 486 58 q 360 -4 410 8 q 256 -16 311 -16 q 71 25 149 -16 m 482 826 l 399 826 l 288 982 l 176 826 l 100 826 l 245 1051 l 336 1051 l 482 826 z "},"Š":{"ha":738,"x_min":82,"x_max":671,"o":"m 82 39 l 82 174 q 137 137 105 153 q 205 110 170 121 q 277 92 241 98 q 343 86 313 86 q 500 125 448 86 q 552 237 552 164 q 535 306 552 277 q 487 359 517 335 q 415 405 456 383 q 325 452 373 427 q 230 504 274 477 q 153 562 186 530 q 102 634 121 594 q 83 729 83 675 q 113 845 83 795 q 189 926 142 894 q 297 973 237 958 q 421 989 358 989 q 631 954 565 989 l 631 826 q 410 886 545 886 q 335 878 372 886 q 269 852 298 870 q 221 807 239 835 q 203 739 203 779 q 217 675 203 702 q 258 625 231 648 q 324 582 285 603 q 414 536 363 561 q 513 481 466 510 q 595 418 559 453 q 651 342 630 384 q 671 245 671 300 q 643 124 671 174 q 567 43 615 74 q 457 -2 519 12 q 326 -16 395 -16 q 269 -13 302 -16 q 199 -2 235 -9 q 133 16 164 5 q 82 39 101 26 m 560 1287 l 415 1063 l 326 1063 l 179 1287 l 257 1287 l 368 1132 l 479 1287 l 560 1287 z "},"š":{"ha":589,"x_min":71,"x_max":531,"o":"m 71 25 l 71 144 q 271 77 161 77 q 417 175 417 77 q 405 222 417 203 q 371 256 392 241 q 320 283 349 271 q 258 308 292 295 q 177 345 212 326 q 119 387 142 363 q 84 440 96 410 q 72 510 72 470 q 94 596 72 559 q 154 660 117 634 q 239 698 191 685 q 338 711 287 711 q 499 680 428 711 l 499 567 q 323 617 422 617 q 267 610 292 617 q 223 590 241 603 q 196 559 205 577 q 186 519 186 541 q 196 474 186 492 q 224 441 205 456 q 271 416 243 427 q 332 391 298 404 q 415 354 378 373 q 477 312 452 336 q 517 258 503 289 q 531 186 531 228 q 508 96 531 134 q 448 33 486 58 q 360 -4 410 8 q 256 -16 311 -16 q 71 25 149 -16 m 462 1050 l 317 826 l 227 826 l 81 1050 l 159 1050 l 270 895 l 381 1050 l 462 1050 z "},"Ṧ":{"ha":738,"x_min":82,"x_max":671,"o":"m 82 39 l 82 174 q 137 137 105 153 q 205 110 170 121 q 277 92 241 98 q 343 86 313 86 q 500 125 448 86 q 552 237 552 164 q 535 306 552 277 q 487 359 517 335 q 415 405 456 383 q 325 452 373 427 q 230 504 274 477 q 153 562 186 530 q 102 634 121 594 q 83 729 83 675 q 113 845 83 795 q 189 926 142 894 q 297 973 237 958 q 421 989 358 989 q 631 954 565 989 l 631 826 q 410 886 545 886 q 335 878 372 886 q 269 852 298 870 q 221 807 239 835 q 203 739 203 779 q 217 675 203 702 q 258 625 231 648 q 324 582 285 603 q 414 536 363 561 q 513 481 466 510 q 595 418 559 453 q 651 342 630 384 q 671 245 671 300 q 643 124 671 174 q 567 43 615 74 q 457 -2 519 12 q 326 -16 395 -16 q 269 -13 302 -16 q 199 -2 235 -9 q 133 16 164 5 q 82 39 101 26 m 397 1229 q 351 1248 370 1229 q 331 1296 331 1267 q 350 1342 331 1323 q 397 1361 370 1361 q 445 1342 425 1361 q 464 1296 464 1324 q 445 1249 464 1268 q 397 1229 425 1229 m 591 1232 l 445 1062 l 354 1062 l 209 1232 l 285 1232 l 397 1132 l 509 1232 l 591 1232 z "},"ṧ":{"ha":589,"x_min":71,"x_max":531,"o":"m 71 25 l 71 144 q 271 77 161 77 q 417 175 417 77 q 405 222 417 203 q 371 256 392 241 q 320 283 349 271 q 258 308 292 295 q 177 345 212 326 q 119 387 142 363 q 84 440 96 410 q 72 510 72 470 q 94 596 72 559 q 154 660 117 634 q 239 698 191 685 q 338 711 287 711 q 499 680 428 711 l 499 567 q 323 617 422 617 q 267 610 292 617 q 223 590 241 603 q 196 559 205 577 q 186 519 186 541 q 196 474 186 492 q 224 441 205 456 q 271 416 243 427 q 332 391 298 404 q 415 354 378 373 q 477 312 452 336 q 517 258 503 289 q 531 186 531 228 q 508 96 531 134 q 448 33 486 58 q 360 -4 410 8 q 256 -16 311 -16 q 71 25 149 -16 m 304 993 q 257 1012 277 993 q 237 1059 237 1031 q 257 1106 237 1087 q 304 1125 276 1125 q 351 1106 332 1125 q 370 1059 370 1088 q 351 1013 370 1032 q 304 993 332 993 m 497 996 l 351 826 l 260 826 l 115 996 l 191 996 l 304 896 l 415 996 l 497 996 z "},"Ṡ":{"ha":738,"x_min":82,"x_max":671,"o":"m 82 39 l 82 174 q 137 137 105 153 q 205 110 170 121 q 277 92 241 98 q 343 86 313 86 q 500 125 448 86 q 552 237 552 164 q 535 306 552 277 q 487 359 517 335 q 415 405 456 383 q 325 452 373 427 q 230 504 274 477 q 153 562 186 530 q 102 634 121 594 q 83 729 83 675 q 113 845 83 795 q 189 926 142 894 q 297 973 237 958 q 421 989 358 989 q 631 954 565 989 l 631 826 q 410 886 545 886 q 335 878 372 886 q 269 852 298 870 q 221 807 239 835 q 203 739 203 779 q 217 675 203 702 q 258 625 231 648 q 324 582 285 603 q 414 536 363 561 q 513 481 466 510 q 595 418 559 453 q 651 342 630 384 q 671 245 671 300 q 643 124 671 174 q 567 43 615 74 q 457 -2 519 12 q 326 -16 395 -16 q 269 -13 302 -16 q 199 -2 235 -9 q 133 16 164 5 q 82 39 101 26 m 403 1063 q 356 1082 376 1063 q 336 1130 336 1101 q 355 1176 336 1157 q 403 1195 375 1195 q 450 1176 431 1195 q 469 1130 469 1158 q 450 1082 469 1102 q 403 1063 431 1063 z "},"ṡ":{"ha":589,"x_min":71,"x_max":531,"o":"m 71 25 l 71 144 q 271 77 161 77 q 417 175 417 77 q 405 222 417 203 q 371 256 392 241 q 320 283 349 271 q 258 308 292 295 q 177 345 212 326 q 119 387 142 363 q 84 440 96 410 q 72 510 72 470 q 94 596 72 559 q 154 660 117 634 q 239 698 191 685 q 338 711 287 711 q 499 680 428 711 l 499 567 q 323 617 422 617 q 267 610 292 617 q 223 590 241 603 q 196 559 205 577 q 186 519 186 541 q 196 474 186 492 q 224 441 205 456 q 271 416 243 427 q 332 391 298 404 q 415 354 378 373 q 477 312 452 336 q 517 258 503 289 q 531 186 531 228 q 508 96 531 134 q 448 33 486 58 q 360 -4 410 8 q 256 -16 311 -16 q 71 25 149 -16 m 317 826 q 270 845 290 826 q 250 893 250 865 q 270 939 250 920 q 317 958 290 958 q 365 940 345 958 q 384 893 384 921 q 365 846 384 865 q 317 826 345 826 z "},"Ṩ":{"ha":738,"x_min":82,"x_max":671,"o":"m 82 39 l 82 174 q 137 137 105 153 q 205 110 170 121 q 277 92 241 98 q 343 86 313 86 q 500 125 448 86 q 552 237 552 164 q 535 306 552 277 q 487 359 517 335 q 415 405 456 383 q 325 452 373 427 q 230 504 274 477 q 153 562 186 530 q 102 634 121 594 q 83 729 83 675 q 113 845 83 795 q 189 926 142 894 q 297 973 237 958 q 421 989 358 989 q 631 954 565 989 l 631 826 q 410 886 545 886 q 335 878 372 886 q 269 852 298 870 q 221 807 239 835 q 203 739 203 779 q 217 675 203 702 q 258 625 231 648 q 324 582 285 603 q 414 536 363 561 q 513 481 466 510 q 595 418 559 453 q 651 342 630 384 q 671 245 671 300 q 643 124 671 174 q 567 43 615 74 q 457 -2 519 12 q 326 -16 395 -16 q 269 -13 302 -16 q 199 -2 235 -9 q 133 16 164 5 q 82 39 101 26 m 414 1063 q 367 1082 387 1063 q 347 1130 347 1101 q 366 1176 347 1157 q 414 1195 386 1195 q 461 1176 441 1195 q 480 1130 480 1158 q 461 1082 480 1102 q 414 1063 441 1063 m 412 -213 q 365 -193 385 -213 q 345 -146 345 -174 q 366 -99 345 -118 q 412 -81 386 -81 q 460 -99 440 -81 q 479 -146 479 -118 q 460 -193 479 -174 q 412 -213 440 -213 z "},"ṩ":{"ha":589,"x_min":71,"x_max":531,"o":"m 71 25 l 71 144 q 271 77 161 77 q 417 175 417 77 q 405 222 417 203 q 371 256 392 241 q 320 283 349 271 q 258 308 292 295 q 177 345 212 326 q 119 387 142 363 q 84 440 96 410 q 72 510 72 470 q 94 596 72 559 q 154 660 117 634 q 239 698 191 685 q 338 711 287 711 q 499 680 428 711 l 499 567 q 323 617 422 617 q 267 610 292 617 q 223 590 241 603 q 196 559 205 577 q 186 519 186 541 q 196 474 186 492 q 224 441 205 456 q 271 416 243 427 q 332 391 298 404 q 415 354 378 373 q 477 312 452 336 q 517 258 503 289 q 531 186 531 228 q 508 96 531 134 q 448 33 486 58 q 360 -4 410 8 q 256 -16 311 -16 q 71 25 149 -16 m 319 -213 q 272 -193 292 -213 q 252 -146 252 -174 q 273 -99 252 -118 q 319 -81 293 -81 q 367 -99 347 -81 q 387 -146 387 -118 q 367 -193 387 -174 q 319 -213 347 -213 m 313 826 q 266 845 286 826 q 246 893 246 865 q 266 939 246 920 q 313 958 286 958 q 360 940 341 958 q 380 893 380 921 q 360 846 380 865 q 313 826 341 826 z "},"Ṣ":{"ha":738,"x_min":82,"x_max":671,"o":"m 82 39 l 82 174 q 137 137 105 153 q 205 110 170 121 q 277 92 241 98 q 343 86 313 86 q 500 125 448 86 q 552 237 552 164 q 535 306 552 277 q 487 359 517 335 q 415 405 456 383 q 325 452 373 427 q 230 504 274 477 q 153 562 186 530 q 102 634 121 594 q 83 729 83 675 q 113 845 83 795 q 189 926 142 894 q 297 973 237 958 q 421 989 358 989 q 631 954 565 989 l 631 826 q 410 886 545 886 q 335 878 372 886 q 269 852 298 870 q 221 807 239 835 q 203 739 203 779 q 217 675 203 702 q 258 625 231 648 q 324 582 285 603 q 414 536 363 561 q 513 481 466 510 q 595 418 559 453 q 651 342 630 384 q 671 245 671 300 q 643 124 671 174 q 567 43 615 74 q 457 -2 519 12 q 326 -16 395 -16 q 269 -13 302 -16 q 199 -2 235 -9 q 133 16 164 5 q 82 39 101 26 m 374 -213 q 327 -193 347 -213 q 307 -146 307 -174 q 328 -99 307 -118 q 374 -81 348 -81 q 422 -99 402 -81 q 441 -146 441 -118 q 422 -193 441 -174 q 374 -213 402 -213 z "},"ṣ":{"ha":589,"x_min":71,"x_max":531,"o":"m 71 25 l 71 144 q 271 77 161 77 q 417 175 417 77 q 405 222 417 203 q 371 256 392 241 q 320 283 349 271 q 258 308 292 295 q 177 345 212 326 q 119 387 142 363 q 84 440 96 410 q 72 510 72 470 q 94 596 72 559 q 154 660 117 634 q 239 698 191 685 q 338 711 287 711 q 499 680 428 711 l 499 567 q 323 617 422 617 q 267 610 292 617 q 223 590 241 603 q 196 559 205 577 q 186 519 186 541 q 196 474 186 492 q 224 441 205 456 q 271 416 243 427 q 332 391 298 404 q 415 354 378 373 q 477 312 452 336 q 517 258 503 289 q 531 186 531 228 q 508 96 531 134 q 448 33 486 58 q 360 -4 410 8 q 256 -16 311 -16 q 71 25 149 -16 m 309 -213 q 261 -193 281 -213 q 241 -146 241 -174 q 262 -99 241 -118 q 309 -81 282 -81 q 356 -99 336 -81 q 376 -146 376 -118 q 356 -193 376 -174 q 309 -213 336 -213 z "},"Ş":{"ha":738,"x_min":82,"x_max":671,"o":"m 82 39 l 82 174 q 137 137 105 153 q 205 110 170 121 q 277 92 241 98 q 343 86 313 86 q 500 125 448 86 q 552 237 552 164 q 535 306 552 277 q 487 359 517 335 q 415 405 456 383 q 325 452 373 427 q 230 504 274 477 q 153 562 186 530 q 102 634 121 594 q 83 729 83 675 q 113 845 83 795 q 189 926 142 894 q 297 973 237 958 q 421 989 358 989 q 631 954 565 989 l 631 826 q 410 886 545 886 q 335 878 372 886 q 269 852 298 870 q 221 807 239 835 q 203 739 203 779 q 217 675 203 702 q 258 625 231 648 q 324 582 285 603 q 414 536 363 561 q 513 481 466 510 q 595 418 559 453 q 651 342 630 384 q 671 245 671 300 q 643 124 671 174 q 567 43 615 74 q 457 -2 519 12 q 326 -16 395 -16 q 269 -13 302 -16 q 199 -2 235 -9 q 133 16 164 5 q 82 39 101 26 m 519 -174 q 332 -293 519 -293 q 288 -292 307 -293 l 288 -231 q 336 -235 317 -235 q 431 -174 431 -235 q 344 -121 431 -121 q 316 -123 337 -121 l 316 0 l 389 0 l 389 -71 q 484 -98 449 -71 q 519 -174 519 -125 z "},"ş":{"ha":589,"x_min":71,"x_max":531,"o":"m 71 25 l 71 144 q 271 77 161 77 q 417 175 417 77 q 405 222 417 203 q 371 256 392 241 q 320 283 349 271 q 258 308 292 295 q 177 345 212 326 q 119 387 142 363 q 84 440 96 410 q 72 510 72 470 q 94 596 72 559 q 154 660 117 634 q 239 698 191 685 q 338 711 287 711 q 499 680 428 711 l 499 567 q 323 617 422 617 q 267 610 292 617 q 223 590 241 603 q 196 559 205 577 q 186 519 186 541 q 196 474 186 492 q 224 441 205 456 q 271 416 243 427 q 332 391 298 404 q 415 354 378 373 q 477 312 452 336 q 517 258 503 289 q 531 186 531 228 q 508 96 531 134 q 448 33 486 58 q 360 -4 410 8 q 256 -16 311 -16 q 71 25 149 -16 m 441 -174 q 254 -293 441 -293 q 210 -292 229 -293 l 210 -231 q 258 -235 239 -235 q 353 -174 353 -235 q 266 -121 353 -121 q 238 -123 259 -121 l 238 0 l 311 0 l 311 -71 q 406 -98 371 -71 q 441 -174 441 -125 z "},"Ș":{"ha":738,"x_min":82,"x_max":671,"o":"m 82 39 l 82 174 q 137 137 105 153 q 205 110 170 121 q 277 92 241 98 q 343 86 313 86 q 500 125 448 86 q 552 237 552 164 q 535 306 552 277 q 487 359 517 335 q 415 405 456 383 q 325 452 373 427 q 230 504 274 477 q 153 562 186 530 q 102 634 121 594 q 83 729 83 675 q 113 845 83 795 q 189 926 142 894 q 297 973 237 958 q 421 989 358 989 q 631 954 565 989 l 631 826 q 410 886 545 886 q 335 878 372 886 q 269 852 298 870 q 221 807 239 835 q 203 739 203 779 q 217 675 203 702 q 258 625 231 648 q 324 582 285 603 q 414 536 363 561 q 513 481 466 510 q 595 418 559 453 q 651 342 630 384 q 671 245 671 300 q 643 124 671 174 q 567 43 615 74 q 457 -2 519 12 q 326 -16 395 -16 q 269 -13 302 -16 q 199 -2 235 -9 q 133 16 164 5 q 82 39 101 26 m 428 -81 l 315 -257 l 232 -257 l 311 -81 l 428 -81 z "},"ș":{"ha":589,"x_min":71,"x_max":531,"o":"m 71 25 l 71 144 q 271 77 161 77 q 417 175 417 77 q 405 222 417 203 q 371 256 392 241 q 320 283 349 271 q 258 308 292 295 q 177 345 212 326 q 119 387 142 363 q 84 440 96 410 q 72 510 72 470 q 94 596 72 559 q 154 660 117 634 q 239 698 191 685 q 338 711 287 711 q 499 680 428 711 l 499 567 q 323 617 422 617 q 267 610 292 617 q 223 590 241 603 q 196 559 205 577 q 186 519 186 541 q 196 474 186 492 q 224 441 205 456 q 271 416 243 427 q 332 391 298 404 q 415 354 378 373 q 477 312 452 336 q 517 258 503 289 q 531 186 531 228 q 508 96 531 134 q 448 33 486 58 q 360 -4 410 8 q 256 -16 311 -16 q 71 25 149 -16 m 351 -81 l 238 -257 l 155 -257 l 234 -81 l 351 -81 z "},"ß":{"ha":755,"x_min":113,"x_max":708,"o":"m 313 110 q 428 77 363 77 q 548 127 503 77 q 594 261 594 177 q 526 426 594 363 q 338 503 458 490 l 338 591 q 469 661 416 604 q 521 795 521 717 q 484 909 521 869 q 380 949 446 949 q 224 739 224 949 l 224 0 l 113 0 l 113 755 q 187 964 113 886 q 388 1043 262 1043 q 568 979 500 1043 q 635 808 635 914 q 584 654 635 722 q 452 559 533 585 l 452 555 q 708 267 708 505 q 633 65 708 146 q 433 -16 557 -16 q 313 1 366 -16 l 313 110 z "},"Ʃ":{"ha":717,"x_min":31,"x_max":684,"o":"m 684 0 l 31 0 l 31 53 l 347 502 l 60 911 l 60 972 l 642 972 l 642 868 l 227 868 l 481 505 l 199 100 l 684 100 l 684 0 z "},"ʃ":{"ha":343,"x_min":-75,"x_max":418,"o":"m 418 930 q 343 949 384 949 q 228 798 228 949 l 228 -87 q 165 -262 228 -197 q 5 -327 102 -327 q -75 -314 -46 -327 l -75 -214 q 0 -232 -41 -232 q 117 -81 117 -232 l 117 803 q 179 979 117 914 q 338 1043 241 1043 q 418 1031 389 1043 l 418 930 z "},"T":{"ha":728,"x_min":28,"x_max":703,"o":"m 703 869 l 422 869 l 422 0 l 308 0 l 308 869 l 28 869 l 28 972 l 703 972 l 703 869 z "},"t":{"ha":471,"x_min":29,"x_max":435,"o":"m 435 7 q 331 -15 395 -15 q 149 189 149 -15 l 149 600 l 29 600 l 29 694 l 149 694 l 149 864 l 260 900 l 260 694 l 435 694 l 435 600 l 260 600 l 260 208 q 283 109 260 138 q 362 79 307 79 q 435 102 404 79 l 435 7 z "},"Ť":{"ha":728,"x_min":28,"x_max":703,"o":"m 703 869 l 422 869 l 422 0 l 308 0 l 308 869 l 28 869 l 28 972 l 703 972 l 703 869 m 557 1286 l 412 1062 l 322 1062 l 176 1286 l 254 1286 l 365 1131 l 476 1286 l 557 1286 z "},"ť":{"ha":611,"x_min":29,"x_max":664,"o":"m 435 7 q 331 -15 395 -15 q 149 189 149 -15 l 149 600 l 29 600 l 29 694 l 149 694 l 149 864 l 260 900 l 260 694 l 435 694 l 435 600 l 260 600 l 260 208 q 283 109 260 138 q 362 79 307 79 q 435 102 405 79 l 435 7 m 664 945 l 551 769 l 468 769 l 547 945 l 664 945 z "},"Ṫ":{"ha":728,"x_min":28,"x_max":703,"o":"m 703 869 l 422 869 l 422 0 l 308 0 l 308 869 l 28 869 l 28 972 l 703 972 l 703 869 m 366 1063 q 319 1082 339 1063 q 299 1130 299 1101 q 319 1176 299 1157 q 366 1195 338 1195 q 413 1176 394 1195 q 433 1130 433 1158 q 413 1082 433 1102 q 366 1063 394 1063 z "},"ṫ":{"ha":471,"x_min":29,"x_max":435,"o":"m 435 7 q 331 -15 395 -15 q 149 189 149 -15 l 149 600 l 29 600 l 29 694 l 149 694 l 149 864 l 260 900 l 260 694 l 435 694 l 435 600 l 260 600 l 260 208 q 283 109 260 138 q 362 79 307 79 q 435 102 404 79 l 435 7 m 204 967 q 157 986 177 967 q 137 1034 137 1006 q 157 1080 137 1061 q 204 1099 176 1099 q 251 1081 232 1099 q 271 1034 271 1062 q 251 987 271 1006 q 204 967 232 967 z "},"Ṱ":{"ha":728,"x_min":28,"x_max":703,"o":"m 703 869 l 422 869 l 422 0 l 308 0 l 308 869 l 28 869 l 28 972 l 703 972 l 703 869 m 558 -305 l 475 -305 l 364 -149 l 252 -305 l 176 -305 l 321 -80 l 412 -80 l 558 -305 z "},"ṱ":{"ha":471,"x_min":29,"x_max":439,"o":"m 435 7 q 331 -15 395 -15 q 149 189 149 -15 l 149 600 l 29 600 l 29 694 l 149 694 l 149 864 l 260 900 l 260 694 l 435 694 l 435 600 l 260 600 l 260 208 q 283 109 260 138 q 362 79 307 79 q 435 102 404 79 l 435 7 m 439 -304 l 356 -304 l 245 -149 l 133 -304 l 56 -304 l 202 -79 l 292 -79 l 439 -304 z "},"Ṯ":{"ha":728,"x_min":28,"x_max":703,"o":"m 703 869 l 422 869 l 422 0 l 308 0 l 308 869 l 28 869 l 28 972 l 703 972 l 703 869 m 541 -152 l 196 -152 l 196 -78 l 541 -78 l 541 -152 z "},"ṯ":{"ha":471,"x_min":29,"x_max":446,"o":"m 435 7 q 331 -15 395 -15 q 149 189 149 -15 l 149 600 l 29 600 l 29 694 l 149 694 l 149 864 l 260 900 l 260 694 l 435 694 l 435 600 l 260 600 l 260 208 q 283 109 260 138 q 362 79 307 79 q 435 102 404 79 l 435 7 m 446 -152 l 101 -152 l 101 -78 l 446 -78 l 446 -152 z "},"Ṭ":{"ha":728,"x_min":28,"x_max":703,"o":"m 703 869 l 422 869 l 422 0 l 308 0 l 308 869 l 28 869 l 28 972 l 703 972 l 703 869 m 364 -213 q 317 -193 336 -213 q 297 -146 297 -174 q 317 -99 297 -118 q 364 -81 338 -81 q 412 -99 392 -81 q 431 -146 431 -118 q 412 -193 431 -174 q 364 -213 392 -213 z "},"ṭ":{"ha":471,"x_min":29,"x_max":435,"o":"m 435 7 q 331 -15 395 -15 q 149 189 149 -15 l 149 600 l 29 600 l 29 694 l 149 694 l 149 864 l 260 900 l 260 694 l 435 694 l 435 600 l 260 600 l 260 208 q 283 109 260 138 q 362 79 307 79 q 435 102 404 79 l 435 7 m 244 -213 q 197 -193 216 -213 q 177 -146 177 -174 q 197 -99 177 -118 q 244 -81 218 -81 q 292 -99 272 -81 q 311 -146 311 -118 q 292 -193 311 -174 q 244 -213 272 -213 z "},"Ţ":{"ha":728,"x_min":28,"x_max":703,"o":"m 703 869 l 422 869 l 422 0 l 308 0 l 308 869 l 28 869 l 28 972 l 703 972 l 703 869 m 518 -174 q 332 -293 518 -293 q 288 -292 306 -293 l 288 -231 q 335 -235 317 -235 q 431 -174 431 -235 q 343 -121 431 -121 q 315 -123 336 -121 l 315 0 l 389 0 l 389 -71 q 483 -98 448 -71 q 518 -174 518 -125 z "},"ţ":{"ha":471,"x_min":29,"x_max":452,"o":"m 435 7 q 331 -15 395 -15 q 149 189 149 -15 l 149 600 l 29 600 l 29 694 l 149 694 l 149 864 l 260 900 l 260 694 l 435 694 l 435 600 l 260 600 l 260 208 q 283 109 260 138 q 362 79 307 79 q 435 102 404 79 l 435 7 m 452 -174 q 265 -293 452 -293 q 221 -292 239 -293 l 221 -231 q 269 -235 250 -235 q 364 -174 364 -235 q 277 -121 364 -121 q 249 -123 270 -121 l 249 0 l 322 0 l 322 -71 q 417 -98 382 -71 q 452 -174 452 -125 z "},"Ț":{"ha":728,"x_min":28,"x_max":703,"o":"m 703 869 l 422 869 l 422 0 l 308 0 l 308 869 l 28 869 l 28 972 l 703 972 l 703 869 m 444 -81 l 332 -257 l 248 -257 l 328 -81 l 444 -81 z "},"ț":{"ha":471,"x_min":29,"x_max":435,"o":"m 435 7 q 331 -15 395 -15 q 149 189 149 -15 l 149 600 l 29 600 l 29 694 l 149 694 l 149 864 l 260 900 l 260 694 l 435 694 l 435 600 l 260 600 l 260 208 q 283 109 260 138 q 362 79 307 79 q 435 102 404 79 l 435 7 m 373 -81 l 260 -257 l 177 -257 l 256 -81 l 373 -81 z "},"Ŧ":{"ha":728,"x_min":28,"x_max":703,"o":"m 703 869 l 422 869 l 422 540 l 589 540 l 589 435 l 422 435 l 422 0 l 308 0 l 308 435 l 139 435 l 139 540 l 308 540 l 308 869 l 28 869 l 28 972 l 703 972 l 703 869 z "},"ŧ":{"ha":471,"x_min":29,"x_max":435,"o":"m 428 371 l 260 371 l 260 208 q 283 109 260 138 q 362 79 307 79 q 435 102 404 79 l 435 7 q 331 -15 395 -15 q 149 189 149 -15 l 149 371 l 38 371 l 38 461 l 149 461 l 149 600 l 29 600 l 29 694 l 149 694 l 149 864 l 204 882 l 260 900 l 260 694 l 435 694 l 435 600 l 260 600 l 260 461 l 428 461 l 428 371 z "},"Ƭ":{"ha":729,"x_min":-35,"x_max":703,"o":"m 703 869 l 422 869 l 422 0 l 308 0 l 308 869 l 203 869 q 107 838 142 869 q 73 754 73 807 q 87 682 73 717 l -19 682 q -35 765 -35 720 q 31 914 -35 855 q 207 972 97 972 l 703 972 l 703 869 z "},"ƭ":{"ha":472,"x_min":29,"x_max":435,"o":"m 435 7 q 331 -15 395 -15 q 149 189 149 -15 l 149 600 l 29 600 l 29 694 l 149 694 l 149 825 q 200 984 149 924 q 340 1043 252 1043 q 435 1024 391 1043 l 435 925 q 350 949 393 949 q 260 819 260 949 l 260 694 l 435 694 l 435 600 l 260 600 l 260 208 q 283 109 260 138 q 362 79 307 79 q 435 102 403 79 l 435 7 z "},"Ʈ":{"ha":729,"x_min":26,"x_max":703,"o":"m 703 869 l 422 869 l 422 36 q 537 -143 422 -143 q 620 -127 585 -143 l 620 -228 q 528 -245 581 -245 q 308 29 308 -245 l 308 869 l 26 869 l 26 972 l 703 972 l 703 869 z "},"ʈ":{"ha":472,"x_min":29,"x_max":435,"o":"m 435 -304 q 331 -327 395 -327 q 149 -122 149 -327 l 149 600 l 29 600 l 29 694 l 149 694 l 149 864 l 260 900 l 260 694 l 435 694 l 435 600 l 260 600 l 260 -103 q 283 -202 260 -173 q 362 -232 307 -232 q 435 -208 402 -232 l 435 -304 z "},"Ð":{"ha":974,"x_min":19,"x_max":910,"o":"m 127 0 l 127 435 l 19 435 l 19 540 l 127 540 l 127 972 l 396 972 q 910 498 910 972 q 767 136 910 272 q 385 0 624 0 l 127 0 m 241 869 l 241 540 l 469 540 l 469 435 l 241 435 l 241 103 l 387 103 q 684 205 578 103 q 791 496 791 308 q 393 869 791 869 l 241 869 z "},"ð":{"ha":777,"x_min":65,"x_max":711,"o":"m 533 656 l 536 659 q 401 839 475 768 l 199 736 l 164 803 l 347 892 q 168 1028 267 963 l 318 1028 q 435 936 369 993 l 631 1034 l 668 970 l 489 882 q 711 357 711 673 q 623 90 711 194 q 385 -15 536 -15 q 150 80 235 -15 q 65 339 65 175 q 153 607 65 504 q 391 709 241 709 q 533 656 474 709 m 395 617 q 237 544 294 617 q 179 343 179 470 q 235 149 179 220 q 392 77 292 77 q 542 151 486 77 q 597 346 597 224 q 395 617 597 617 z "},"Þ":{"ha":778,"x_min":127,"x_max":722,"o":"m 241 216 l 241 0 l 127 0 l 127 972 l 241 972 l 241 819 l 395 819 q 534 800 473 819 q 637 744 595 781 q 701 652 679 707 q 722 529 722 598 q 626 303 722 391 q 368 216 530 216 l 241 216 m 241 717 l 241 318 l 361 318 q 541 371 479 318 q 603 522 603 423 q 375 717 603 717 l 241 717 z "},"þ":{"ha":817,"x_min":113,"x_max":751,"o":"m 227 100 l 224 100 l 224 -319 l 113 -319 l 113 1028 l 224 1028 l 224 572 l 227 572 q 467 711 309 711 q 676 617 601 711 q 751 368 751 524 q 667 89 751 193 q 435 -16 582 -16 q 227 100 300 -16 m 224 380 l 224 283 q 280 137 224 197 q 422 77 336 77 q 580 155 523 77 q 637 370 637 232 q 584 551 637 486 q 439 617 530 617 q 283 550 342 617 q 224 380 224 482 z "},"U":{"ha":954,"x_min":115,"x_max":839,"o":"m 839 393 q 469 -16 839 -16 q 115 378 115 -16 l 115 972 l 229 972 l 229 385 q 481 86 229 86 q 725 375 725 86 l 725 972 l 839 972 l 839 393 z "},"u":{"ha":786,"x_min":98,"x_max":674,"o":"m 674 0 l 563 0 l 563 110 l 560 110 q 346 -16 491 -16 q 98 279 98 -16 l 98 694 l 208 694 l 208 297 q 376 77 208 77 q 510 137 458 77 q 563 294 563 197 l 563 694 l 674 694 l 674 0 z "},"Ù":{"ha":954,"x_min":115,"x_max":839,"o":"m 839 393 q 469 -16 839 -16 q 115 378 115 -16 l 115 972 l 229 972 l 229 385 q 481 86 229 86 q 725 375 725 86 l 725 972 l 839 972 l 839 393 m 563 1062 l 477 1062 l 299 1284 l 413 1284 l 563 1062 z "},"ù":{"ha":786,"x_min":98,"x_max":674,"o":"m 674 0 l 563 0 l 563 110 l 560 110 q 346 -16 491 -16 q 98 279 98 -16 l 98 694 l 208 694 l 208 297 q 376 77 208 77 q 510 137 458 77 q 563 294 563 197 l 563 694 l 674 694 l 674 0 m 478 826 l 392 826 l 214 1048 l 328 1048 l 478 826 z "},"Ú":{"ha":954,"x_min":115,"x_max":839,"o":"m 839 393 q 469 -16 839 -16 q 115 378 115 -16 l 115 972 l 229 972 l 229 385 q 481 86 229 86 q 725 375 725 86 l 725 972 l 839 972 l 839 393 m 651 1284 l 473 1061 l 387 1061 l 538 1284 l 651 1284 z "},"ú":{"ha":786,"x_min":98,"x_max":674,"o":"m 674 0 l 563 0 l 563 110 l 560 110 q 346 -16 491 -16 q 98 279 98 -16 l 98 694 l 208 694 l 208 297 q 376 77 208 77 q 510 137 458 77 q 563 294 563 197 l 563 694 l 674 694 l 674 0 m 570 1048 l 392 826 l 306 826 l 457 1048 l 570 1048 z "},"Û":{"ha":954,"x_min":115,"x_max":839,"o":"m 839 393 q 469 -16 839 -16 q 115 378 115 -16 l 115 972 l 229 972 l 229 385 q 481 86 229 86 q 725 375 725 86 l 725 972 l 839 972 l 839 393 m 669 1063 l 587 1063 l 475 1219 l 363 1063 l 287 1063 l 433 1288 l 523 1288 l 669 1063 z "},"û":{"ha":786,"x_min":98,"x_max":674,"o":"m 674 0 l 563 0 l 563 110 l 560 110 q 346 -16 491 -16 q 98 279 98 -16 l 98 694 l 208 694 l 208 297 q 376 77 208 77 q 510 137 458 77 q 563 294 563 197 l 563 694 l 674 694 l 674 0 m 579 826 l 496 826 l 385 982 l 273 826 l 197 826 l 342 1051 l 433 1051 l 579 826 z "},"Ǔ":{"ha":954,"x_min":115,"x_max":839,"o":"m 839 393 q 469 -16 839 -16 q 115 378 115 -16 l 115 972 l 229 972 l 229 385 q 481 86 229 86 q 725 375 725 86 l 725 972 l 839 972 l 839 393 m 668 1282 l 523 1058 l 433 1058 l 287 1282 l 365 1282 l 476 1126 l 587 1282 l 668 1282 z "},"ǔ":{"ha":786,"x_min":98,"x_max":674,"o":"m 674 0 l 563 0 l 563 110 l 560 110 q 346 -16 491 -16 q 98 279 98 -16 l 98 694 l 208 694 l 208 297 q 376 77 208 77 q 510 137 458 77 q 563 294 563 197 l 563 694 l 674 694 l 674 0 m 583 1050 l 438 826 l 349 826 l 202 1050 l 280 1050 l 391 895 l 503 1050 l 583 1050 z "},"Ũ":{"ha":954,"x_min":115,"x_max":839,"o":"m 839 393 q 469 -16 839 -16 q 115 378 115 -16 l 115 972 l 229 972 l 229 385 q 481 86 229 86 q 725 375 725 86 l 725 972 l 839 972 l 839 393 m 696 1225 q 664 1108 696 1154 q 576 1063 631 1063 q 466 1099 528 1063 q 385 1128 414 1128 q 326 1051 326 1128 l 262 1051 q 294 1167 262 1124 q 385 1211 327 1211 q 486 1176 429 1211 q 573 1146 536 1146 q 630 1225 630 1146 l 696 1225 z "},"ũ":{"ha":786,"x_min":98,"x_max":674,"o":"m 674 0 l 563 0 l 563 110 l 560 110 q 346 -16 491 -16 q 98 279 98 -16 l 98 694 l 208 694 l 208 297 q 376 77 208 77 q 510 137 458 77 q 563 294 563 197 l 563 694 l 674 694 l 674 0 m 604 989 q 571 872 604 918 q 483 827 538 827 q 373 863 435 827 q 292 892 321 892 q 233 815 233 892 l 169 815 q 201 931 169 888 q 292 975 234 975 q 393 940 336 975 q 480 910 444 910 q 537 989 537 910 l 604 989 z "}}}
